G04 #@! TF.GenerationSoftware,KiCad,Pcbnew,5.1.5*
G04 #@! TF.CreationDate,2020-04-03T18:21:33-06:00*
G04 #@! TF.ProjectId,AD8232,41443832-3332-42e6-9b69-6361645f7063,rev?*
G04 #@! TF.SameCoordinates,Original*
G04 #@! TF.FileFunction,Legend,Bot*
G04 #@! TF.FilePolarity,Positive*
%FSLAX46Y46*%
G04 Gerber Fmt 4.6, Leading zero omitted, Abs format (unit mm)*
G04 Created by KiCad (PCBNEW 5.1.5) date 2020-04-03 18:21:33*
%MOMM*%
%LPD*%
G04 APERTURE LIST*
%ADD10C,0.150000*%
G04 APERTURE END LIST*
D10*
X147247619Y-110884761D02*
X148247619Y-110884761D01*
X148247619Y-110646666D01*
X148200000Y-110503809D01*
X148104761Y-110408571D01*
X148009523Y-110360952D01*
X147819047Y-110313333D01*
X147676190Y-110313333D01*
X147485714Y-110360952D01*
X147390476Y-110408571D01*
X147295238Y-110503809D01*
X147247619Y-110646666D01*
X147247619Y-110884761D01*
X148247619Y-109694285D02*
X148247619Y-109503809D01*
X148200000Y-109408571D01*
X148104761Y-109313333D01*
X147914285Y-109265714D01*
X147580952Y-109265714D01*
X147390476Y-109313333D01*
X147295238Y-109408571D01*
X147247619Y-109503809D01*
X147247619Y-109694285D01*
X147295238Y-109789523D01*
X147390476Y-109884761D01*
X147580952Y-109932380D01*
X147914285Y-109932380D01*
X148104761Y-109884761D01*
X148200000Y-109789523D01*
X148247619Y-109694285D01*
X147247619Y-108075238D02*
X148247619Y-108075238D01*
X147247619Y-107503809D01*
X148247619Y-107503809D01*
X148247619Y-106837142D02*
X148247619Y-106646666D01*
X148200000Y-106551428D01*
X148104761Y-106456190D01*
X147914285Y-106408571D01*
X147580952Y-106408571D01*
X147390476Y-106456190D01*
X147295238Y-106551428D01*
X147247619Y-106646666D01*
X147247619Y-106837142D01*
X147295238Y-106932380D01*
X147390476Y-107027619D01*
X147580952Y-107075238D01*
X147914285Y-107075238D01*
X148104761Y-107027619D01*
X148200000Y-106932380D01*
X148247619Y-106837142D01*
X148247619Y-106122857D02*
X148247619Y-105551428D01*
X147247619Y-105837142D02*
X148247619Y-105837142D01*
X148247619Y-104456190D02*
X147438095Y-104456190D01*
X147342857Y-104408571D01*
X147295238Y-104360952D01*
X147247619Y-104265714D01*
X147247619Y-104075238D01*
X147295238Y-103980000D01*
X147342857Y-103932380D01*
X147438095Y-103884761D01*
X148247619Y-103884761D01*
X147295238Y-103456190D02*
X147247619Y-103313333D01*
X147247619Y-103075238D01*
X147295238Y-102980000D01*
X147342857Y-102932380D01*
X147438095Y-102884761D01*
X147533333Y-102884761D01*
X147628571Y-102932380D01*
X147676190Y-102980000D01*
X147723809Y-103075238D01*
X147771428Y-103265714D01*
X147819047Y-103360952D01*
X147866666Y-103408571D01*
X147961904Y-103456190D01*
X148057142Y-103456190D01*
X148152380Y-103408571D01*
X148200000Y-103360952D01*
X148247619Y-103265714D01*
X148247619Y-103027619D01*
X148200000Y-102884761D01*
X147771428Y-102456190D02*
X147771428Y-102122857D01*
X147247619Y-101980000D02*
X147247619Y-102456190D01*
X148247619Y-102456190D01*
X148247619Y-101980000D01*
X147342857Y-101551428D02*
X147295238Y-101503809D01*
X147247619Y-101551428D01*
X147295238Y-101599047D01*
X147342857Y-101551428D01*
X147247619Y-101551428D01*
X147628571Y-101551428D02*
X148200000Y-101599047D01*
X148247619Y-101551428D01*
X148200000Y-101503809D01*
X147628571Y-101551428D01*
X148247619Y-101551428D01*
X148247619Y-100456190D02*
X148247619Y-99884761D01*
X147247619Y-100170476D02*
X148247619Y-100170476D01*
X147247619Y-99551428D02*
X148247619Y-99551428D01*
X147247619Y-99122857D02*
X147771428Y-99122857D01*
X147866666Y-99170476D01*
X147914285Y-99265714D01*
X147914285Y-99408571D01*
X147866666Y-99503809D01*
X147819047Y-99551428D01*
X147247619Y-98646666D02*
X147914285Y-98646666D01*
X148247619Y-98646666D02*
X148200000Y-98694285D01*
X148152380Y-98646666D01*
X148200000Y-98599047D01*
X148247619Y-98646666D01*
X148152380Y-98646666D01*
X147295238Y-98218095D02*
X147247619Y-98122857D01*
X147247619Y-97932380D01*
X147295238Y-97837142D01*
X147390476Y-97789523D01*
X147438095Y-97789523D01*
X147533333Y-97837142D01*
X147580952Y-97932380D01*
X147580952Y-98075238D01*
X147628571Y-98170476D01*
X147723809Y-98218095D01*
X147771428Y-98218095D01*
X147866666Y-98170476D01*
X147914285Y-98075238D01*
X147914285Y-97932380D01*
X147866666Y-97837142D01*
X147247619Y-96599047D02*
X147914285Y-96599047D01*
X148247619Y-96599047D02*
X148200000Y-96646666D01*
X148152380Y-96599047D01*
X148200000Y-96551428D01*
X148247619Y-96599047D01*
X148152380Y-96599047D01*
X147295238Y-96170476D02*
X147247619Y-96075238D01*
X147247619Y-95884761D01*
X147295238Y-95789523D01*
X147390476Y-95741904D01*
X147438095Y-95741904D01*
X147533333Y-95789523D01*
X147580952Y-95884761D01*
X147580952Y-96027619D01*
X147628571Y-96122857D01*
X147723809Y-96170476D01*
X147771428Y-96170476D01*
X147866666Y-96122857D01*
X147914285Y-96027619D01*
X147914285Y-95884761D01*
X147866666Y-95789523D01*
X147247619Y-94122857D02*
X147771428Y-94122857D01*
X147866666Y-94170476D01*
X147914285Y-94265714D01*
X147914285Y-94456190D01*
X147866666Y-94551428D01*
X147295238Y-94122857D02*
X147247619Y-94218095D01*
X147247619Y-94456190D01*
X147295238Y-94551428D01*
X147390476Y-94599047D01*
X147485714Y-94599047D01*
X147580952Y-94551428D01*
X147628571Y-94456190D01*
X147628571Y-94218095D01*
X147676190Y-94122857D01*
X147295238Y-92456190D02*
X147247619Y-92551428D01*
X147247619Y-92741904D01*
X147295238Y-92837142D01*
X147342857Y-92884761D01*
X147438095Y-92932380D01*
X147723809Y-92932380D01*
X147819047Y-92884761D01*
X147866666Y-92837142D01*
X147914285Y-92741904D01*
X147914285Y-92551428D01*
X147866666Y-92456190D01*
X147247619Y-91884761D02*
X147295238Y-91980000D01*
X147342857Y-92027619D01*
X147438095Y-92075238D01*
X147723809Y-92075238D01*
X147819047Y-92027619D01*
X147866666Y-91980000D01*
X147914285Y-91884761D01*
X147914285Y-91741904D01*
X147866666Y-91646666D01*
X147819047Y-91599047D01*
X147723809Y-91551428D01*
X147438095Y-91551428D01*
X147342857Y-91599047D01*
X147295238Y-91646666D01*
X147247619Y-91741904D01*
X147247619Y-91884761D01*
X147914285Y-91122857D02*
X146914285Y-91122857D01*
X147866666Y-91122857D02*
X147914285Y-91027619D01*
X147914285Y-90837142D01*
X147866666Y-90741904D01*
X147819047Y-90694285D01*
X147723809Y-90646666D01*
X147438095Y-90646666D01*
X147342857Y-90694285D01*
X147295238Y-90741904D01*
X147247619Y-90837142D01*
X147247619Y-91027619D01*
X147295238Y-91122857D01*
X147914285Y-90313333D02*
X147247619Y-90075238D01*
X147914285Y-89837142D02*
X147247619Y-90075238D01*
X147009523Y-90170476D01*
X146961904Y-90218095D01*
X146914285Y-90313333D01*
X147247619Y-88551428D02*
X147295238Y-88646666D01*
X147342857Y-88694285D01*
X147438095Y-88741904D01*
X147723809Y-88741904D01*
X147819047Y-88694285D01*
X147866666Y-88646666D01*
X147914285Y-88551428D01*
X147914285Y-88408571D01*
X147866666Y-88313333D01*
X147819047Y-88265714D01*
X147723809Y-88218095D01*
X147438095Y-88218095D01*
X147342857Y-88265714D01*
X147295238Y-88313333D01*
X147247619Y-88408571D01*
X147247619Y-88551428D01*
X147914285Y-87932380D02*
X147914285Y-87551428D01*
X147247619Y-87789523D02*
X148104761Y-87789523D01*
X148200000Y-87741904D01*
X148247619Y-87646666D01*
X148247619Y-87551428D01*
X147914285Y-86599047D02*
X147914285Y-86218095D01*
X148247619Y-86456190D02*
X147390476Y-86456190D01*
X147295238Y-86408571D01*
X147247619Y-86313333D01*
X147247619Y-86218095D01*
X147247619Y-85884761D02*
X148247619Y-85884761D01*
X147247619Y-85456190D02*
X147771428Y-85456190D01*
X147866666Y-85503809D01*
X147914285Y-85599047D01*
X147914285Y-85741904D01*
X147866666Y-85837142D01*
X147819047Y-85884761D01*
X147295238Y-84599047D02*
X147247619Y-84694285D01*
X147247619Y-84884761D01*
X147295238Y-84980000D01*
X147390476Y-85027619D01*
X147771428Y-85027619D01*
X147866666Y-84980000D01*
X147914285Y-84884761D01*
X147914285Y-84694285D01*
X147866666Y-84599047D01*
X147771428Y-84551428D01*
X147676190Y-84551428D01*
X147580952Y-85027619D01*
X147914285Y-83503809D02*
X147914285Y-83122857D01*
X147247619Y-83360952D02*
X148104761Y-83360952D01*
X148200000Y-83313333D01*
X148247619Y-83218095D01*
X148247619Y-83122857D01*
X147247619Y-82646666D02*
X147295238Y-82741904D01*
X147342857Y-82789523D01*
X147438095Y-82837142D01*
X147723809Y-82837142D01*
X147819047Y-82789523D01*
X147866666Y-82741904D01*
X147914285Y-82646666D01*
X147914285Y-82503809D01*
X147866666Y-82408571D01*
X147819047Y-82360952D01*
X147723809Y-82313333D01*
X147438095Y-82313333D01*
X147342857Y-82360952D01*
X147295238Y-82408571D01*
X147247619Y-82503809D01*
X147247619Y-82646666D01*
X147247619Y-81741904D02*
X147295238Y-81837142D01*
X147390476Y-81884761D01*
X148247619Y-81884761D01*
X147247619Y-81218095D02*
X147295238Y-81313333D01*
X147390476Y-81360952D01*
X148247619Y-81360952D01*
X147247619Y-80694285D02*
X147295238Y-80789523D01*
X147342857Y-80837142D01*
X147438095Y-80884761D01*
X147723809Y-80884761D01*
X147819047Y-80837142D01*
X147866666Y-80789523D01*
X147914285Y-80694285D01*
X147914285Y-80551428D01*
X147866666Y-80456190D01*
X147819047Y-80408571D01*
X147723809Y-80360952D01*
X147438095Y-80360952D01*
X147342857Y-80408571D01*
X147295238Y-80456190D01*
X147247619Y-80551428D01*
X147247619Y-80694285D01*
X147914285Y-80027619D02*
X147247619Y-79837142D01*
X147723809Y-79646666D01*
X147247619Y-79456190D01*
X147914285Y-79265714D01*
X147247619Y-78884761D02*
X147914285Y-78884761D01*
X148247619Y-78884761D02*
X148200000Y-78932380D01*
X148152380Y-78884761D01*
X148200000Y-78837142D01*
X148247619Y-78884761D01*
X148152380Y-78884761D01*
X147914285Y-78408571D02*
X147247619Y-78408571D01*
X147819047Y-78408571D02*
X147866666Y-78360952D01*
X147914285Y-78265714D01*
X147914285Y-78122857D01*
X147866666Y-78027619D01*
X147771428Y-77980000D01*
X147247619Y-77980000D01*
X147914285Y-77075238D02*
X147104761Y-77075238D01*
X147009523Y-77122857D01*
X146961904Y-77170476D01*
X146914285Y-77265714D01*
X146914285Y-77408571D01*
X146961904Y-77503809D01*
X147295238Y-77075238D02*
X147247619Y-77170476D01*
X147247619Y-77360952D01*
X147295238Y-77456190D01*
X147342857Y-77503809D01*
X147438095Y-77551428D01*
X147723809Y-77551428D01*
X147819047Y-77503809D01*
X147866666Y-77456190D01*
X147914285Y-77360952D01*
X147914285Y-77170476D01*
X147866666Y-77075238D01*
X145597619Y-105099047D02*
X145645238Y-105194285D01*
X145692857Y-105241904D01*
X145788095Y-105289523D01*
X146073809Y-105289523D01*
X146169047Y-105241904D01*
X146216666Y-105194285D01*
X146264285Y-105099047D01*
X146264285Y-104956190D01*
X146216666Y-104860952D01*
X146169047Y-104813333D01*
X146073809Y-104765714D01*
X145788095Y-104765714D01*
X145692857Y-104813333D01*
X145645238Y-104860952D01*
X145597619Y-104956190D01*
X145597619Y-105099047D01*
X145597619Y-104337142D02*
X146264285Y-104337142D01*
X146073809Y-104337142D02*
X146169047Y-104289523D01*
X146216666Y-104241904D01*
X146264285Y-104146666D01*
X146264285Y-104051428D01*
X145597619Y-103718095D02*
X146264285Y-103718095D01*
X146597619Y-103718095D02*
X146550000Y-103765714D01*
X146502380Y-103718095D01*
X146550000Y-103670476D01*
X146597619Y-103718095D01*
X146502380Y-103718095D01*
X146264285Y-102813333D02*
X145454761Y-102813333D01*
X145359523Y-102860952D01*
X145311904Y-102908571D01*
X145264285Y-103003809D01*
X145264285Y-103146666D01*
X145311904Y-103241904D01*
X145645238Y-102813333D02*
X145597619Y-102908571D01*
X145597619Y-103099047D01*
X145645238Y-103194285D01*
X145692857Y-103241904D01*
X145788095Y-103289523D01*
X146073809Y-103289523D01*
X146169047Y-103241904D01*
X146216666Y-103194285D01*
X146264285Y-103099047D01*
X146264285Y-102908571D01*
X146216666Y-102813333D01*
X145597619Y-102337142D02*
X146264285Y-102337142D01*
X146597619Y-102337142D02*
X146550000Y-102384761D01*
X146502380Y-102337142D01*
X146550000Y-102289523D01*
X146597619Y-102337142D01*
X146502380Y-102337142D01*
X146264285Y-101860952D02*
X145597619Y-101860952D01*
X146169047Y-101860952D02*
X146216666Y-101813333D01*
X146264285Y-101718095D01*
X146264285Y-101575238D01*
X146216666Y-101480000D01*
X146121428Y-101432380D01*
X145597619Y-101432380D01*
X145597619Y-100527619D02*
X146121428Y-100527619D01*
X146216666Y-100575238D01*
X146264285Y-100670476D01*
X146264285Y-100860952D01*
X146216666Y-100956190D01*
X145645238Y-100527619D02*
X145597619Y-100622857D01*
X145597619Y-100860952D01*
X145645238Y-100956190D01*
X145740476Y-101003809D01*
X145835714Y-101003809D01*
X145930952Y-100956190D01*
X145978571Y-100860952D01*
X145978571Y-100622857D01*
X146026190Y-100527619D01*
X145597619Y-99908571D02*
X145645238Y-100003809D01*
X145740476Y-100051428D01*
X146597619Y-100051428D01*
X145597619Y-98765714D02*
X146597619Y-98765714D01*
X146216666Y-98765714D02*
X146264285Y-98670476D01*
X146264285Y-98480000D01*
X146216666Y-98384761D01*
X146169047Y-98337142D01*
X146073809Y-98289523D01*
X145788095Y-98289523D01*
X145692857Y-98337142D01*
X145645238Y-98384761D01*
X145597619Y-98480000D01*
X145597619Y-98670476D01*
X145645238Y-98765714D01*
X145597619Y-97718095D02*
X145645238Y-97813333D01*
X145692857Y-97860952D01*
X145788095Y-97908571D01*
X146073809Y-97908571D01*
X146169047Y-97860952D01*
X146216666Y-97813333D01*
X146264285Y-97718095D01*
X146264285Y-97575238D01*
X146216666Y-97480000D01*
X146169047Y-97432380D01*
X146073809Y-97384761D01*
X145788095Y-97384761D01*
X145692857Y-97432380D01*
X145645238Y-97480000D01*
X145597619Y-97575238D01*
X145597619Y-97718095D01*
X145597619Y-96527619D02*
X146121428Y-96527619D01*
X146216666Y-96575238D01*
X146264285Y-96670476D01*
X146264285Y-96860952D01*
X146216666Y-96956190D01*
X145645238Y-96527619D02*
X145597619Y-96622857D01*
X145597619Y-96860952D01*
X145645238Y-96956190D01*
X145740476Y-97003809D01*
X145835714Y-97003809D01*
X145930952Y-96956190D01*
X145978571Y-96860952D01*
X145978571Y-96622857D01*
X146026190Y-96527619D01*
X145597619Y-96051428D02*
X146264285Y-96051428D01*
X146073809Y-96051428D02*
X146169047Y-96003809D01*
X146216666Y-95956190D01*
X146264285Y-95860952D01*
X146264285Y-95765714D01*
X145597619Y-95003809D02*
X146597619Y-95003809D01*
X145645238Y-95003809D02*
X145597619Y-95099047D01*
X145597619Y-95289523D01*
X145645238Y-95384761D01*
X145692857Y-95432380D01*
X145788095Y-95480000D01*
X146073809Y-95480000D01*
X146169047Y-95432380D01*
X146216666Y-95384761D01*
X146264285Y-95289523D01*
X146264285Y-95099047D01*
X146216666Y-95003809D01*
X146264285Y-93908571D02*
X146264285Y-93527619D01*
X145597619Y-93765714D02*
X146454761Y-93765714D01*
X146550000Y-93718095D01*
X146597619Y-93622857D01*
X146597619Y-93527619D01*
X145597619Y-93194285D02*
X146264285Y-93194285D01*
X146073809Y-93194285D02*
X146169047Y-93146666D01*
X146216666Y-93099047D01*
X146264285Y-93003809D01*
X146264285Y-92908571D01*
X145597619Y-92432380D02*
X145645238Y-92527619D01*
X145692857Y-92575238D01*
X145788095Y-92622857D01*
X146073809Y-92622857D01*
X146169047Y-92575238D01*
X146216666Y-92527619D01*
X146264285Y-92432380D01*
X146264285Y-92289523D01*
X146216666Y-92194285D01*
X146169047Y-92146666D01*
X146073809Y-92099047D01*
X145788095Y-92099047D01*
X145692857Y-92146666D01*
X145645238Y-92194285D01*
X145597619Y-92289523D01*
X145597619Y-92432380D01*
X145597619Y-91670476D02*
X146264285Y-91670476D01*
X146169047Y-91670476D02*
X146216666Y-91622857D01*
X146264285Y-91527619D01*
X146264285Y-91384761D01*
X146216666Y-91289523D01*
X146121428Y-91241904D01*
X145597619Y-91241904D01*
X146121428Y-91241904D02*
X146216666Y-91194285D01*
X146264285Y-91099047D01*
X146264285Y-90956190D01*
X146216666Y-90860952D01*
X146121428Y-90813333D01*
X145597619Y-90813333D01*
X145645238Y-89622857D02*
X145597619Y-89480000D01*
X145597619Y-89241904D01*
X145645238Y-89146666D01*
X145692857Y-89099047D01*
X145788095Y-89051428D01*
X145883333Y-89051428D01*
X145978571Y-89099047D01*
X146026190Y-89146666D01*
X146073809Y-89241904D01*
X146121428Y-89432380D01*
X146169047Y-89527619D01*
X146216666Y-89575238D01*
X146311904Y-89622857D01*
X146407142Y-89622857D01*
X146502380Y-89575238D01*
X146550000Y-89527619D01*
X146597619Y-89432380D01*
X146597619Y-89194285D01*
X146550000Y-89051428D01*
X146264285Y-88622857D02*
X145264285Y-88622857D01*
X146216666Y-88622857D02*
X146264285Y-88527619D01*
X146264285Y-88337142D01*
X146216666Y-88241904D01*
X146169047Y-88194285D01*
X146073809Y-88146666D01*
X145788095Y-88146666D01*
X145692857Y-88194285D01*
X145645238Y-88241904D01*
X145597619Y-88337142D01*
X145597619Y-88527619D01*
X145645238Y-88622857D01*
X145597619Y-87289523D02*
X146121428Y-87289523D01*
X146216666Y-87337142D01*
X146264285Y-87432380D01*
X146264285Y-87622857D01*
X146216666Y-87718095D01*
X145645238Y-87289523D02*
X145597619Y-87384761D01*
X145597619Y-87622857D01*
X145645238Y-87718095D01*
X145740476Y-87765714D01*
X145835714Y-87765714D01*
X145930952Y-87718095D01*
X145978571Y-87622857D01*
X145978571Y-87384761D01*
X146026190Y-87289523D01*
X145597619Y-86813333D02*
X146264285Y-86813333D01*
X146073809Y-86813333D02*
X146169047Y-86765714D01*
X146216666Y-86718095D01*
X146264285Y-86622857D01*
X146264285Y-86527619D01*
X145597619Y-86194285D02*
X146597619Y-86194285D01*
X145978571Y-86099047D02*
X145597619Y-85813333D01*
X146264285Y-85813333D02*
X145883333Y-86194285D01*
X146121428Y-85051428D02*
X146121428Y-85384761D01*
X145597619Y-85384761D02*
X146597619Y-85384761D01*
X146597619Y-84908571D01*
X146264285Y-84099047D02*
X145597619Y-84099047D01*
X146264285Y-84527619D02*
X145740476Y-84527619D01*
X145645238Y-84480000D01*
X145597619Y-84384761D01*
X145597619Y-84241904D01*
X145645238Y-84146666D01*
X145692857Y-84099047D01*
X146264285Y-83622857D02*
X145597619Y-83622857D01*
X146169047Y-83622857D02*
X146216666Y-83575238D01*
X146264285Y-83480000D01*
X146264285Y-83337142D01*
X146216666Y-83241904D01*
X146121428Y-83194285D01*
X145597619Y-83194285D01*
X145692857Y-82718095D02*
X145645238Y-82670476D01*
X145597619Y-82718095D01*
X145645238Y-82765714D01*
X145692857Y-82718095D01*
X145597619Y-82718095D01*
X146216666Y-82718095D02*
X146169047Y-82670476D01*
X146121428Y-82718095D01*
X146169047Y-82765714D01*
X146216666Y-82718095D01*
X146121428Y-82718095D01*
X143947619Y-110384761D02*
X144947619Y-110384761D01*
X143947619Y-109956190D02*
X144471428Y-109956190D01*
X144566666Y-110003809D01*
X144614285Y-110099047D01*
X144614285Y-110241904D01*
X144566666Y-110337142D01*
X144519047Y-110384761D01*
X144614285Y-109622857D02*
X144614285Y-109241904D01*
X144947619Y-109480000D02*
X144090476Y-109480000D01*
X143995238Y-109432380D01*
X143947619Y-109337142D01*
X143947619Y-109241904D01*
X144614285Y-109051428D02*
X144614285Y-108670476D01*
X144947619Y-108908571D02*
X144090476Y-108908571D01*
X143995238Y-108860952D01*
X143947619Y-108765714D01*
X143947619Y-108670476D01*
X144614285Y-108337142D02*
X143614285Y-108337142D01*
X144566666Y-108337142D02*
X144614285Y-108241904D01*
X144614285Y-108051428D01*
X144566666Y-107956190D01*
X144519047Y-107908571D01*
X144423809Y-107860952D01*
X144138095Y-107860952D01*
X144042857Y-107908571D01*
X143995238Y-107956190D01*
X143947619Y-108051428D01*
X143947619Y-108241904D01*
X143995238Y-108337142D01*
X143995238Y-107480000D02*
X143947619Y-107384761D01*
X143947619Y-107194285D01*
X143995238Y-107099047D01*
X144090476Y-107051428D01*
X144138095Y-107051428D01*
X144233333Y-107099047D01*
X144280952Y-107194285D01*
X144280952Y-107337142D01*
X144328571Y-107432380D01*
X144423809Y-107480000D01*
X144471428Y-107480000D01*
X144566666Y-107432380D01*
X144614285Y-107337142D01*
X144614285Y-107194285D01*
X144566666Y-107099047D01*
X144042857Y-106622857D02*
X143995238Y-106575238D01*
X143947619Y-106622857D01*
X143995238Y-106670476D01*
X144042857Y-106622857D01*
X143947619Y-106622857D01*
X144566666Y-106622857D02*
X144519047Y-106575238D01*
X144471428Y-106622857D01*
X144519047Y-106670476D01*
X144566666Y-106622857D01*
X144471428Y-106622857D01*
X144995238Y-105432380D02*
X143709523Y-106289523D01*
X144995238Y-104384761D02*
X143709523Y-105241904D01*
X144614285Y-104146666D02*
X143947619Y-103956190D01*
X144423809Y-103765714D01*
X143947619Y-103575238D01*
X144614285Y-103384761D01*
X144614285Y-103099047D02*
X143947619Y-102908571D01*
X144423809Y-102718095D01*
X143947619Y-102527619D01*
X144614285Y-102337142D01*
X144614285Y-102051428D02*
X143947619Y-101860952D01*
X144423809Y-101670476D01*
X143947619Y-101480000D01*
X144614285Y-101289523D01*
X144042857Y-100908571D02*
X143995238Y-100860952D01*
X143947619Y-100908571D01*
X143995238Y-100956190D01*
X144042857Y-100908571D01*
X143947619Y-100908571D01*
X143995238Y-100480000D02*
X143947619Y-100384761D01*
X143947619Y-100194285D01*
X143995238Y-100099047D01*
X144090476Y-100051428D01*
X144138095Y-100051428D01*
X144233333Y-100099047D01*
X144280952Y-100194285D01*
X144280952Y-100337142D01*
X144328571Y-100432380D01*
X144423809Y-100480000D01*
X144471428Y-100480000D01*
X144566666Y-100432380D01*
X144614285Y-100337142D01*
X144614285Y-100194285D01*
X144566666Y-100099047D01*
X144614285Y-99622857D02*
X143614285Y-99622857D01*
X144566666Y-99622857D02*
X144614285Y-99527619D01*
X144614285Y-99337142D01*
X144566666Y-99241904D01*
X144519047Y-99194285D01*
X144423809Y-99146666D01*
X144138095Y-99146666D01*
X144042857Y-99194285D01*
X143995238Y-99241904D01*
X143947619Y-99337142D01*
X143947619Y-99527619D01*
X143995238Y-99622857D01*
X143947619Y-98289523D02*
X144471428Y-98289523D01*
X144566666Y-98337142D01*
X144614285Y-98432380D01*
X144614285Y-98622857D01*
X144566666Y-98718095D01*
X143995238Y-98289523D02*
X143947619Y-98384761D01*
X143947619Y-98622857D01*
X143995238Y-98718095D01*
X144090476Y-98765714D01*
X144185714Y-98765714D01*
X144280952Y-98718095D01*
X144328571Y-98622857D01*
X144328571Y-98384761D01*
X144376190Y-98289523D01*
X143947619Y-97813333D02*
X144614285Y-97813333D01*
X144423809Y-97813333D02*
X144519047Y-97765714D01*
X144566666Y-97718095D01*
X144614285Y-97622857D01*
X144614285Y-97527619D01*
X143947619Y-97194285D02*
X144947619Y-97194285D01*
X144328571Y-97099047D02*
X143947619Y-96813333D01*
X144614285Y-96813333D02*
X144233333Y-97194285D01*
X144614285Y-96527619D02*
X144614285Y-96146666D01*
X143947619Y-96384761D02*
X144804761Y-96384761D01*
X144900000Y-96337142D01*
X144947619Y-96241904D01*
X144947619Y-96146666D01*
X144614285Y-95384761D02*
X143947619Y-95384761D01*
X144614285Y-95813333D02*
X144090476Y-95813333D01*
X143995238Y-95765714D01*
X143947619Y-95670476D01*
X143947619Y-95527619D01*
X143995238Y-95432380D01*
X144042857Y-95384761D01*
X144614285Y-94908571D02*
X143947619Y-94908571D01*
X144519047Y-94908571D02*
X144566666Y-94860952D01*
X144614285Y-94765714D01*
X144614285Y-94622857D01*
X144566666Y-94527619D01*
X144471428Y-94480000D01*
X143947619Y-94480000D01*
X144042857Y-94003809D02*
X143995238Y-93956190D01*
X143947619Y-94003809D01*
X143995238Y-94051428D01*
X144042857Y-94003809D01*
X143947619Y-94003809D01*
X143995238Y-93099047D02*
X143947619Y-93194285D01*
X143947619Y-93384761D01*
X143995238Y-93480000D01*
X144042857Y-93527619D01*
X144138095Y-93575238D01*
X144423809Y-93575238D01*
X144519047Y-93527619D01*
X144566666Y-93480000D01*
X144614285Y-93384761D01*
X144614285Y-93194285D01*
X144566666Y-93099047D01*
X143947619Y-92527619D02*
X143995238Y-92622857D01*
X144042857Y-92670476D01*
X144138095Y-92718095D01*
X144423809Y-92718095D01*
X144519047Y-92670476D01*
X144566666Y-92622857D01*
X144614285Y-92527619D01*
X144614285Y-92384761D01*
X144566666Y-92289523D01*
X144519047Y-92241904D01*
X144423809Y-92194285D01*
X144138095Y-92194285D01*
X144042857Y-92241904D01*
X143995238Y-92289523D01*
X143947619Y-92384761D01*
X143947619Y-92527619D01*
X143947619Y-91765714D02*
X144614285Y-91765714D01*
X144519047Y-91765714D02*
X144566666Y-91718095D01*
X144614285Y-91622857D01*
X144614285Y-91480000D01*
X144566666Y-91384761D01*
X144471428Y-91337142D01*
X143947619Y-91337142D01*
X144471428Y-91337142D02*
X144566666Y-91289523D01*
X144614285Y-91194285D01*
X144614285Y-91051428D01*
X144566666Y-90956190D01*
X144471428Y-90908571D01*
X143947619Y-90908571D01*
X144995238Y-89718095D02*
X143709523Y-90575238D01*
X144614285Y-89384761D02*
X143614285Y-89384761D01*
X144566666Y-89384761D02*
X144614285Y-89289523D01*
X144614285Y-89099047D01*
X144566666Y-89003809D01*
X144519047Y-88956190D01*
X144423809Y-88908571D01*
X144138095Y-88908571D01*
X144042857Y-88956190D01*
X143995238Y-89003809D01*
X143947619Y-89099047D01*
X143947619Y-89289523D01*
X143995238Y-89384761D01*
X143947619Y-88480000D02*
X144614285Y-88480000D01*
X144423809Y-88480000D02*
X144519047Y-88432380D01*
X144566666Y-88384761D01*
X144614285Y-88289523D01*
X144614285Y-88194285D01*
X143947619Y-87718095D02*
X143995238Y-87813333D01*
X144042857Y-87860952D01*
X144138095Y-87908571D01*
X144423809Y-87908571D01*
X144519047Y-87860952D01*
X144566666Y-87813333D01*
X144614285Y-87718095D01*
X144614285Y-87575238D01*
X144566666Y-87480000D01*
X144519047Y-87432380D01*
X144423809Y-87384761D01*
X144138095Y-87384761D01*
X144042857Y-87432380D01*
X143995238Y-87480000D01*
X143947619Y-87575238D01*
X143947619Y-87718095D01*
X143947619Y-86527619D02*
X144947619Y-86527619D01*
X143995238Y-86527619D02*
X143947619Y-86622857D01*
X143947619Y-86813333D01*
X143995238Y-86908571D01*
X144042857Y-86956190D01*
X144138095Y-87003809D01*
X144423809Y-87003809D01*
X144519047Y-86956190D01*
X144566666Y-86908571D01*
X144614285Y-86813333D01*
X144614285Y-86622857D01*
X144566666Y-86527619D01*
X144614285Y-85622857D02*
X143947619Y-85622857D01*
X144614285Y-86051428D02*
X144090476Y-86051428D01*
X143995238Y-86003809D01*
X143947619Y-85908571D01*
X143947619Y-85765714D01*
X143995238Y-85670476D01*
X144042857Y-85622857D01*
X143995238Y-84718095D02*
X143947619Y-84813333D01*
X143947619Y-85003809D01*
X143995238Y-85099047D01*
X144042857Y-85146666D01*
X144138095Y-85194285D01*
X144423809Y-85194285D01*
X144519047Y-85146666D01*
X144566666Y-85099047D01*
X144614285Y-85003809D01*
X144614285Y-84813333D01*
X144566666Y-84718095D01*
X144614285Y-84432380D02*
X144614285Y-84051428D01*
X144947619Y-84289523D02*
X144090476Y-84289523D01*
X143995238Y-84241904D01*
X143947619Y-84146666D01*
X143947619Y-84051428D01*
X143995238Y-83765714D02*
X143947619Y-83670476D01*
X143947619Y-83480000D01*
X143995238Y-83384761D01*
X144090476Y-83337142D01*
X144138095Y-83337142D01*
X144233333Y-83384761D01*
X144280952Y-83480000D01*
X144280952Y-83622857D01*
X144328571Y-83718095D01*
X144423809Y-83765714D01*
X144471428Y-83765714D01*
X144566666Y-83718095D01*
X144614285Y-83622857D01*
X144614285Y-83480000D01*
X144566666Y-83384761D01*
X144995238Y-82194285D02*
X143709523Y-83051428D01*
X143947619Y-81337142D02*
X143947619Y-81908571D01*
X143947619Y-81622857D02*
X144947619Y-81622857D01*
X144804761Y-81718095D01*
X144709523Y-81813333D01*
X144661904Y-81908571D01*
X144852380Y-80956190D02*
X144900000Y-80908571D01*
X144947619Y-80813333D01*
X144947619Y-80575238D01*
X144900000Y-80480000D01*
X144852380Y-80432380D01*
X144757142Y-80384761D01*
X144661904Y-80384761D01*
X144519047Y-80432380D01*
X143947619Y-81003809D01*
X143947619Y-80384761D01*
X144947619Y-79527619D02*
X144947619Y-79718095D01*
X144900000Y-79813333D01*
X144852380Y-79860952D01*
X144709523Y-79956190D01*
X144519047Y-80003809D01*
X144138095Y-80003809D01*
X144042857Y-79956190D01*
X143995238Y-79908571D01*
X143947619Y-79813333D01*
X143947619Y-79622857D01*
X143995238Y-79527619D01*
X144042857Y-79480000D01*
X144138095Y-79432380D01*
X144376190Y-79432380D01*
X144471428Y-79480000D01*
X144519047Y-79527619D01*
X144566666Y-79622857D01*
X144566666Y-79813333D01*
X144519047Y-79908571D01*
X144471428Y-79956190D01*
X144376190Y-80003809D01*
X144947619Y-78527619D02*
X144947619Y-79003809D01*
X144471428Y-79051428D01*
X144519047Y-79003809D01*
X144566666Y-78908571D01*
X144566666Y-78670476D01*
X144519047Y-78575238D01*
X144471428Y-78527619D01*
X144376190Y-78480000D01*
X144138095Y-78480000D01*
X144042857Y-78527619D01*
X143995238Y-78575238D01*
X143947619Y-78670476D01*
X143947619Y-78908571D01*
X143995238Y-79003809D01*
X144042857Y-79051428D01*
X144947619Y-77860952D02*
X144947619Y-77765714D01*
X144900000Y-77670476D01*
X144852380Y-77622857D01*
X144757142Y-77575238D01*
X144566666Y-77527619D01*
X144328571Y-77527619D01*
X144138095Y-77575238D01*
X144042857Y-77622857D01*
X143995238Y-77670476D01*
X143947619Y-77765714D01*
X143947619Y-77860952D01*
X143995238Y-77956190D01*
X144042857Y-78003809D01*
X144138095Y-78051428D01*
X144328571Y-78099047D01*
X144566666Y-78099047D01*
X144757142Y-78051428D01*
X144852380Y-78003809D01*
X144900000Y-77956190D01*
X144947619Y-77860952D01*
X166006203Y-112260003D02*
X165958584Y-112212384D01*
X165910965Y-112260003D01*
X165958584Y-112307622D01*
X166006203Y-112260003D01*
X165910965Y-112260003D01*
X166291917Y-112260003D02*
X166863346Y-112307622D01*
X166910965Y-112260003D01*
X166863346Y-112212384D01*
X166291917Y-112260003D01*
X166910965Y-112260003D01*
X165958584Y-111831431D02*
X165910965Y-111688574D01*
X165910965Y-111450479D01*
X165958584Y-111355241D01*
X166006203Y-111307622D01*
X166101441Y-111260003D01*
X166196679Y-111260003D01*
X166291917Y-111307622D01*
X166339536Y-111355241D01*
X166387155Y-111450479D01*
X166434774Y-111640955D01*
X166482393Y-111736193D01*
X166530012Y-111783812D01*
X166625250Y-111831431D01*
X166720488Y-111831431D01*
X166815726Y-111783812D01*
X166863346Y-111736193D01*
X166910965Y-111640955D01*
X166910965Y-111402860D01*
X166863346Y-111260003D01*
X165910965Y-110831431D02*
X166910965Y-110831431D01*
X166910965Y-110593336D01*
X166863346Y-110450479D01*
X166768107Y-110355241D01*
X166672869Y-110307622D01*
X166482393Y-110260003D01*
X166339536Y-110260003D01*
X166149060Y-110307622D01*
X166053822Y-110355241D01*
X165958584Y-110450479D01*
X165910965Y-110593336D01*
X165910965Y-110831431D01*
X165910965Y-109831431D02*
X166910965Y-109831431D01*
X165910965Y-109260003D01*
X166910965Y-109260003D01*
X163377619Y-111698452D02*
X163377619Y-112174642D01*
X164377619Y-112174642D01*
X164377619Y-111174642D02*
X164377619Y-110984166D01*
X164330000Y-110888928D01*
X164234761Y-110793690D01*
X164044285Y-110746071D01*
X163710952Y-110746071D01*
X163520476Y-110793690D01*
X163425238Y-110888928D01*
X163377619Y-110984166D01*
X163377619Y-111174642D01*
X163425238Y-111269880D01*
X163520476Y-111365119D01*
X163710952Y-111412738D01*
X164044285Y-111412738D01*
X164234761Y-111365119D01*
X164330000Y-111269880D01*
X164377619Y-111174642D01*
X163758571Y-110317500D02*
X163758571Y-109555595D01*
X163377619Y-109936547D02*
X164139523Y-109936547D01*
X160837619Y-111698452D02*
X160837619Y-112174642D01*
X161837619Y-112174642D01*
X161837619Y-111174642D02*
X161837619Y-110984166D01*
X161790000Y-110888928D01*
X161694761Y-110793690D01*
X161504285Y-110746071D01*
X161170952Y-110746071D01*
X160980476Y-110793690D01*
X160885238Y-110888928D01*
X160837619Y-110984166D01*
X160837619Y-111174642D01*
X160885238Y-111269880D01*
X160980476Y-111365119D01*
X161170952Y-111412738D01*
X161504285Y-111412738D01*
X161694761Y-111365119D01*
X161790000Y-111269880D01*
X161837619Y-111174642D01*
X161218571Y-110317500D02*
X161218571Y-109555595D01*
X159297619Y-112015595D02*
X159297619Y-111825119D01*
X159250000Y-111729880D01*
X159154761Y-111634642D01*
X158964285Y-111587023D01*
X158630952Y-111587023D01*
X158440476Y-111634642D01*
X158345238Y-111729880D01*
X158297619Y-111825119D01*
X158297619Y-112015595D01*
X158345238Y-112110833D01*
X158440476Y-112206071D01*
X158630952Y-112253690D01*
X158964285Y-112253690D01*
X159154761Y-112206071D01*
X159250000Y-112110833D01*
X159297619Y-112015595D01*
X159297619Y-111158452D02*
X158488095Y-111158452D01*
X158392857Y-111110833D01*
X158345238Y-111063214D01*
X158297619Y-110967976D01*
X158297619Y-110777500D01*
X158345238Y-110682261D01*
X158392857Y-110634642D01*
X158488095Y-110587023D01*
X159297619Y-110587023D01*
X159297619Y-110253690D02*
X159297619Y-109682261D01*
X158297619Y-109967976D02*
X159297619Y-109967976D01*
X158297619Y-109348928D02*
X159297619Y-109348928D01*
X159297619Y-108967976D01*
X159250000Y-108872738D01*
X159202380Y-108825119D01*
X159107142Y-108777500D01*
X158964285Y-108777500D01*
X158869047Y-108825119D01*
X158821428Y-108872738D01*
X158773809Y-108967976D01*
X158773809Y-109348928D01*
X159297619Y-108348928D02*
X158488095Y-108348928D01*
X158392857Y-108301309D01*
X158345238Y-108253690D01*
X158297619Y-108158452D01*
X158297619Y-107967976D01*
X158345238Y-107872738D01*
X158392857Y-107825119D01*
X158488095Y-107777500D01*
X159297619Y-107777500D01*
X159297619Y-107444166D02*
X159297619Y-106872738D01*
X158297619Y-107158452D02*
X159297619Y-107158452D01*
X156757619Y-112317500D02*
X156757619Y-111698452D01*
X156376666Y-112031785D01*
X156376666Y-111888928D01*
X156329047Y-111793690D01*
X156281428Y-111746071D01*
X156186190Y-111698452D01*
X155948095Y-111698452D01*
X155852857Y-111746071D01*
X155805238Y-111793690D01*
X155757619Y-111888928D01*
X155757619Y-112174642D01*
X155805238Y-112269880D01*
X155852857Y-112317500D01*
X155852857Y-111269880D02*
X155805238Y-111222261D01*
X155757619Y-111269880D01*
X155805238Y-111317500D01*
X155852857Y-111269880D01*
X155757619Y-111269880D01*
X156757619Y-110888928D02*
X156757619Y-110269880D01*
X156376666Y-110603214D01*
X156376666Y-110460357D01*
X156329047Y-110365119D01*
X156281428Y-110317500D01*
X156186190Y-110269880D01*
X155948095Y-110269880D01*
X155852857Y-110317500D01*
X155805238Y-110365119D01*
X155757619Y-110460357D01*
X155757619Y-110746071D01*
X155805238Y-110841309D01*
X155852857Y-110888928D01*
X156424285Y-109936547D02*
X155757619Y-109698452D01*
X156424285Y-109460357D01*
X154170000Y-111603214D02*
X154217619Y-111698452D01*
X154217619Y-111841309D01*
X154170000Y-111984166D01*
X154074761Y-112079404D01*
X153979523Y-112127023D01*
X153789047Y-112174642D01*
X153646190Y-112174642D01*
X153455714Y-112127023D01*
X153360476Y-112079404D01*
X153265238Y-111984166D01*
X153217619Y-111841309D01*
X153217619Y-111746071D01*
X153265238Y-111603214D01*
X153312857Y-111555595D01*
X153646190Y-111555595D01*
X153646190Y-111746071D01*
X153217619Y-111127023D02*
X154217619Y-111127023D01*
X153217619Y-110555595D01*
X154217619Y-110555595D01*
X153217619Y-110079404D02*
X154217619Y-110079404D01*
X154217619Y-109841309D01*
X154170000Y-109698452D01*
X154074761Y-109603214D01*
X153979523Y-109555595D01*
X153789047Y-109507976D01*
X153646190Y-109507976D01*
X153455714Y-109555595D01*
X153360476Y-109603214D01*
X153265238Y-109698452D01*
X153217619Y-109841309D01*
X153217619Y-110079404D01*
X130905238Y-86812380D02*
X131238571Y-86336190D01*
X131476666Y-86812380D02*
X131476666Y-85812380D01*
X131095714Y-85812380D01*
X131000476Y-85860000D01*
X130952857Y-85907619D01*
X130905238Y-86002857D01*
X130905238Y-86145714D01*
X130952857Y-86240952D01*
X131000476Y-86288571D01*
X131095714Y-86336190D01*
X131476666Y-86336190D01*
X130000476Y-86812380D02*
X130476666Y-86812380D01*
X130476666Y-85812380D01*
X130929047Y-84272380D02*
X131405238Y-84272380D01*
X131405238Y-83272380D01*
X130643333Y-83986666D02*
X130167142Y-83986666D01*
X130738571Y-84272380D02*
X130405238Y-83272380D01*
X130071904Y-84272380D01*
X130929047Y-81732380D02*
X131262380Y-81256190D01*
X131500476Y-81732380D02*
X131500476Y-80732380D01*
X131119523Y-80732380D01*
X131024285Y-80780000D01*
X130976666Y-80827619D01*
X130929047Y-80922857D01*
X130929047Y-81065714D01*
X130976666Y-81160952D01*
X131024285Y-81208571D01*
X131119523Y-81256190D01*
X131500476Y-81256190D01*
X130548095Y-81446666D02*
X130071904Y-81446666D01*
X130643333Y-81732380D02*
X130310000Y-80732380D01*
X129976666Y-81732380D01*
M02*
