G04 #@! TF.GenerationSoftware,KiCad,Pcbnew,5.1.5*
G04 #@! TF.CreationDate,2020-04-03T22:22:15-06:00*
G04 #@! TF.ProjectId,AD8232,41443832-3332-42e6-9b69-6361645f7063,rev?*
G04 #@! TF.SameCoordinates,Original*
G04 #@! TF.FileFunction,Legend,Top*
G04 #@! TF.FilePolarity,Positive*
%FSLAX46Y46*%
G04 Gerber Fmt 4.6, Leading zero omitted, Abs format (unit mm)*
G04 Created by KiCad (PCBNEW 5.1.5) date 2020-04-03 22:22:15*
%MOMM*%
%LPD*%
G04 APERTURE LIST*
%ADD10C,0.150000*%
%ADD11C,0.406400*%
%ADD12C,0.203200*%
%ADD13C,0.120000*%
%ADD14C,0.254000*%
%ADD15C,0.127000*%
%ADD16C,0.152400*%
G04 APERTURE END LIST*
D10*
X144121666Y-109322857D02*
X144121666Y-108846666D01*
X144407380Y-109418095D02*
X143407380Y-109084761D01*
X144407380Y-108751428D01*
X144407380Y-108418095D02*
X143407380Y-108418095D01*
X143407380Y-108180000D01*
X143455000Y-108037142D01*
X143550238Y-107941904D01*
X143645476Y-107894285D01*
X143835952Y-107846666D01*
X143978809Y-107846666D01*
X144169285Y-107894285D01*
X144264523Y-107941904D01*
X144359761Y-108037142D01*
X144407380Y-108180000D01*
X144407380Y-108418095D01*
X143835952Y-107275238D02*
X143788333Y-107370476D01*
X143740714Y-107418095D01*
X143645476Y-107465714D01*
X143597857Y-107465714D01*
X143502619Y-107418095D01*
X143455000Y-107370476D01*
X143407380Y-107275238D01*
X143407380Y-107084761D01*
X143455000Y-106989523D01*
X143502619Y-106941904D01*
X143597857Y-106894285D01*
X143645476Y-106894285D01*
X143740714Y-106941904D01*
X143788333Y-106989523D01*
X143835952Y-107084761D01*
X143835952Y-107275238D01*
X143883571Y-107370476D01*
X143931190Y-107418095D01*
X144026428Y-107465714D01*
X144216904Y-107465714D01*
X144312142Y-107418095D01*
X144359761Y-107370476D01*
X144407380Y-107275238D01*
X144407380Y-107084761D01*
X144359761Y-106989523D01*
X144312142Y-106941904D01*
X144216904Y-106894285D01*
X144026428Y-106894285D01*
X143931190Y-106941904D01*
X143883571Y-106989523D01*
X143835952Y-107084761D01*
X143502619Y-106513333D02*
X143455000Y-106465714D01*
X143407380Y-106370476D01*
X143407380Y-106132380D01*
X143455000Y-106037142D01*
X143502619Y-105989523D01*
X143597857Y-105941904D01*
X143693095Y-105941904D01*
X143835952Y-105989523D01*
X144407380Y-106560952D01*
X144407380Y-105941904D01*
X143407380Y-105608571D02*
X143407380Y-104989523D01*
X143788333Y-105322857D01*
X143788333Y-105180000D01*
X143835952Y-105084761D01*
X143883571Y-105037142D01*
X143978809Y-104989523D01*
X144216904Y-104989523D01*
X144312142Y-105037142D01*
X144359761Y-105084761D01*
X144407380Y-105180000D01*
X144407380Y-105465714D01*
X144359761Y-105560952D01*
X144312142Y-105608571D01*
X143502619Y-104608571D02*
X143455000Y-104560952D01*
X143407380Y-104465714D01*
X143407380Y-104227619D01*
X143455000Y-104132380D01*
X143502619Y-104084761D01*
X143597857Y-104037142D01*
X143693095Y-104037142D01*
X143835952Y-104084761D01*
X144407380Y-104656190D01*
X144407380Y-104037142D01*
X146057380Y-111584761D02*
X145057380Y-111584761D01*
X145533571Y-111584761D02*
X145533571Y-111013333D01*
X146057380Y-111013333D02*
X145057380Y-111013333D01*
X146009761Y-110156190D02*
X146057380Y-110251428D01*
X146057380Y-110441904D01*
X146009761Y-110537142D01*
X145914523Y-110584761D01*
X145533571Y-110584761D01*
X145438333Y-110537142D01*
X145390714Y-110441904D01*
X145390714Y-110251428D01*
X145438333Y-110156190D01*
X145533571Y-110108571D01*
X145628809Y-110108571D01*
X145724047Y-110584761D01*
X146057380Y-109251428D02*
X145533571Y-109251428D01*
X145438333Y-109299047D01*
X145390714Y-109394285D01*
X145390714Y-109584761D01*
X145438333Y-109680000D01*
X146009761Y-109251428D02*
X146057380Y-109346666D01*
X146057380Y-109584761D01*
X146009761Y-109680000D01*
X145914523Y-109727619D01*
X145819285Y-109727619D01*
X145724047Y-109680000D01*
X145676428Y-109584761D01*
X145676428Y-109346666D01*
X145628809Y-109251428D01*
X146057380Y-108775238D02*
X145390714Y-108775238D01*
X145581190Y-108775238D02*
X145485952Y-108727619D01*
X145438333Y-108680000D01*
X145390714Y-108584761D01*
X145390714Y-108489523D01*
X145390714Y-108299047D02*
X145390714Y-107918095D01*
X145057380Y-108156190D02*
X145914523Y-108156190D01*
X146009761Y-108108571D01*
X146057380Y-108013333D01*
X146057380Y-107918095D01*
X146057380Y-106822857D02*
X145057380Y-106822857D01*
X145771666Y-106489523D01*
X145057380Y-106156190D01*
X146057380Y-106156190D01*
X146057380Y-105537142D02*
X146009761Y-105632380D01*
X145962142Y-105680000D01*
X145866904Y-105727619D01*
X145581190Y-105727619D01*
X145485952Y-105680000D01*
X145438333Y-105632380D01*
X145390714Y-105537142D01*
X145390714Y-105394285D01*
X145438333Y-105299047D01*
X145485952Y-105251428D01*
X145581190Y-105203809D01*
X145866904Y-105203809D01*
X145962142Y-105251428D01*
X146009761Y-105299047D01*
X146057380Y-105394285D01*
X146057380Y-105537142D01*
X145390714Y-104775238D02*
X146057380Y-104775238D01*
X145485952Y-104775238D02*
X145438333Y-104727619D01*
X145390714Y-104632380D01*
X145390714Y-104489523D01*
X145438333Y-104394285D01*
X145533571Y-104346666D01*
X146057380Y-104346666D01*
X146057380Y-103870476D02*
X145390714Y-103870476D01*
X145057380Y-103870476D02*
X145105000Y-103918095D01*
X145152619Y-103870476D01*
X145105000Y-103822857D01*
X145057380Y-103870476D01*
X145152619Y-103870476D01*
X145390714Y-103537142D02*
X145390714Y-103156190D01*
X145057380Y-103394285D02*
X145914523Y-103394285D01*
X146009761Y-103346666D01*
X146057380Y-103251428D01*
X146057380Y-103156190D01*
X146057380Y-102680000D02*
X146009761Y-102775238D01*
X145962142Y-102822857D01*
X145866904Y-102870476D01*
X145581190Y-102870476D01*
X145485952Y-102822857D01*
X145438333Y-102775238D01*
X145390714Y-102680000D01*
X145390714Y-102537142D01*
X145438333Y-102441904D01*
X145485952Y-102394285D01*
X145581190Y-102346666D01*
X145866904Y-102346666D01*
X145962142Y-102394285D01*
X146009761Y-102441904D01*
X146057380Y-102537142D01*
X146057380Y-102680000D01*
X146057380Y-101918095D02*
X145390714Y-101918095D01*
X145581190Y-101918095D02*
X145485952Y-101870476D01*
X145438333Y-101822857D01*
X145390714Y-101727619D01*
X145390714Y-101632380D01*
D11*
X149639095Y-109805661D02*
X153703095Y-106757661D01*
X153703095Y-106757661D02*
X149639095Y-103709661D01*
X149639095Y-103709661D02*
G75*
G03X148115095Y-106757661I-762000J-1524000D01*
G01*
X148115095Y-106757661D02*
G75*
G03X149639095Y-109805661I762000J-1524000D01*
G01*
D10*
X128643571Y-113227619D02*
X128643571Y-112894285D01*
X129167380Y-112751428D02*
X129167380Y-113227619D01*
X128167380Y-113227619D01*
X128167380Y-112751428D01*
X129167380Y-112322857D02*
X128500714Y-112322857D01*
X128691190Y-112322857D02*
X128595952Y-112275238D01*
X128548333Y-112227619D01*
X128500714Y-112132380D01*
X128500714Y-112037142D01*
X128500714Y-111703809D02*
X129167380Y-111703809D01*
X128595952Y-111703809D02*
X128548333Y-111656190D01*
X128500714Y-111560952D01*
X128500714Y-111418095D01*
X128548333Y-111322857D01*
X128643571Y-111275238D01*
X129167380Y-111275238D01*
X129119761Y-110418095D02*
X129167380Y-110513333D01*
X129167380Y-110703809D01*
X129119761Y-110799047D01*
X129024523Y-110846666D01*
X128643571Y-110846666D01*
X128548333Y-110799047D01*
X128500714Y-110703809D01*
X128500714Y-110513333D01*
X128548333Y-110418095D01*
X128643571Y-110370476D01*
X128738809Y-110370476D01*
X128834047Y-110846666D01*
X129119761Y-109989523D02*
X129167380Y-109894285D01*
X129167380Y-109703809D01*
X129119761Y-109608571D01*
X129024523Y-109560952D01*
X128976904Y-109560952D01*
X128881666Y-109608571D01*
X128834047Y-109703809D01*
X128834047Y-109846666D01*
X128786428Y-109941904D01*
X128691190Y-109989523D01*
X128643571Y-109989523D01*
X128548333Y-109941904D01*
X128500714Y-109846666D01*
X128500714Y-109703809D01*
X128548333Y-109608571D01*
X128500714Y-109275238D02*
X128500714Y-108894285D01*
X128167380Y-109132380D02*
X129024523Y-109132380D01*
X129119761Y-109084761D01*
X129167380Y-108989523D01*
X129167380Y-108894285D01*
X129167380Y-108418095D02*
X129119761Y-108513333D01*
X129072142Y-108560952D01*
X128976904Y-108608571D01*
X128691190Y-108608571D01*
X128595952Y-108560952D01*
X128548333Y-108513333D01*
X128500714Y-108418095D01*
X128500714Y-108275238D01*
X128548333Y-108180000D01*
X128595952Y-108132380D01*
X128691190Y-108084761D01*
X128976904Y-108084761D01*
X129072142Y-108132380D01*
X129119761Y-108180000D01*
X129167380Y-108275238D01*
X129167380Y-108418095D01*
X129167380Y-106894285D02*
X128167380Y-106894285D01*
X128881666Y-106560952D01*
X128167380Y-106227619D01*
X129167380Y-106227619D01*
X129119761Y-105370476D02*
X129167380Y-105465714D01*
X129167380Y-105656190D01*
X129119761Y-105751428D01*
X129024523Y-105799047D01*
X128643571Y-105799047D01*
X128548333Y-105751428D01*
X128500714Y-105656190D01*
X128500714Y-105465714D01*
X128548333Y-105370476D01*
X128643571Y-105322857D01*
X128738809Y-105322857D01*
X128834047Y-105799047D01*
X128500714Y-104894285D02*
X129167380Y-104894285D01*
X128595952Y-104894285D02*
X128548333Y-104846666D01*
X128500714Y-104751428D01*
X128500714Y-104608571D01*
X128548333Y-104513333D01*
X128643571Y-104465714D01*
X129167380Y-104465714D01*
X129119761Y-103608571D02*
X129167380Y-103703809D01*
X129167380Y-103894285D01*
X129119761Y-103989523D01*
X129024523Y-104037142D01*
X128643571Y-104037142D01*
X128548333Y-103989523D01*
X128500714Y-103894285D01*
X128500714Y-103703809D01*
X128548333Y-103608571D01*
X128643571Y-103560952D01*
X128738809Y-103560952D01*
X128834047Y-104037142D01*
X128500714Y-103132380D02*
X129167380Y-103132380D01*
X128595952Y-103132380D02*
X128548333Y-103084761D01*
X128500714Y-102989523D01*
X128500714Y-102846666D01*
X128548333Y-102751428D01*
X128643571Y-102703809D01*
X129167380Y-102703809D01*
X129167380Y-101799047D02*
X128167380Y-101799047D01*
X129119761Y-101799047D02*
X129167380Y-101894285D01*
X129167380Y-102084761D01*
X129119761Y-102180000D01*
X129072142Y-102227619D01*
X128976904Y-102275238D01*
X128691190Y-102275238D01*
X128595952Y-102227619D01*
X128548333Y-102180000D01*
X128500714Y-102084761D01*
X128500714Y-101894285D01*
X128548333Y-101799047D01*
X129119761Y-100941904D02*
X129167380Y-101037142D01*
X129167380Y-101227619D01*
X129119761Y-101322857D01*
X129024523Y-101370476D01*
X128643571Y-101370476D01*
X128548333Y-101322857D01*
X128500714Y-101227619D01*
X128500714Y-101037142D01*
X128548333Y-100941904D01*
X128643571Y-100894285D01*
X128738809Y-100894285D01*
X128834047Y-101370476D01*
X128500714Y-100560952D02*
X128500714Y-100037142D01*
X129167380Y-100560952D01*
X129167380Y-100037142D01*
X129912619Y-110299047D02*
X129865000Y-110251428D01*
X129817380Y-110156190D01*
X129817380Y-109918095D01*
X129865000Y-109822857D01*
X129912619Y-109775238D01*
X130007857Y-109727619D01*
X130103095Y-109727619D01*
X130245952Y-109775238D01*
X130817380Y-110346666D01*
X130817380Y-109727619D01*
X129817380Y-109108571D02*
X129817380Y-109013333D01*
X129865000Y-108918095D01*
X129912619Y-108870476D01*
X130007857Y-108822857D01*
X130198333Y-108775238D01*
X130436428Y-108775238D01*
X130626904Y-108822857D01*
X130722142Y-108870476D01*
X130769761Y-108918095D01*
X130817380Y-109013333D01*
X130817380Y-109108571D01*
X130769761Y-109203809D01*
X130722142Y-109251428D01*
X130626904Y-109299047D01*
X130436428Y-109346666D01*
X130198333Y-109346666D01*
X130007857Y-109299047D01*
X129912619Y-109251428D01*
X129865000Y-109203809D01*
X129817380Y-109108571D01*
X129817380Y-108156190D02*
X129817380Y-108060952D01*
X129865000Y-107965714D01*
X129912619Y-107918095D01*
X130007857Y-107870476D01*
X130198333Y-107822857D01*
X130436428Y-107822857D01*
X130626904Y-107870476D01*
X130722142Y-107918095D01*
X130769761Y-107965714D01*
X130817380Y-108060952D01*
X130817380Y-108156190D01*
X130769761Y-108251428D01*
X130722142Y-108299047D01*
X130626904Y-108346666D01*
X130436428Y-108394285D01*
X130198333Y-108394285D01*
X130007857Y-108346666D01*
X129912619Y-108299047D01*
X129865000Y-108251428D01*
X129817380Y-108156190D01*
X129817380Y-107489523D02*
X129817380Y-106822857D01*
X130817380Y-107251428D01*
X129912619Y-106489523D02*
X129865000Y-106441904D01*
X129817380Y-106346666D01*
X129817380Y-106108571D01*
X129865000Y-106013333D01*
X129912619Y-105965714D01*
X130007857Y-105918095D01*
X130103095Y-105918095D01*
X130245952Y-105965714D01*
X130817380Y-106537142D01*
X130817380Y-105918095D01*
X129817380Y-105584761D02*
X129817380Y-104965714D01*
X130198333Y-105299047D01*
X130198333Y-105156190D01*
X130245952Y-105060952D01*
X130293571Y-105013333D01*
X130388809Y-104965714D01*
X130626904Y-104965714D01*
X130722142Y-105013333D01*
X130769761Y-105060952D01*
X130817380Y-105156190D01*
X130817380Y-105441904D01*
X130769761Y-105537142D01*
X130722142Y-105584761D01*
X130817380Y-104489523D02*
X130817380Y-104299047D01*
X130769761Y-104203809D01*
X130722142Y-104156190D01*
X130579285Y-104060952D01*
X130388809Y-104013333D01*
X130007857Y-104013333D01*
X129912619Y-104060952D01*
X129865000Y-104108571D01*
X129817380Y-104203809D01*
X129817380Y-104394285D01*
X129865000Y-104489523D01*
X129912619Y-104537142D01*
X130007857Y-104584761D01*
X130245952Y-104584761D01*
X130341190Y-104537142D01*
X130388809Y-104489523D01*
X130436428Y-104394285D01*
X130436428Y-104203809D01*
X130388809Y-104108571D01*
X130341190Y-104060952D01*
X130245952Y-104013333D01*
X129912619Y-103632380D02*
X129865000Y-103584761D01*
X129817380Y-103489523D01*
X129817380Y-103251428D01*
X129865000Y-103156190D01*
X129912619Y-103108571D01*
X130007857Y-103060952D01*
X130103095Y-103060952D01*
X130245952Y-103108571D01*
X130817380Y-103680000D01*
X130817380Y-103060952D01*
X166820867Y-112246337D02*
X166868486Y-112198718D01*
X166916105Y-112246337D01*
X166868486Y-112293956D01*
X166820867Y-112246337D01*
X166916105Y-112246337D01*
X166535153Y-112246337D02*
X165963725Y-112293956D01*
X165916105Y-112246337D01*
X165963725Y-112198718D01*
X166535153Y-112246337D01*
X165916105Y-112246337D01*
X166868486Y-111817765D02*
X166916105Y-111674908D01*
X166916105Y-111436813D01*
X166868486Y-111341575D01*
X166820867Y-111293956D01*
X166725629Y-111246337D01*
X166630391Y-111246337D01*
X166535153Y-111293956D01*
X166487534Y-111341575D01*
X166439915Y-111436813D01*
X166392296Y-111627289D01*
X166344677Y-111722527D01*
X166297058Y-111770146D01*
X166201820Y-111817765D01*
X166106582Y-111817765D01*
X166011344Y-111770146D01*
X165963725Y-111722527D01*
X165916105Y-111627289D01*
X165916105Y-111389194D01*
X165963725Y-111246337D01*
X166916105Y-110817765D02*
X165916105Y-110817765D01*
X165916105Y-110579670D01*
X165963725Y-110436813D01*
X166058963Y-110341575D01*
X166154201Y-110293956D01*
X166344677Y-110246337D01*
X166487534Y-110246337D01*
X166678010Y-110293956D01*
X166773248Y-110341575D01*
X166868486Y-110436813D01*
X166916105Y-110579670D01*
X166916105Y-110817765D01*
X166916105Y-109817765D02*
X165916105Y-109817765D01*
X166916105Y-109246337D01*
X165916105Y-109246337D01*
X164282380Y-111698452D02*
X164282380Y-112174642D01*
X163282380Y-112174642D01*
X163282380Y-111174642D02*
X163282380Y-110984166D01*
X163330000Y-110888928D01*
X163425238Y-110793690D01*
X163615714Y-110746071D01*
X163949047Y-110746071D01*
X164139523Y-110793690D01*
X164234761Y-110888928D01*
X164282380Y-110984166D01*
X164282380Y-111174642D01*
X164234761Y-111269880D01*
X164139523Y-111365119D01*
X163949047Y-111412738D01*
X163615714Y-111412738D01*
X163425238Y-111365119D01*
X163330000Y-111269880D01*
X163282380Y-111174642D01*
X163901428Y-110317500D02*
X163901428Y-109555595D01*
X164282380Y-109936547D02*
X163520476Y-109936547D01*
X161742380Y-111698452D02*
X161742380Y-112174642D01*
X160742380Y-112174642D01*
X160742380Y-111174642D02*
X160742380Y-110984166D01*
X160790000Y-110888928D01*
X160885238Y-110793690D01*
X161075714Y-110746071D01*
X161409047Y-110746071D01*
X161599523Y-110793690D01*
X161694761Y-110888928D01*
X161742380Y-110984166D01*
X161742380Y-111174642D01*
X161694761Y-111269880D01*
X161599523Y-111365119D01*
X161409047Y-111412738D01*
X161075714Y-111412738D01*
X160885238Y-111365119D01*
X160790000Y-111269880D01*
X160742380Y-111174642D01*
X161361428Y-110317500D02*
X161361428Y-109555595D01*
X158202380Y-112015595D02*
X158202380Y-111825119D01*
X158250000Y-111729880D01*
X158345238Y-111634642D01*
X158535714Y-111587023D01*
X158869047Y-111587023D01*
X159059523Y-111634642D01*
X159154761Y-111729880D01*
X159202380Y-111825119D01*
X159202380Y-112015595D01*
X159154761Y-112110833D01*
X159059523Y-112206071D01*
X158869047Y-112253690D01*
X158535714Y-112253690D01*
X158345238Y-112206071D01*
X158250000Y-112110833D01*
X158202380Y-112015595D01*
X158202380Y-111158452D02*
X159011904Y-111158452D01*
X159107142Y-111110833D01*
X159154761Y-111063214D01*
X159202380Y-110967976D01*
X159202380Y-110777500D01*
X159154761Y-110682261D01*
X159107142Y-110634642D01*
X159011904Y-110587023D01*
X158202380Y-110587023D01*
X158202380Y-110253690D02*
X158202380Y-109682261D01*
X159202380Y-109967976D02*
X158202380Y-109967976D01*
X159202380Y-109348928D02*
X158202380Y-109348928D01*
X158202380Y-108967976D01*
X158250000Y-108872738D01*
X158297619Y-108825119D01*
X158392857Y-108777500D01*
X158535714Y-108777500D01*
X158630952Y-108825119D01*
X158678571Y-108872738D01*
X158726190Y-108967976D01*
X158726190Y-109348928D01*
X158202380Y-108348928D02*
X159011904Y-108348928D01*
X159107142Y-108301309D01*
X159154761Y-108253690D01*
X159202380Y-108158452D01*
X159202380Y-107967976D01*
X159154761Y-107872738D01*
X159107142Y-107825119D01*
X159011904Y-107777500D01*
X158202380Y-107777500D01*
X158202380Y-107444166D02*
X158202380Y-106872738D01*
X159202380Y-107158452D02*
X158202380Y-107158452D01*
X155662380Y-112317500D02*
X155662380Y-111698452D01*
X156043333Y-112031785D01*
X156043333Y-111888928D01*
X156090952Y-111793690D01*
X156138571Y-111746071D01*
X156233809Y-111698452D01*
X156471904Y-111698452D01*
X156567142Y-111746071D01*
X156614761Y-111793690D01*
X156662380Y-111888928D01*
X156662380Y-112174642D01*
X156614761Y-112269880D01*
X156567142Y-112317500D01*
X156567142Y-111269880D02*
X156614761Y-111222261D01*
X156662380Y-111269880D01*
X156614761Y-111317500D01*
X156567142Y-111269880D01*
X156662380Y-111269880D01*
X155662380Y-110888928D02*
X155662380Y-110269880D01*
X156043333Y-110603214D01*
X156043333Y-110460357D01*
X156090952Y-110365119D01*
X156138571Y-110317500D01*
X156233809Y-110269880D01*
X156471904Y-110269880D01*
X156567142Y-110317500D01*
X156614761Y-110365119D01*
X156662380Y-110460357D01*
X156662380Y-110746071D01*
X156614761Y-110841309D01*
X156567142Y-110888928D01*
X155995714Y-109936547D02*
X156662380Y-109698452D01*
X155995714Y-109460357D01*
X153170000Y-111603214D02*
X153122380Y-111698452D01*
X153122380Y-111841309D01*
X153170000Y-111984166D01*
X153265238Y-112079404D01*
X153360476Y-112127023D01*
X153550952Y-112174642D01*
X153693809Y-112174642D01*
X153884285Y-112127023D01*
X153979523Y-112079404D01*
X154074761Y-111984166D01*
X154122380Y-111841309D01*
X154122380Y-111746071D01*
X154074761Y-111603214D01*
X154027142Y-111555595D01*
X153693809Y-111555595D01*
X153693809Y-111746071D01*
X154122380Y-111127023D02*
X153122380Y-111127023D01*
X154122380Y-110555595D01*
X153122380Y-110555595D01*
X154122380Y-110079404D02*
X153122380Y-110079404D01*
X153122380Y-109841309D01*
X153170000Y-109698452D01*
X153265238Y-109603214D01*
X153360476Y-109555595D01*
X153550952Y-109507976D01*
X153693809Y-109507976D01*
X153884285Y-109555595D01*
X153979523Y-109603214D01*
X154074761Y-109698452D01*
X154122380Y-109841309D01*
X154122380Y-110079404D01*
X130714761Y-86812380D02*
X130381428Y-86336190D01*
X130143333Y-86812380D02*
X130143333Y-85812380D01*
X130524285Y-85812380D01*
X130619523Y-85860000D01*
X130667142Y-85907619D01*
X130714761Y-86002857D01*
X130714761Y-86145714D01*
X130667142Y-86240952D01*
X130619523Y-86288571D01*
X130524285Y-86336190D01*
X130143333Y-86336190D01*
X131619523Y-86812380D02*
X131143333Y-86812380D01*
X131143333Y-85812380D01*
X130690952Y-84272380D02*
X130214761Y-84272380D01*
X130214761Y-83272380D01*
X130976666Y-83986666D02*
X131452857Y-83986666D01*
X130881428Y-84272380D02*
X131214761Y-83272380D01*
X131548095Y-84272380D01*
X130690952Y-81732380D02*
X130357619Y-81256190D01*
X130119523Y-81732380D02*
X130119523Y-80732380D01*
X130500476Y-80732380D01*
X130595714Y-80780000D01*
X130643333Y-80827619D01*
X130690952Y-80922857D01*
X130690952Y-81065714D01*
X130643333Y-81160952D01*
X130595714Y-81208571D01*
X130500476Y-81256190D01*
X130119523Y-81256190D01*
X131071904Y-81446666D02*
X131548095Y-81446666D01*
X130976666Y-81732380D02*
X131310000Y-80732380D01*
X131643333Y-81732380D01*
D12*
X167640000Y-113665000D02*
X167640000Y-114935000D01*
X154305000Y-115570000D02*
X153035000Y-115570000D01*
X152400000Y-114935000D02*
X153035000Y-115570000D01*
X153035000Y-113030000D02*
X152400000Y-113665000D01*
X152400000Y-113665000D02*
X152400000Y-114935000D01*
X155575000Y-115570000D02*
X154940000Y-114935000D01*
X156845000Y-115570000D02*
X155575000Y-115570000D01*
X157480000Y-114935000D02*
X156845000Y-115570000D01*
X156845000Y-113030000D02*
X157480000Y-113665000D01*
X155575000Y-113030000D02*
X156845000Y-113030000D01*
X154940000Y-113665000D02*
X155575000Y-113030000D01*
X154940000Y-114935000D02*
X154305000Y-115570000D01*
X154305000Y-113030000D02*
X154940000Y-113665000D01*
X153035000Y-113030000D02*
X154305000Y-113030000D01*
X161925000Y-115570000D02*
X160655000Y-115570000D01*
X160020000Y-114935000D02*
X160655000Y-115570000D01*
X160655000Y-113030000D02*
X160020000Y-113665000D01*
X158115000Y-115570000D02*
X157480000Y-114935000D01*
X159385000Y-115570000D02*
X158115000Y-115570000D01*
X160020000Y-114935000D02*
X159385000Y-115570000D01*
X159385000Y-113030000D02*
X160020000Y-113665000D01*
X158115000Y-113030000D02*
X159385000Y-113030000D01*
X157480000Y-113665000D02*
X158115000Y-113030000D01*
X163195000Y-115570000D02*
X162560000Y-114935000D01*
X164465000Y-115570000D02*
X163195000Y-115570000D01*
X165100000Y-114935000D02*
X164465000Y-115570000D01*
X164465000Y-113030000D02*
X165100000Y-113665000D01*
X163195000Y-113030000D02*
X164465000Y-113030000D01*
X162560000Y-113665000D02*
X163195000Y-113030000D01*
X162560000Y-114935000D02*
X161925000Y-115570000D01*
X161925000Y-113030000D02*
X162560000Y-113665000D01*
X160655000Y-113030000D02*
X161925000Y-113030000D01*
X165735000Y-115570000D02*
X165100000Y-114935000D01*
X167005000Y-115570000D02*
X165735000Y-115570000D01*
X167640000Y-114935000D02*
X167005000Y-115570000D01*
X167005000Y-113030000D02*
X167640000Y-113665000D01*
X165735000Y-113030000D02*
X167005000Y-113030000D01*
X165100000Y-113665000D02*
X165735000Y-113030000D01*
X127635000Y-80010000D02*
X128905000Y-80010000D01*
X129540000Y-85725000D02*
X129540000Y-86995000D01*
X128905000Y-87630000D02*
X129540000Y-86995000D01*
X127000000Y-86995000D02*
X127635000Y-87630000D01*
X127635000Y-87630000D02*
X128905000Y-87630000D01*
X129540000Y-84455000D02*
X128905000Y-85090000D01*
X129540000Y-83185000D02*
X129540000Y-84455000D01*
X128905000Y-82550000D02*
X129540000Y-83185000D01*
X127000000Y-83185000D02*
X127635000Y-82550000D01*
X127000000Y-84455000D02*
X127000000Y-83185000D01*
X127635000Y-85090000D02*
X127000000Y-84455000D01*
X128905000Y-85090000D02*
X129540000Y-85725000D01*
X127000000Y-85725000D02*
X127635000Y-85090000D01*
X127000000Y-86995000D02*
X127000000Y-85725000D01*
X129540000Y-81915000D02*
X128905000Y-82550000D01*
X129540000Y-80645000D02*
X129540000Y-81915000D01*
X128905000Y-80010000D02*
X129540000Y-80645000D01*
X127000000Y-80645000D02*
X127635000Y-80010000D01*
X127000000Y-81915000D02*
X127000000Y-80645000D01*
X127635000Y-82550000D02*
X127000000Y-81915000D01*
D13*
X169072779Y-78230000D02*
X168747221Y-78230000D01*
X169072779Y-79250000D02*
X168747221Y-79250000D01*
X173480000Y-87467221D02*
X173480000Y-87792779D01*
X174500000Y-87467221D02*
X174500000Y-87792779D01*
X173480000Y-91277221D02*
X173480000Y-91602779D01*
X174500000Y-91277221D02*
X174500000Y-91602779D01*
X157317221Y-77980000D02*
X157642779Y-77980000D01*
X157317221Y-76960000D02*
X157642779Y-76960000D01*
X161127221Y-77980000D02*
X161452779Y-77980000D01*
X161127221Y-76960000D02*
X161452779Y-76960000D01*
X155700000Y-81117221D02*
X155700000Y-81442779D01*
X156720000Y-81117221D02*
X156720000Y-81442779D01*
X163320000Y-81117221D02*
X163320000Y-81442779D01*
X164340000Y-81117221D02*
X164340000Y-81442779D01*
X168730432Y-96969685D02*
X169055990Y-96969685D01*
X168730432Y-95949685D02*
X169055990Y-95949685D01*
X164995435Y-96939071D02*
X165320993Y-96939071D01*
X164995435Y-95919071D02*
X165320993Y-95919071D01*
X161127221Y-102110000D02*
X161452779Y-102110000D01*
X161127221Y-101090000D02*
X161452779Y-101090000D01*
X161127221Y-107190000D02*
X161452779Y-107190000D01*
X161127221Y-106170000D02*
X161452779Y-106170000D01*
X150022779Y-101090000D02*
X149697221Y-101090000D01*
X150022779Y-102110000D02*
X149697221Y-102110000D01*
X150022779Y-92200000D02*
X149697221Y-92200000D01*
X150022779Y-93220000D02*
X149697221Y-93220000D01*
X150022779Y-87120000D02*
X149697221Y-87120000D01*
X150022779Y-88140000D02*
X149697221Y-88140000D01*
X150022779Y-97280000D02*
X149697221Y-97280000D01*
X150022779Y-98300000D02*
X149697221Y-98300000D01*
X161452779Y-73150000D02*
X161127221Y-73150000D01*
X161452779Y-74170000D02*
X161127221Y-74170000D01*
X150022779Y-82040000D02*
X149697221Y-82040000D01*
X150022779Y-83060000D02*
X149697221Y-83060000D01*
X157642779Y-73150000D02*
X157317221Y-73150000D01*
X157642779Y-74170000D02*
X157317221Y-74170000D01*
X150022779Y-106170000D02*
X149697221Y-106170000D01*
X150022779Y-107190000D02*
X149697221Y-107190000D01*
X171612779Y-113790000D02*
X171287221Y-113790000D01*
X171612779Y-114810000D02*
X171287221Y-114810000D01*
D14*
X160147000Y-86233000D02*
G75*
G03X160147000Y-86233000I-254000J0D01*
G01*
D13*
X137414751Y-114341913D02*
X137414751Y-112941913D01*
X138114751Y-112241913D02*
X138714751Y-112241913D01*
X139414751Y-112941913D02*
X139414751Y-114341913D01*
X138714751Y-115041913D02*
X138114751Y-115041913D01*
X138114751Y-115041913D02*
G75*
G02X137414751Y-114341913I0J700000D01*
G01*
X139414751Y-114341913D02*
G75*
G02X138714751Y-115041913I-700000J0D01*
G01*
X138714751Y-112241913D02*
G75*
G02X139414751Y-112941913I0J-700000D01*
G01*
X137414751Y-112941913D02*
G75*
G02X138114751Y-112241913I700000J0D01*
G01*
X136600000Y-80250000D02*
X134600000Y-80250000D01*
X136600000Y-77650000D02*
X134600000Y-77650000D01*
X136600000Y-86750000D02*
X136600000Y-80250000D01*
X136600000Y-91150000D02*
X136600000Y-89950000D01*
X142800000Y-91150000D02*
X136600000Y-91150000D01*
X142800000Y-82250000D02*
X142800000Y-91150000D01*
X142800000Y-76450000D02*
X142800000Y-79650000D01*
X142300000Y-76450000D02*
X142800000Y-76450000D01*
X142300000Y-73950000D02*
X142300000Y-76450000D01*
X137100000Y-73950000D02*
X142300000Y-73950000D01*
X137100000Y-76450000D02*
X137100000Y-73950000D01*
X136600000Y-76450000D02*
X137100000Y-76450000D01*
X136600000Y-77650000D02*
X136600000Y-76450000D01*
X137732500Y-107415000D02*
X140017500Y-107415000D01*
X137732500Y-105945000D02*
X137732500Y-107415000D01*
X140017500Y-105945000D02*
X137732500Y-105945000D01*
X169072779Y-82040000D02*
X168747221Y-82040000D01*
X169072779Y-83060000D02*
X168747221Y-83060000D01*
X166628578Y-72950000D02*
X166111422Y-72950000D01*
X166628578Y-74370000D02*
X166111422Y-74370000D01*
X169420000Y-86522779D02*
X169420000Y-86197221D01*
X168400000Y-86522779D02*
X168400000Y-86197221D01*
X155500000Y-86101422D02*
X155500000Y-86618578D01*
X156920000Y-86101422D02*
X156920000Y-86618578D01*
X161124205Y-96940093D02*
X161449763Y-96940093D01*
X161124205Y-95920093D02*
X161449763Y-95920093D01*
X155700000Y-92547221D02*
X155700000Y-92872779D01*
X156720000Y-92547221D02*
X156720000Y-92872779D01*
X164937221Y-102110000D02*
X165262779Y-102110000D01*
X164937221Y-101090000D02*
X165262779Y-101090000D01*
D15*
X150926800Y-113966171D02*
X150926800Y-114401600D01*
X150897771Y-114488685D01*
X150839714Y-114546742D01*
X150752628Y-114575771D01*
X150694571Y-114575771D01*
X151188057Y-114024228D02*
X151217085Y-113995200D01*
X151275142Y-113966171D01*
X151420285Y-113966171D01*
X151478342Y-113995200D01*
X151507371Y-114024228D01*
X151536400Y-114082285D01*
X151536400Y-114140342D01*
X151507371Y-114227428D01*
X151159028Y-114575771D01*
X151536400Y-114575771D01*
X127936171Y-89103200D02*
X128371600Y-89103200D01*
X128458685Y-89132228D01*
X128516742Y-89190285D01*
X128545771Y-89277371D01*
X128545771Y-89335428D01*
X128545771Y-88493600D02*
X128545771Y-88841942D01*
X128545771Y-88667771D02*
X127936171Y-88667771D01*
X128023257Y-88725828D01*
X128081314Y-88783885D01*
X128110342Y-88841942D01*
D10*
X168267142Y-77922380D02*
X167933809Y-77446190D01*
X167695714Y-77922380D02*
X167695714Y-76922380D01*
X168076666Y-76922380D01*
X168171904Y-76970000D01*
X168219523Y-77017619D01*
X168267142Y-77112857D01*
X168267142Y-77255714D01*
X168219523Y-77350952D01*
X168171904Y-77398571D01*
X168076666Y-77446190D01*
X167695714Y-77446190D01*
X168648095Y-77017619D02*
X168695714Y-76970000D01*
X168790952Y-76922380D01*
X169029047Y-76922380D01*
X169124285Y-76970000D01*
X169171904Y-77017619D01*
X169219523Y-77112857D01*
X169219523Y-77208095D01*
X169171904Y-77350952D01*
X168600476Y-77922380D01*
X169219523Y-77922380D01*
X169838571Y-76922380D02*
X169933809Y-76922380D01*
X170029047Y-76970000D01*
X170076666Y-77017619D01*
X170124285Y-77112857D01*
X170171904Y-77303333D01*
X170171904Y-77541428D01*
X170124285Y-77731904D01*
X170076666Y-77827142D01*
X170029047Y-77874761D01*
X169933809Y-77922380D01*
X169838571Y-77922380D01*
X169743333Y-77874761D01*
X169695714Y-77827142D01*
X169648095Y-77731904D01*
X169600476Y-77541428D01*
X169600476Y-77303333D01*
X169648095Y-77112857D01*
X169695714Y-77017619D01*
X169743333Y-76970000D01*
X169838571Y-76922380D01*
X173172380Y-88272857D02*
X172696190Y-88606190D01*
X173172380Y-88844285D02*
X172172380Y-88844285D01*
X172172380Y-88463333D01*
X172220000Y-88368095D01*
X172267619Y-88320476D01*
X172362857Y-88272857D01*
X172505714Y-88272857D01*
X172600952Y-88320476D01*
X172648571Y-88368095D01*
X172696190Y-88463333D01*
X172696190Y-88844285D01*
X173172380Y-87320476D02*
X173172380Y-87891904D01*
X173172380Y-87606190D02*
X172172380Y-87606190D01*
X172315238Y-87701428D01*
X172410476Y-87796666D01*
X172458095Y-87891904D01*
X173172380Y-86844285D02*
X173172380Y-86653809D01*
X173124761Y-86558571D01*
X173077142Y-86510952D01*
X172934285Y-86415714D01*
X172743809Y-86368095D01*
X172362857Y-86368095D01*
X172267619Y-86415714D01*
X172220000Y-86463333D01*
X172172380Y-86558571D01*
X172172380Y-86749047D01*
X172220000Y-86844285D01*
X172267619Y-86891904D01*
X172362857Y-86939523D01*
X172600952Y-86939523D01*
X172696190Y-86891904D01*
X172743809Y-86844285D01*
X172791428Y-86749047D01*
X172791428Y-86558571D01*
X172743809Y-86463333D01*
X172696190Y-86415714D01*
X172600952Y-86368095D01*
X173172380Y-92082857D02*
X172696190Y-92416190D01*
X173172380Y-92654285D02*
X172172380Y-92654285D01*
X172172380Y-92273333D01*
X172220000Y-92178095D01*
X172267619Y-92130476D01*
X172362857Y-92082857D01*
X172505714Y-92082857D01*
X172600952Y-92130476D01*
X172648571Y-92178095D01*
X172696190Y-92273333D01*
X172696190Y-92654285D01*
X173172380Y-91130476D02*
X173172380Y-91701904D01*
X173172380Y-91416190D02*
X172172380Y-91416190D01*
X172315238Y-91511428D01*
X172410476Y-91606666D01*
X172458095Y-91701904D01*
X172600952Y-90559047D02*
X172553333Y-90654285D01*
X172505714Y-90701904D01*
X172410476Y-90749523D01*
X172362857Y-90749523D01*
X172267619Y-90701904D01*
X172220000Y-90654285D01*
X172172380Y-90559047D01*
X172172380Y-90368571D01*
X172220000Y-90273333D01*
X172267619Y-90225714D01*
X172362857Y-90178095D01*
X172410476Y-90178095D01*
X172505714Y-90225714D01*
X172553333Y-90273333D01*
X172600952Y-90368571D01*
X172600952Y-90559047D01*
X172648571Y-90654285D01*
X172696190Y-90701904D01*
X172791428Y-90749523D01*
X172981904Y-90749523D01*
X173077142Y-90701904D01*
X173124761Y-90654285D01*
X173172380Y-90559047D01*
X173172380Y-90368571D01*
X173124761Y-90273333D01*
X173077142Y-90225714D01*
X172981904Y-90178095D01*
X172791428Y-90178095D01*
X172696190Y-90225714D01*
X172648571Y-90273333D01*
X172600952Y-90368571D01*
X156837142Y-76492380D02*
X156503809Y-76016190D01*
X156265714Y-76492380D02*
X156265714Y-75492380D01*
X156646666Y-75492380D01*
X156741904Y-75540000D01*
X156789523Y-75587619D01*
X156837142Y-75682857D01*
X156837142Y-75825714D01*
X156789523Y-75920952D01*
X156741904Y-75968571D01*
X156646666Y-76016190D01*
X156265714Y-76016190D01*
X157789523Y-76492380D02*
X157218095Y-76492380D01*
X157503809Y-76492380D02*
X157503809Y-75492380D01*
X157408571Y-75635238D01*
X157313333Y-75730476D01*
X157218095Y-75778095D01*
X158122857Y-75492380D02*
X158789523Y-75492380D01*
X158360952Y-76492380D01*
X160647142Y-76492380D02*
X160313809Y-76016190D01*
X160075714Y-76492380D02*
X160075714Y-75492380D01*
X160456666Y-75492380D01*
X160551904Y-75540000D01*
X160599523Y-75587619D01*
X160647142Y-75682857D01*
X160647142Y-75825714D01*
X160599523Y-75920952D01*
X160551904Y-75968571D01*
X160456666Y-76016190D01*
X160075714Y-76016190D01*
X161599523Y-76492380D02*
X161028095Y-76492380D01*
X161313809Y-76492380D02*
X161313809Y-75492380D01*
X161218571Y-75635238D01*
X161123333Y-75730476D01*
X161028095Y-75778095D01*
X162456666Y-75492380D02*
X162266190Y-75492380D01*
X162170952Y-75540000D01*
X162123333Y-75587619D01*
X162028095Y-75730476D01*
X161980476Y-75920952D01*
X161980476Y-76301904D01*
X162028095Y-76397142D01*
X162075714Y-76444761D01*
X162170952Y-76492380D01*
X162361428Y-76492380D01*
X162456666Y-76444761D01*
X162504285Y-76397142D01*
X162551904Y-76301904D01*
X162551904Y-76063809D01*
X162504285Y-75968571D01*
X162456666Y-75920952D01*
X162361428Y-75873333D01*
X162170952Y-75873333D01*
X162075714Y-75920952D01*
X162028095Y-75968571D01*
X161980476Y-76063809D01*
X155392380Y-81922857D02*
X154916190Y-82256190D01*
X155392380Y-82494285D02*
X154392380Y-82494285D01*
X154392380Y-82113333D01*
X154440000Y-82018095D01*
X154487619Y-81970476D01*
X154582857Y-81922857D01*
X154725714Y-81922857D01*
X154820952Y-81970476D01*
X154868571Y-82018095D01*
X154916190Y-82113333D01*
X154916190Y-82494285D01*
X155392380Y-80970476D02*
X155392380Y-81541904D01*
X155392380Y-81256190D02*
X154392380Y-81256190D01*
X154535238Y-81351428D01*
X154630476Y-81446666D01*
X154678095Y-81541904D01*
X154392380Y-80065714D02*
X154392380Y-80541904D01*
X154868571Y-80589523D01*
X154820952Y-80541904D01*
X154773333Y-80446666D01*
X154773333Y-80208571D01*
X154820952Y-80113333D01*
X154868571Y-80065714D01*
X154963809Y-80018095D01*
X155201904Y-80018095D01*
X155297142Y-80065714D01*
X155344761Y-80113333D01*
X155392380Y-80208571D01*
X155392380Y-80446666D01*
X155344761Y-80541904D01*
X155297142Y-80589523D01*
X163012380Y-81922857D02*
X162536190Y-82256190D01*
X163012380Y-82494285D02*
X162012380Y-82494285D01*
X162012380Y-82113333D01*
X162060000Y-82018095D01*
X162107619Y-81970476D01*
X162202857Y-81922857D01*
X162345714Y-81922857D01*
X162440952Y-81970476D01*
X162488571Y-82018095D01*
X162536190Y-82113333D01*
X162536190Y-82494285D01*
X163012380Y-80970476D02*
X163012380Y-81541904D01*
X163012380Y-81256190D02*
X162012380Y-81256190D01*
X162155238Y-81351428D01*
X162250476Y-81446666D01*
X162298095Y-81541904D01*
X162345714Y-80113333D02*
X163012380Y-80113333D01*
X161964761Y-80351428D02*
X162679047Y-80589523D01*
X162679047Y-79970476D01*
X168250353Y-95482065D02*
X167917020Y-95005875D01*
X167678925Y-95482065D02*
X167678925Y-94482065D01*
X168059877Y-94482065D01*
X168155115Y-94529685D01*
X168202734Y-94577304D01*
X168250353Y-94672542D01*
X168250353Y-94815399D01*
X168202734Y-94910637D01*
X168155115Y-94958256D01*
X168059877Y-95005875D01*
X167678925Y-95005875D01*
X169202734Y-95482065D02*
X168631306Y-95482065D01*
X168917020Y-95482065D02*
X168917020Y-94482065D01*
X168821782Y-94624923D01*
X168726544Y-94720161D01*
X168631306Y-94767780D01*
X169536068Y-94482065D02*
X170155115Y-94482065D01*
X169821782Y-94863018D01*
X169964639Y-94863018D01*
X170059877Y-94910637D01*
X170107496Y-94958256D01*
X170155115Y-95053494D01*
X170155115Y-95291589D01*
X170107496Y-95386827D01*
X170059877Y-95434446D01*
X169964639Y-95482065D01*
X169678925Y-95482065D01*
X169583687Y-95434446D01*
X169536068Y-95386827D01*
X164515356Y-95451451D02*
X164182023Y-94975261D01*
X163943928Y-95451451D02*
X163943928Y-94451451D01*
X164324880Y-94451451D01*
X164420118Y-94499071D01*
X164467737Y-94546690D01*
X164515356Y-94641928D01*
X164515356Y-94784785D01*
X164467737Y-94880023D01*
X164420118Y-94927642D01*
X164324880Y-94975261D01*
X163943928Y-94975261D01*
X165467737Y-95451451D02*
X164896309Y-95451451D01*
X165182023Y-95451451D02*
X165182023Y-94451451D01*
X165086785Y-94594309D01*
X164991547Y-94689547D01*
X164896309Y-94737166D01*
X165848690Y-94546690D02*
X165896309Y-94499071D01*
X165991547Y-94451451D01*
X166229642Y-94451451D01*
X166324880Y-94499071D01*
X166372499Y-94546690D01*
X166420118Y-94641928D01*
X166420118Y-94737166D01*
X166372499Y-94880023D01*
X165801071Y-95451451D01*
X166420118Y-95451451D01*
X160647142Y-100622380D02*
X160313809Y-100146190D01*
X160075714Y-100622380D02*
X160075714Y-99622380D01*
X160456666Y-99622380D01*
X160551904Y-99670000D01*
X160599523Y-99717619D01*
X160647142Y-99812857D01*
X160647142Y-99955714D01*
X160599523Y-100050952D01*
X160551904Y-100098571D01*
X160456666Y-100146190D01*
X160075714Y-100146190D01*
X161599523Y-100622380D02*
X161028095Y-100622380D01*
X161313809Y-100622380D02*
X161313809Y-99622380D01*
X161218571Y-99765238D01*
X161123333Y-99860476D01*
X161028095Y-99908095D01*
X162551904Y-100622380D02*
X161980476Y-100622380D01*
X162266190Y-100622380D02*
X162266190Y-99622380D01*
X162170952Y-99765238D01*
X162075714Y-99860476D01*
X161980476Y-99908095D01*
X160647142Y-105702380D02*
X160313809Y-105226190D01*
X160075714Y-105702380D02*
X160075714Y-104702380D01*
X160456666Y-104702380D01*
X160551904Y-104750000D01*
X160599523Y-104797619D01*
X160647142Y-104892857D01*
X160647142Y-105035714D01*
X160599523Y-105130952D01*
X160551904Y-105178571D01*
X160456666Y-105226190D01*
X160075714Y-105226190D01*
X161599523Y-105702380D02*
X161028095Y-105702380D01*
X161313809Y-105702380D02*
X161313809Y-104702380D01*
X161218571Y-104845238D01*
X161123333Y-104940476D01*
X161028095Y-104988095D01*
X162218571Y-104702380D02*
X162313809Y-104702380D01*
X162409047Y-104750000D01*
X162456666Y-104797619D01*
X162504285Y-104892857D01*
X162551904Y-105083333D01*
X162551904Y-105321428D01*
X162504285Y-105511904D01*
X162456666Y-105607142D01*
X162409047Y-105654761D01*
X162313809Y-105702380D01*
X162218571Y-105702380D01*
X162123333Y-105654761D01*
X162075714Y-105607142D01*
X162028095Y-105511904D01*
X161980476Y-105321428D01*
X161980476Y-105083333D01*
X162028095Y-104892857D01*
X162075714Y-104797619D01*
X162123333Y-104750000D01*
X162218571Y-104702380D01*
X149693333Y-100782380D02*
X149360000Y-100306190D01*
X149121904Y-100782380D02*
X149121904Y-99782380D01*
X149502857Y-99782380D01*
X149598095Y-99830000D01*
X149645714Y-99877619D01*
X149693333Y-99972857D01*
X149693333Y-100115714D01*
X149645714Y-100210952D01*
X149598095Y-100258571D01*
X149502857Y-100306190D01*
X149121904Y-100306190D01*
X150169523Y-100782380D02*
X150360000Y-100782380D01*
X150455238Y-100734761D01*
X150502857Y-100687142D01*
X150598095Y-100544285D01*
X150645714Y-100353809D01*
X150645714Y-99972857D01*
X150598095Y-99877619D01*
X150550476Y-99830000D01*
X150455238Y-99782380D01*
X150264761Y-99782380D01*
X150169523Y-99830000D01*
X150121904Y-99877619D01*
X150074285Y-99972857D01*
X150074285Y-100210952D01*
X150121904Y-100306190D01*
X150169523Y-100353809D01*
X150264761Y-100401428D01*
X150455238Y-100401428D01*
X150550476Y-100353809D01*
X150598095Y-100306190D01*
X150645714Y-100210952D01*
X149693333Y-91892380D02*
X149360000Y-91416190D01*
X149121904Y-91892380D02*
X149121904Y-90892380D01*
X149502857Y-90892380D01*
X149598095Y-90940000D01*
X149645714Y-90987619D01*
X149693333Y-91082857D01*
X149693333Y-91225714D01*
X149645714Y-91320952D01*
X149598095Y-91368571D01*
X149502857Y-91416190D01*
X149121904Y-91416190D01*
X150264761Y-91320952D02*
X150169523Y-91273333D01*
X150121904Y-91225714D01*
X150074285Y-91130476D01*
X150074285Y-91082857D01*
X150121904Y-90987619D01*
X150169523Y-90940000D01*
X150264761Y-90892380D01*
X150455238Y-90892380D01*
X150550476Y-90940000D01*
X150598095Y-90987619D01*
X150645714Y-91082857D01*
X150645714Y-91130476D01*
X150598095Y-91225714D01*
X150550476Y-91273333D01*
X150455238Y-91320952D01*
X150264761Y-91320952D01*
X150169523Y-91368571D01*
X150121904Y-91416190D01*
X150074285Y-91511428D01*
X150074285Y-91701904D01*
X150121904Y-91797142D01*
X150169523Y-91844761D01*
X150264761Y-91892380D01*
X150455238Y-91892380D01*
X150550476Y-91844761D01*
X150598095Y-91797142D01*
X150645714Y-91701904D01*
X150645714Y-91511428D01*
X150598095Y-91416190D01*
X150550476Y-91368571D01*
X150455238Y-91320952D01*
X149693333Y-86812380D02*
X149360000Y-86336190D01*
X149121904Y-86812380D02*
X149121904Y-85812380D01*
X149502857Y-85812380D01*
X149598095Y-85860000D01*
X149645714Y-85907619D01*
X149693333Y-86002857D01*
X149693333Y-86145714D01*
X149645714Y-86240952D01*
X149598095Y-86288571D01*
X149502857Y-86336190D01*
X149121904Y-86336190D01*
X150026666Y-85812380D02*
X150693333Y-85812380D01*
X150264761Y-86812380D01*
X149693333Y-96972380D02*
X149360000Y-96496190D01*
X149121904Y-96972380D02*
X149121904Y-95972380D01*
X149502857Y-95972380D01*
X149598095Y-96020000D01*
X149645714Y-96067619D01*
X149693333Y-96162857D01*
X149693333Y-96305714D01*
X149645714Y-96400952D01*
X149598095Y-96448571D01*
X149502857Y-96496190D01*
X149121904Y-96496190D01*
X150550476Y-95972380D02*
X150360000Y-95972380D01*
X150264761Y-96020000D01*
X150217142Y-96067619D01*
X150121904Y-96210476D01*
X150074285Y-96400952D01*
X150074285Y-96781904D01*
X150121904Y-96877142D01*
X150169523Y-96924761D01*
X150264761Y-96972380D01*
X150455238Y-96972380D01*
X150550476Y-96924761D01*
X150598095Y-96877142D01*
X150645714Y-96781904D01*
X150645714Y-96543809D01*
X150598095Y-96448571D01*
X150550476Y-96400952D01*
X150455238Y-96353333D01*
X150264761Y-96353333D01*
X150169523Y-96400952D01*
X150121904Y-96448571D01*
X150074285Y-96543809D01*
X161123333Y-72842380D02*
X160790000Y-72366190D01*
X160551904Y-72842380D02*
X160551904Y-71842380D01*
X160932857Y-71842380D01*
X161028095Y-71890000D01*
X161075714Y-71937619D01*
X161123333Y-72032857D01*
X161123333Y-72175714D01*
X161075714Y-72270952D01*
X161028095Y-72318571D01*
X160932857Y-72366190D01*
X160551904Y-72366190D01*
X162028095Y-71842380D02*
X161551904Y-71842380D01*
X161504285Y-72318571D01*
X161551904Y-72270952D01*
X161647142Y-72223333D01*
X161885238Y-72223333D01*
X161980476Y-72270952D01*
X162028095Y-72318571D01*
X162075714Y-72413809D01*
X162075714Y-72651904D01*
X162028095Y-72747142D01*
X161980476Y-72794761D01*
X161885238Y-72842380D01*
X161647142Y-72842380D01*
X161551904Y-72794761D01*
X161504285Y-72747142D01*
X149693333Y-81732380D02*
X149360000Y-81256190D01*
X149121904Y-81732380D02*
X149121904Y-80732380D01*
X149502857Y-80732380D01*
X149598095Y-80780000D01*
X149645714Y-80827619D01*
X149693333Y-80922857D01*
X149693333Y-81065714D01*
X149645714Y-81160952D01*
X149598095Y-81208571D01*
X149502857Y-81256190D01*
X149121904Y-81256190D01*
X150550476Y-81065714D02*
X150550476Y-81732380D01*
X150312380Y-80684761D02*
X150074285Y-81399047D01*
X150693333Y-81399047D01*
X157313333Y-72842380D02*
X156980000Y-72366190D01*
X156741904Y-72842380D02*
X156741904Y-71842380D01*
X157122857Y-71842380D01*
X157218095Y-71890000D01*
X157265714Y-71937619D01*
X157313333Y-72032857D01*
X157313333Y-72175714D01*
X157265714Y-72270952D01*
X157218095Y-72318571D01*
X157122857Y-72366190D01*
X156741904Y-72366190D01*
X157646666Y-71842380D02*
X158265714Y-71842380D01*
X157932380Y-72223333D01*
X158075238Y-72223333D01*
X158170476Y-72270952D01*
X158218095Y-72318571D01*
X158265714Y-72413809D01*
X158265714Y-72651904D01*
X158218095Y-72747142D01*
X158170476Y-72794761D01*
X158075238Y-72842380D01*
X157789523Y-72842380D01*
X157694285Y-72794761D01*
X157646666Y-72747142D01*
X149693333Y-105862380D02*
X149360000Y-105386190D01*
X149121904Y-105862380D02*
X149121904Y-104862380D01*
X149502857Y-104862380D01*
X149598095Y-104910000D01*
X149645714Y-104957619D01*
X149693333Y-105052857D01*
X149693333Y-105195714D01*
X149645714Y-105290952D01*
X149598095Y-105338571D01*
X149502857Y-105386190D01*
X149121904Y-105386190D01*
X150074285Y-104957619D02*
X150121904Y-104910000D01*
X150217142Y-104862380D01*
X150455238Y-104862380D01*
X150550476Y-104910000D01*
X150598095Y-104957619D01*
X150645714Y-105052857D01*
X150645714Y-105148095D01*
X150598095Y-105290952D01*
X150026666Y-105862380D01*
X150645714Y-105862380D01*
X171283333Y-113482380D02*
X170950000Y-113006190D01*
X170711904Y-113482380D02*
X170711904Y-112482380D01*
X171092857Y-112482380D01*
X171188095Y-112530000D01*
X171235714Y-112577619D01*
X171283333Y-112672857D01*
X171283333Y-112815714D01*
X171235714Y-112910952D01*
X171188095Y-112958571D01*
X171092857Y-113006190D01*
X170711904Y-113006190D01*
X172235714Y-113482380D02*
X171664285Y-113482380D01*
X171950000Y-113482380D02*
X171950000Y-112482380D01*
X171854761Y-112625238D01*
X171759523Y-112720476D01*
X171664285Y-112768095D01*
D16*
X161902019Y-86092695D02*
X161902019Y-85279895D01*
X162172952Y-85860466D01*
X162443885Y-85279895D01*
X162443885Y-86092695D01*
X163256685Y-86092695D02*
X162792228Y-86092695D01*
X163024457Y-86092695D02*
X163024457Y-85279895D01*
X162947047Y-85396009D01*
X162869638Y-85473419D01*
X162792228Y-85512123D01*
X160411885Y-92210466D02*
X160798933Y-92210466D01*
X160334476Y-92442695D02*
X160605409Y-91629895D01*
X160876342Y-92442695D01*
X161147276Y-92442695D02*
X161147276Y-91629895D01*
X161340800Y-91629895D01*
X161456914Y-91668600D01*
X161534323Y-91746009D01*
X161573028Y-91823419D01*
X161611733Y-91978238D01*
X161611733Y-92094352D01*
X161573028Y-92249171D01*
X161534323Y-92326580D01*
X161456914Y-92403990D01*
X161340800Y-92442695D01*
X161147276Y-92442695D01*
X162076190Y-91978238D02*
X161998780Y-91939533D01*
X161960076Y-91900828D01*
X161921371Y-91823419D01*
X161921371Y-91784714D01*
X161960076Y-91707304D01*
X161998780Y-91668600D01*
X162076190Y-91629895D01*
X162231009Y-91629895D01*
X162308419Y-91668600D01*
X162347123Y-91707304D01*
X162385828Y-91784714D01*
X162385828Y-91823419D01*
X162347123Y-91900828D01*
X162308419Y-91939533D01*
X162231009Y-91978238D01*
X162076190Y-91978238D01*
X161998780Y-92016942D01*
X161960076Y-92055647D01*
X161921371Y-92133057D01*
X161921371Y-92287876D01*
X161960076Y-92365285D01*
X161998780Y-92403990D01*
X162076190Y-92442695D01*
X162231009Y-92442695D01*
X162308419Y-92403990D01*
X162347123Y-92365285D01*
X162385828Y-92287876D01*
X162385828Y-92133057D01*
X162347123Y-92055647D01*
X162308419Y-92016942D01*
X162231009Y-91978238D01*
X162695466Y-91707304D02*
X162734171Y-91668600D01*
X162811580Y-91629895D01*
X163005104Y-91629895D01*
X163082514Y-91668600D01*
X163121219Y-91707304D01*
X163159923Y-91784714D01*
X163159923Y-91862123D01*
X163121219Y-91978238D01*
X162656761Y-92442695D01*
X163159923Y-92442695D01*
X163430857Y-91629895D02*
X163934019Y-91629895D01*
X163663085Y-91939533D01*
X163779200Y-91939533D01*
X163856609Y-91978238D01*
X163895314Y-92016942D01*
X163934019Y-92094352D01*
X163934019Y-92287876D01*
X163895314Y-92365285D01*
X163856609Y-92403990D01*
X163779200Y-92442695D01*
X163546971Y-92442695D01*
X163469561Y-92403990D01*
X163430857Y-92365285D01*
X164243657Y-91707304D02*
X164282361Y-91668600D01*
X164359771Y-91629895D01*
X164553295Y-91629895D01*
X164630704Y-91668600D01*
X164669409Y-91707304D01*
X164708114Y-91784714D01*
X164708114Y-91862123D01*
X164669409Y-91978238D01*
X164204952Y-92442695D01*
X164708114Y-92442695D01*
D10*
X136067131Y-114475246D02*
X136781417Y-114475246D01*
X136924274Y-114522865D01*
X137019512Y-114618103D01*
X137067131Y-114760960D01*
X137067131Y-114856198D01*
X137067131Y-113999055D02*
X136067131Y-113999055D01*
X136067131Y-113618103D01*
X136114751Y-113522865D01*
X136162370Y-113475246D01*
X136257608Y-113427627D01*
X136400465Y-113427627D01*
X136495703Y-113475246D01*
X136543322Y-113522865D01*
X136590941Y-113618103D01*
X136590941Y-113999055D01*
X137067131Y-112475246D02*
X137067131Y-113046674D01*
X137067131Y-112760960D02*
X136067131Y-112760960D01*
X136209989Y-112856198D01*
X136305227Y-112951436D01*
X136352846Y-113046674D01*
X139366666Y-72102380D02*
X139366666Y-72816666D01*
X139319047Y-72959523D01*
X139223809Y-73054761D01*
X139080952Y-73102380D01*
X138985714Y-73102380D01*
X139747619Y-72102380D02*
X140366666Y-72102380D01*
X140033333Y-72483333D01*
X140176190Y-72483333D01*
X140271428Y-72530952D01*
X140319047Y-72578571D01*
X140366666Y-72673809D01*
X140366666Y-72911904D01*
X140319047Y-73007142D01*
X140271428Y-73054761D01*
X140176190Y-73102380D01*
X139890476Y-73102380D01*
X139795238Y-73054761D01*
X139747619Y-73007142D01*
X138479404Y-105702380D02*
X138479404Y-104702380D01*
X138717500Y-104702380D01*
X138860357Y-104750000D01*
X138955595Y-104845238D01*
X139003214Y-104940476D01*
X139050833Y-105130952D01*
X139050833Y-105273809D01*
X139003214Y-105464285D01*
X138955595Y-105559523D01*
X138860357Y-105654761D01*
X138717500Y-105702380D01*
X138479404Y-105702380D01*
X140003214Y-105702380D02*
X139431785Y-105702380D01*
X139717500Y-105702380D02*
X139717500Y-104702380D01*
X139622261Y-104845238D01*
X139527023Y-104940476D01*
X139431785Y-104988095D01*
X168743333Y-81637142D02*
X168695714Y-81684761D01*
X168552857Y-81732380D01*
X168457619Y-81732380D01*
X168314761Y-81684761D01*
X168219523Y-81589523D01*
X168171904Y-81494285D01*
X168124285Y-81303809D01*
X168124285Y-81160952D01*
X168171904Y-80970476D01*
X168219523Y-80875238D01*
X168314761Y-80780000D01*
X168457619Y-80732380D01*
X168552857Y-80732380D01*
X168695714Y-80780000D01*
X168743333Y-80827619D01*
X169076666Y-80732380D02*
X169743333Y-80732380D01*
X169314761Y-81732380D01*
X166249335Y-72621491D02*
X166201716Y-72669110D01*
X166058859Y-72716729D01*
X165963621Y-72716729D01*
X165820763Y-72669110D01*
X165725525Y-72573872D01*
X165677906Y-72478634D01*
X165630287Y-72288158D01*
X165630287Y-72145301D01*
X165677906Y-71954825D01*
X165725525Y-71859587D01*
X165820763Y-71764349D01*
X165963621Y-71716729D01*
X166058859Y-71716729D01*
X166201716Y-71764349D01*
X166249335Y-71811968D01*
X167106478Y-71716729D02*
X166916002Y-71716729D01*
X166820763Y-71764349D01*
X166773144Y-71811968D01*
X166677906Y-71954825D01*
X166630287Y-72145301D01*
X166630287Y-72526253D01*
X166677906Y-72621491D01*
X166725525Y-72669110D01*
X166820763Y-72716729D01*
X167011240Y-72716729D01*
X167106478Y-72669110D01*
X167154097Y-72621491D01*
X167201716Y-72526253D01*
X167201716Y-72288158D01*
X167154097Y-72192920D01*
X167106478Y-72145301D01*
X167011240Y-72097682D01*
X166820763Y-72097682D01*
X166725525Y-72145301D01*
X166677906Y-72192920D01*
X166630287Y-72288158D01*
X167837142Y-86526666D02*
X167884761Y-86574285D01*
X167932380Y-86717142D01*
X167932380Y-86812380D01*
X167884761Y-86955238D01*
X167789523Y-87050476D01*
X167694285Y-87098095D01*
X167503809Y-87145714D01*
X167360952Y-87145714D01*
X167170476Y-87098095D01*
X167075238Y-87050476D01*
X166980000Y-86955238D01*
X166932380Y-86812380D01*
X166932380Y-86717142D01*
X166980000Y-86574285D01*
X167027619Y-86526666D01*
X166932380Y-85621904D02*
X166932380Y-86098095D01*
X167408571Y-86145714D01*
X167360952Y-86098095D01*
X167313333Y-86002857D01*
X167313333Y-85764761D01*
X167360952Y-85669523D01*
X167408571Y-85621904D01*
X167503809Y-85574285D01*
X167741904Y-85574285D01*
X167837142Y-85621904D01*
X167884761Y-85669523D01*
X167932380Y-85764761D01*
X167932380Y-86002857D01*
X167884761Y-86098095D01*
X167837142Y-86145714D01*
X155040518Y-86544344D02*
X155088137Y-86591963D01*
X155135756Y-86734820D01*
X155135756Y-86830058D01*
X155088137Y-86972916D01*
X154992899Y-87068154D01*
X154897661Y-87115773D01*
X154707185Y-87163392D01*
X154564328Y-87163392D01*
X154373852Y-87115773D01*
X154278614Y-87068154D01*
X154183376Y-86972916D01*
X154135756Y-86830058D01*
X154135756Y-86734820D01*
X154183376Y-86591963D01*
X154230995Y-86544344D01*
X154469090Y-85687201D02*
X155135756Y-85687201D01*
X154088137Y-85925297D02*
X154802423Y-86163392D01*
X154802423Y-85544344D01*
X161120317Y-95357235D02*
X161072698Y-95404854D01*
X160929841Y-95452473D01*
X160834603Y-95452473D01*
X160691745Y-95404854D01*
X160596507Y-95309616D01*
X160548888Y-95214378D01*
X160501269Y-95023902D01*
X160501269Y-94881045D01*
X160548888Y-94690569D01*
X160596507Y-94595331D01*
X160691745Y-94500093D01*
X160834603Y-94452473D01*
X160929841Y-94452473D01*
X161072698Y-94500093D01*
X161120317Y-94547712D01*
X161453650Y-94452473D02*
X162072698Y-94452473D01*
X161739364Y-94833426D01*
X161882222Y-94833426D01*
X161977460Y-94881045D01*
X162025079Y-94928664D01*
X162072698Y-95023902D01*
X162072698Y-95261997D01*
X162025079Y-95357235D01*
X161977460Y-95404854D01*
X161882222Y-95452473D01*
X161596507Y-95452473D01*
X161501269Y-95404854D01*
X161453650Y-95357235D01*
X155297142Y-92876666D02*
X155344761Y-92924285D01*
X155392380Y-93067142D01*
X155392380Y-93162380D01*
X155344761Y-93305238D01*
X155249523Y-93400476D01*
X155154285Y-93448095D01*
X154963809Y-93495714D01*
X154820952Y-93495714D01*
X154630476Y-93448095D01*
X154535238Y-93400476D01*
X154440000Y-93305238D01*
X154392380Y-93162380D01*
X154392380Y-93067142D01*
X154440000Y-92924285D01*
X154487619Y-92876666D01*
X154487619Y-92495714D02*
X154440000Y-92448095D01*
X154392380Y-92352857D01*
X154392380Y-92114761D01*
X154440000Y-92019523D01*
X154487619Y-91971904D01*
X154582857Y-91924285D01*
X154678095Y-91924285D01*
X154820952Y-91971904D01*
X155392380Y-92543333D01*
X155392380Y-91924285D01*
X164933333Y-100527142D02*
X164885714Y-100574761D01*
X164742857Y-100622380D01*
X164647619Y-100622380D01*
X164504761Y-100574761D01*
X164409523Y-100479523D01*
X164361904Y-100384285D01*
X164314285Y-100193809D01*
X164314285Y-100050952D01*
X164361904Y-99860476D01*
X164409523Y-99765238D01*
X164504761Y-99670000D01*
X164647619Y-99622380D01*
X164742857Y-99622380D01*
X164885714Y-99670000D01*
X164933333Y-99717619D01*
X165885714Y-100622380D02*
X165314285Y-100622380D01*
X165600000Y-100622380D02*
X165600000Y-99622380D01*
X165504761Y-99765238D01*
X165409523Y-99860476D01*
X165314285Y-99908095D01*
M02*
