G04 #@! TF.GenerationSoftware,KiCad,Pcbnew,5.1.5*
G04 #@! TF.CreationDate,2020-04-03T22:22:15-06:00*
G04 #@! TF.ProjectId,AD8232,41443832-3332-42e6-9b69-6361645f7063,rev?*
G04 #@! TF.SameCoordinates,Original*
G04 #@! TF.FileFunction,Soldermask,Bot*
G04 #@! TF.FilePolarity,Negative*
%FSLAX46Y46*%
G04 Gerber Fmt 4.6, Leading zero omitted, Abs format (unit mm)*
G04 Created by KiCad (PCBNEW 5.1.5) date 2020-04-03 22:22:15*
%MOMM*%
%LPD*%
G04 APERTURE LIST*
%ADD10C,0.100000*%
G04 APERTURE END LIST*
D10*
G36*
X164133765Y-113298620D02*
G01*
X164323288Y-113377123D01*
X164493854Y-113491092D01*
X164638908Y-113636146D01*
X164752877Y-113806712D01*
X164831380Y-113996235D01*
X164871400Y-114197431D01*
X164871400Y-114402569D01*
X164831380Y-114603765D01*
X164752877Y-114793288D01*
X164638908Y-114963854D01*
X164493854Y-115108908D01*
X164323288Y-115222877D01*
X164133765Y-115301380D01*
X163932569Y-115341400D01*
X163727431Y-115341400D01*
X163526235Y-115301380D01*
X163336712Y-115222877D01*
X163166146Y-115108908D01*
X163021092Y-114963854D01*
X162907123Y-114793288D01*
X162828620Y-114603765D01*
X162788600Y-114402569D01*
X162788600Y-114197431D01*
X162828620Y-113996235D01*
X162907123Y-113806712D01*
X163021092Y-113636146D01*
X163166146Y-113491092D01*
X163336712Y-113377123D01*
X163526235Y-113298620D01*
X163727431Y-113258600D01*
X163932569Y-113258600D01*
X164133765Y-113298620D01*
G37*
G36*
X153973765Y-113298620D02*
G01*
X154163288Y-113377123D01*
X154333854Y-113491092D01*
X154478908Y-113636146D01*
X154592877Y-113806712D01*
X154671380Y-113996235D01*
X154711400Y-114197431D01*
X154711400Y-114402569D01*
X154671380Y-114603765D01*
X154592877Y-114793288D01*
X154478908Y-114963854D01*
X154333854Y-115108908D01*
X154163288Y-115222877D01*
X153973765Y-115301380D01*
X153772569Y-115341400D01*
X153567431Y-115341400D01*
X153366235Y-115301380D01*
X153176712Y-115222877D01*
X153006146Y-115108908D01*
X152861092Y-114963854D01*
X152747123Y-114793288D01*
X152668620Y-114603765D01*
X152628600Y-114402569D01*
X152628600Y-114197431D01*
X152668620Y-113996235D01*
X152747123Y-113806712D01*
X152861092Y-113636146D01*
X153006146Y-113491092D01*
X153176712Y-113377123D01*
X153366235Y-113298620D01*
X153567431Y-113258600D01*
X153772569Y-113258600D01*
X153973765Y-113298620D01*
G37*
G36*
X156513765Y-113298620D02*
G01*
X156703288Y-113377123D01*
X156873854Y-113491092D01*
X157018908Y-113636146D01*
X157132877Y-113806712D01*
X157211380Y-113996235D01*
X157251400Y-114197431D01*
X157251400Y-114402569D01*
X157211380Y-114603765D01*
X157132877Y-114793288D01*
X157018908Y-114963854D01*
X156873854Y-115108908D01*
X156703288Y-115222877D01*
X156513765Y-115301380D01*
X156312569Y-115341400D01*
X156107431Y-115341400D01*
X155906235Y-115301380D01*
X155716712Y-115222877D01*
X155546146Y-115108908D01*
X155401092Y-114963854D01*
X155287123Y-114793288D01*
X155208620Y-114603765D01*
X155168600Y-114402569D01*
X155168600Y-114197431D01*
X155208620Y-113996235D01*
X155287123Y-113806712D01*
X155401092Y-113636146D01*
X155546146Y-113491092D01*
X155716712Y-113377123D01*
X155906235Y-113298620D01*
X156107431Y-113258600D01*
X156312569Y-113258600D01*
X156513765Y-113298620D01*
G37*
G36*
X159053765Y-113298620D02*
G01*
X159243288Y-113377123D01*
X159413854Y-113491092D01*
X159558908Y-113636146D01*
X159672877Y-113806712D01*
X159751380Y-113996235D01*
X159791400Y-114197431D01*
X159791400Y-114402569D01*
X159751380Y-114603765D01*
X159672877Y-114793288D01*
X159558908Y-114963854D01*
X159413854Y-115108908D01*
X159243288Y-115222877D01*
X159053765Y-115301380D01*
X158852569Y-115341400D01*
X158647431Y-115341400D01*
X158446235Y-115301380D01*
X158256712Y-115222877D01*
X158086146Y-115108908D01*
X157941092Y-114963854D01*
X157827123Y-114793288D01*
X157748620Y-114603765D01*
X157708600Y-114402569D01*
X157708600Y-114197431D01*
X157748620Y-113996235D01*
X157827123Y-113806712D01*
X157941092Y-113636146D01*
X158086146Y-113491092D01*
X158256712Y-113377123D01*
X158446235Y-113298620D01*
X158647431Y-113258600D01*
X158852569Y-113258600D01*
X159053765Y-113298620D01*
G37*
G36*
X161593765Y-113298620D02*
G01*
X161783288Y-113377123D01*
X161953854Y-113491092D01*
X162098908Y-113636146D01*
X162212877Y-113806712D01*
X162291380Y-113996235D01*
X162331400Y-114197431D01*
X162331400Y-114402569D01*
X162291380Y-114603765D01*
X162212877Y-114793288D01*
X162098908Y-114963854D01*
X161953854Y-115108908D01*
X161783288Y-115222877D01*
X161593765Y-115301380D01*
X161392569Y-115341400D01*
X161187431Y-115341400D01*
X160986235Y-115301380D01*
X160796712Y-115222877D01*
X160626146Y-115108908D01*
X160481092Y-114963854D01*
X160367123Y-114793288D01*
X160288620Y-114603765D01*
X160248600Y-114402569D01*
X160248600Y-114197431D01*
X160288620Y-113996235D01*
X160367123Y-113806712D01*
X160481092Y-113636146D01*
X160626146Y-113491092D01*
X160796712Y-113377123D01*
X160986235Y-113298620D01*
X161187431Y-113258600D01*
X161392569Y-113258600D01*
X161593765Y-113298620D01*
G37*
G36*
X166673765Y-113298620D02*
G01*
X166863288Y-113377123D01*
X167033854Y-113491092D01*
X167178908Y-113636146D01*
X167292877Y-113806712D01*
X167371380Y-113996235D01*
X167411400Y-114197431D01*
X167411400Y-114402569D01*
X167371380Y-114603765D01*
X167292877Y-114793288D01*
X167178908Y-114963854D01*
X167033854Y-115108908D01*
X166863288Y-115222877D01*
X166673765Y-115301380D01*
X166472569Y-115341400D01*
X166267431Y-115341400D01*
X166066235Y-115301380D01*
X165876712Y-115222877D01*
X165706146Y-115108908D01*
X165561092Y-114963854D01*
X165447123Y-114793288D01*
X165368620Y-114603765D01*
X165328600Y-114402569D01*
X165328600Y-114197431D01*
X165368620Y-113996235D01*
X165447123Y-113806712D01*
X165561092Y-113636146D01*
X165706146Y-113491092D01*
X165876712Y-113377123D01*
X166066235Y-113298620D01*
X166267431Y-113258600D01*
X166472569Y-113258600D01*
X166673765Y-113298620D01*
G37*
G36*
X139962754Y-86183817D02*
G01*
X140126689Y-86251721D01*
X140274227Y-86350303D01*
X140399697Y-86475773D01*
X140498279Y-86623311D01*
X140566183Y-86787246D01*
X140600800Y-86961279D01*
X140600800Y-87138721D01*
X140566183Y-87312754D01*
X140498279Y-87476689D01*
X140399697Y-87624227D01*
X140274227Y-87749697D01*
X140126689Y-87848279D01*
X139962754Y-87916183D01*
X139788721Y-87950800D01*
X139611279Y-87950800D01*
X139437246Y-87916183D01*
X139273311Y-87848279D01*
X139125773Y-87749697D01*
X139000303Y-87624227D01*
X138901721Y-87476689D01*
X138833817Y-87312754D01*
X138799200Y-87138721D01*
X138799200Y-86961279D01*
X138833817Y-86787246D01*
X138901721Y-86623311D01*
X139000303Y-86475773D01*
X139125773Y-86350303D01*
X139273311Y-86251721D01*
X139437246Y-86183817D01*
X139611279Y-86149200D01*
X139788721Y-86149200D01*
X139962754Y-86183817D01*
G37*
G36*
X128573765Y-85358620D02*
G01*
X128763288Y-85437123D01*
X128933854Y-85551092D01*
X129078908Y-85696146D01*
X129192877Y-85866712D01*
X129271380Y-86056235D01*
X129311400Y-86257431D01*
X129311400Y-86462569D01*
X129271380Y-86663765D01*
X129192877Y-86853288D01*
X129078908Y-87023854D01*
X128933854Y-87168908D01*
X128763288Y-87282877D01*
X128573765Y-87361380D01*
X128372569Y-87401400D01*
X128167431Y-87401400D01*
X127966235Y-87361380D01*
X127776712Y-87282877D01*
X127606146Y-87168908D01*
X127461092Y-87023854D01*
X127347123Y-86853288D01*
X127268620Y-86663765D01*
X127228600Y-86462569D01*
X127228600Y-86257431D01*
X127268620Y-86056235D01*
X127347123Y-85866712D01*
X127461092Y-85696146D01*
X127606146Y-85551092D01*
X127776712Y-85437123D01*
X127966235Y-85358620D01*
X128167431Y-85318600D01*
X128372569Y-85318600D01*
X128573765Y-85358620D01*
G37*
G36*
X128573765Y-82818620D02*
G01*
X128763288Y-82897123D01*
X128933854Y-83011092D01*
X129078908Y-83156146D01*
X129192877Y-83326712D01*
X129271380Y-83516235D01*
X129311400Y-83717431D01*
X129311400Y-83922569D01*
X129271380Y-84123765D01*
X129192877Y-84313288D01*
X129078908Y-84483854D01*
X128933854Y-84628908D01*
X128763288Y-84742877D01*
X128573765Y-84821380D01*
X128372569Y-84861400D01*
X128167431Y-84861400D01*
X127966235Y-84821380D01*
X127776712Y-84742877D01*
X127606146Y-84628908D01*
X127461092Y-84483854D01*
X127347123Y-84313288D01*
X127268620Y-84123765D01*
X127228600Y-83922569D01*
X127228600Y-83717431D01*
X127268620Y-83516235D01*
X127347123Y-83326712D01*
X127461092Y-83156146D01*
X127606146Y-83011092D01*
X127776712Y-82897123D01*
X127966235Y-82818620D01*
X128167431Y-82778600D01*
X128372569Y-82778600D01*
X128573765Y-82818620D01*
G37*
G36*
X128573765Y-80278620D02*
G01*
X128763288Y-80357123D01*
X128933854Y-80471092D01*
X129078908Y-80616146D01*
X129192877Y-80786712D01*
X129271380Y-80976235D01*
X129311400Y-81177431D01*
X129311400Y-81382569D01*
X129271380Y-81583765D01*
X129192877Y-81773288D01*
X129078908Y-81943854D01*
X128933854Y-82088908D01*
X128763288Y-82202877D01*
X128573765Y-82281380D01*
X128372569Y-82321400D01*
X128167431Y-82321400D01*
X127966235Y-82281380D01*
X127776712Y-82202877D01*
X127606146Y-82088908D01*
X127461092Y-81943854D01*
X127347123Y-81773288D01*
X127268620Y-81583765D01*
X127228600Y-81382569D01*
X127228600Y-81177431D01*
X127268620Y-80976235D01*
X127347123Y-80786712D01*
X127461092Y-80616146D01*
X127606146Y-80471092D01*
X127776712Y-80357123D01*
X127966235Y-80278620D01*
X128167431Y-80238600D01*
X128372569Y-80238600D01*
X128573765Y-80278620D01*
G37*
G36*
X139962754Y-79183817D02*
G01*
X140126689Y-79251721D01*
X140274227Y-79350303D01*
X140399697Y-79475773D01*
X140498279Y-79623311D01*
X140566183Y-79787246D01*
X140600800Y-79961279D01*
X140600800Y-80138721D01*
X140566183Y-80312754D01*
X140498279Y-80476689D01*
X140399697Y-80624227D01*
X140274227Y-80749697D01*
X140126689Y-80848279D01*
X139962754Y-80916183D01*
X139788721Y-80950800D01*
X139611279Y-80950800D01*
X139437246Y-80916183D01*
X139273311Y-80848279D01*
X139125773Y-80749697D01*
X139000303Y-80624227D01*
X138901721Y-80476689D01*
X138833817Y-80312754D01*
X138799200Y-80138721D01*
X138799200Y-79961279D01*
X138833817Y-79787246D01*
X138901721Y-79623311D01*
X139000303Y-79475773D01*
X139125773Y-79350303D01*
X139273311Y-79251721D01*
X139437246Y-79183817D01*
X139611279Y-79149200D01*
X139788721Y-79149200D01*
X139962754Y-79183817D01*
G37*
M02*
