G04 #@! TF.GenerationSoftware,KiCad,Pcbnew,5.1.5*
G04 #@! TF.CreationDate,2020-04-03T22:22:15-06:00*
G04 #@! TF.ProjectId,AD8232,41443832-3332-42e6-9b69-6361645f7063,rev?*
G04 #@! TF.SameCoordinates,Original*
G04 #@! TF.FileFunction,Paste,Top*
G04 #@! TF.FilePolarity,Positive*
%FSLAX46Y46*%
G04 Gerber Fmt 4.6, Leading zero omitted, Abs format (unit mm)*
G04 Created by KiCad (PCBNEW 5.1.5) date 2020-04-03 22:22:15*
%MOMM*%
%LPD*%
G04 APERTURE LIST*
%ADD10C,0.100000*%
%ADD11R,0.975360X0.975360*%
%ADD12R,0.248920X0.497840*%
%ADD13R,0.497840X0.248920*%
%ADD14R,2.800000X2.800000*%
%ADD15R,2.800000X2.200000*%
G04 APERTURE END LIST*
D10*
G36*
X168362691Y-78266053D02*
G01*
X168383926Y-78269203D01*
X168404750Y-78274419D01*
X168424962Y-78281651D01*
X168444368Y-78290830D01*
X168462781Y-78301866D01*
X168480024Y-78314654D01*
X168495930Y-78329070D01*
X168510346Y-78344976D01*
X168523134Y-78362219D01*
X168534170Y-78380632D01*
X168543349Y-78400038D01*
X168550581Y-78420250D01*
X168555797Y-78441074D01*
X168558947Y-78462309D01*
X168560000Y-78483750D01*
X168560000Y-78996250D01*
X168558947Y-79017691D01*
X168555797Y-79038926D01*
X168550581Y-79059750D01*
X168543349Y-79079962D01*
X168534170Y-79099368D01*
X168523134Y-79117781D01*
X168510346Y-79135024D01*
X168495930Y-79150930D01*
X168480024Y-79165346D01*
X168462781Y-79178134D01*
X168444368Y-79189170D01*
X168424962Y-79198349D01*
X168404750Y-79205581D01*
X168383926Y-79210797D01*
X168362691Y-79213947D01*
X168341250Y-79215000D01*
X167903750Y-79215000D01*
X167882309Y-79213947D01*
X167861074Y-79210797D01*
X167840250Y-79205581D01*
X167820038Y-79198349D01*
X167800632Y-79189170D01*
X167782219Y-79178134D01*
X167764976Y-79165346D01*
X167749070Y-79150930D01*
X167734654Y-79135024D01*
X167721866Y-79117781D01*
X167710830Y-79099368D01*
X167701651Y-79079962D01*
X167694419Y-79059750D01*
X167689203Y-79038926D01*
X167686053Y-79017691D01*
X167685000Y-78996250D01*
X167685000Y-78483750D01*
X167686053Y-78462309D01*
X167689203Y-78441074D01*
X167694419Y-78420250D01*
X167701651Y-78400038D01*
X167710830Y-78380632D01*
X167721866Y-78362219D01*
X167734654Y-78344976D01*
X167749070Y-78329070D01*
X167764976Y-78314654D01*
X167782219Y-78301866D01*
X167800632Y-78290830D01*
X167820038Y-78281651D01*
X167840250Y-78274419D01*
X167861074Y-78269203D01*
X167882309Y-78266053D01*
X167903750Y-78265000D01*
X168341250Y-78265000D01*
X168362691Y-78266053D01*
G37*
G36*
X169937691Y-78266053D02*
G01*
X169958926Y-78269203D01*
X169979750Y-78274419D01*
X169999962Y-78281651D01*
X170019368Y-78290830D01*
X170037781Y-78301866D01*
X170055024Y-78314654D01*
X170070930Y-78329070D01*
X170085346Y-78344976D01*
X170098134Y-78362219D01*
X170109170Y-78380632D01*
X170118349Y-78400038D01*
X170125581Y-78420250D01*
X170130797Y-78441074D01*
X170133947Y-78462309D01*
X170135000Y-78483750D01*
X170135000Y-78996250D01*
X170133947Y-79017691D01*
X170130797Y-79038926D01*
X170125581Y-79059750D01*
X170118349Y-79079962D01*
X170109170Y-79099368D01*
X170098134Y-79117781D01*
X170085346Y-79135024D01*
X170070930Y-79150930D01*
X170055024Y-79165346D01*
X170037781Y-79178134D01*
X170019368Y-79189170D01*
X169999962Y-79198349D01*
X169979750Y-79205581D01*
X169958926Y-79210797D01*
X169937691Y-79213947D01*
X169916250Y-79215000D01*
X169478750Y-79215000D01*
X169457309Y-79213947D01*
X169436074Y-79210797D01*
X169415250Y-79205581D01*
X169395038Y-79198349D01*
X169375632Y-79189170D01*
X169357219Y-79178134D01*
X169339976Y-79165346D01*
X169324070Y-79150930D01*
X169309654Y-79135024D01*
X169296866Y-79117781D01*
X169285830Y-79099368D01*
X169276651Y-79079962D01*
X169269419Y-79059750D01*
X169264203Y-79038926D01*
X169261053Y-79017691D01*
X169260000Y-78996250D01*
X169260000Y-78483750D01*
X169261053Y-78462309D01*
X169264203Y-78441074D01*
X169269419Y-78420250D01*
X169276651Y-78400038D01*
X169285830Y-78380632D01*
X169296866Y-78362219D01*
X169309654Y-78344976D01*
X169324070Y-78329070D01*
X169339976Y-78314654D01*
X169357219Y-78301866D01*
X169375632Y-78290830D01*
X169395038Y-78281651D01*
X169415250Y-78274419D01*
X169436074Y-78269203D01*
X169457309Y-78266053D01*
X169478750Y-78265000D01*
X169916250Y-78265000D01*
X169937691Y-78266053D01*
G37*
G36*
X174267691Y-87981053D02*
G01*
X174288926Y-87984203D01*
X174309750Y-87989419D01*
X174329962Y-87996651D01*
X174349368Y-88005830D01*
X174367781Y-88016866D01*
X174385024Y-88029654D01*
X174400930Y-88044070D01*
X174415346Y-88059976D01*
X174428134Y-88077219D01*
X174439170Y-88095632D01*
X174448349Y-88115038D01*
X174455581Y-88135250D01*
X174460797Y-88156074D01*
X174463947Y-88177309D01*
X174465000Y-88198750D01*
X174465000Y-88636250D01*
X174463947Y-88657691D01*
X174460797Y-88678926D01*
X174455581Y-88699750D01*
X174448349Y-88719962D01*
X174439170Y-88739368D01*
X174428134Y-88757781D01*
X174415346Y-88775024D01*
X174400930Y-88790930D01*
X174385024Y-88805346D01*
X174367781Y-88818134D01*
X174349368Y-88829170D01*
X174329962Y-88838349D01*
X174309750Y-88845581D01*
X174288926Y-88850797D01*
X174267691Y-88853947D01*
X174246250Y-88855000D01*
X173733750Y-88855000D01*
X173712309Y-88853947D01*
X173691074Y-88850797D01*
X173670250Y-88845581D01*
X173650038Y-88838349D01*
X173630632Y-88829170D01*
X173612219Y-88818134D01*
X173594976Y-88805346D01*
X173579070Y-88790930D01*
X173564654Y-88775024D01*
X173551866Y-88757781D01*
X173540830Y-88739368D01*
X173531651Y-88719962D01*
X173524419Y-88699750D01*
X173519203Y-88678926D01*
X173516053Y-88657691D01*
X173515000Y-88636250D01*
X173515000Y-88198750D01*
X173516053Y-88177309D01*
X173519203Y-88156074D01*
X173524419Y-88135250D01*
X173531651Y-88115038D01*
X173540830Y-88095632D01*
X173551866Y-88077219D01*
X173564654Y-88059976D01*
X173579070Y-88044070D01*
X173594976Y-88029654D01*
X173612219Y-88016866D01*
X173630632Y-88005830D01*
X173650038Y-87996651D01*
X173670250Y-87989419D01*
X173691074Y-87984203D01*
X173712309Y-87981053D01*
X173733750Y-87980000D01*
X174246250Y-87980000D01*
X174267691Y-87981053D01*
G37*
G36*
X174267691Y-86406053D02*
G01*
X174288926Y-86409203D01*
X174309750Y-86414419D01*
X174329962Y-86421651D01*
X174349368Y-86430830D01*
X174367781Y-86441866D01*
X174385024Y-86454654D01*
X174400930Y-86469070D01*
X174415346Y-86484976D01*
X174428134Y-86502219D01*
X174439170Y-86520632D01*
X174448349Y-86540038D01*
X174455581Y-86560250D01*
X174460797Y-86581074D01*
X174463947Y-86602309D01*
X174465000Y-86623750D01*
X174465000Y-87061250D01*
X174463947Y-87082691D01*
X174460797Y-87103926D01*
X174455581Y-87124750D01*
X174448349Y-87144962D01*
X174439170Y-87164368D01*
X174428134Y-87182781D01*
X174415346Y-87200024D01*
X174400930Y-87215930D01*
X174385024Y-87230346D01*
X174367781Y-87243134D01*
X174349368Y-87254170D01*
X174329962Y-87263349D01*
X174309750Y-87270581D01*
X174288926Y-87275797D01*
X174267691Y-87278947D01*
X174246250Y-87280000D01*
X173733750Y-87280000D01*
X173712309Y-87278947D01*
X173691074Y-87275797D01*
X173670250Y-87270581D01*
X173650038Y-87263349D01*
X173630632Y-87254170D01*
X173612219Y-87243134D01*
X173594976Y-87230346D01*
X173579070Y-87215930D01*
X173564654Y-87200024D01*
X173551866Y-87182781D01*
X173540830Y-87164368D01*
X173531651Y-87144962D01*
X173524419Y-87124750D01*
X173519203Y-87103926D01*
X173516053Y-87082691D01*
X173515000Y-87061250D01*
X173515000Y-86623750D01*
X173516053Y-86602309D01*
X173519203Y-86581074D01*
X173524419Y-86560250D01*
X173531651Y-86540038D01*
X173540830Y-86520632D01*
X173551866Y-86502219D01*
X173564654Y-86484976D01*
X173579070Y-86469070D01*
X173594976Y-86454654D01*
X173612219Y-86441866D01*
X173630632Y-86430830D01*
X173650038Y-86421651D01*
X173670250Y-86414419D01*
X173691074Y-86409203D01*
X173712309Y-86406053D01*
X173733750Y-86405000D01*
X174246250Y-86405000D01*
X174267691Y-86406053D01*
G37*
G36*
X174267691Y-91791053D02*
G01*
X174288926Y-91794203D01*
X174309750Y-91799419D01*
X174329962Y-91806651D01*
X174349368Y-91815830D01*
X174367781Y-91826866D01*
X174385024Y-91839654D01*
X174400930Y-91854070D01*
X174415346Y-91869976D01*
X174428134Y-91887219D01*
X174439170Y-91905632D01*
X174448349Y-91925038D01*
X174455581Y-91945250D01*
X174460797Y-91966074D01*
X174463947Y-91987309D01*
X174465000Y-92008750D01*
X174465000Y-92446250D01*
X174463947Y-92467691D01*
X174460797Y-92488926D01*
X174455581Y-92509750D01*
X174448349Y-92529962D01*
X174439170Y-92549368D01*
X174428134Y-92567781D01*
X174415346Y-92585024D01*
X174400930Y-92600930D01*
X174385024Y-92615346D01*
X174367781Y-92628134D01*
X174349368Y-92639170D01*
X174329962Y-92648349D01*
X174309750Y-92655581D01*
X174288926Y-92660797D01*
X174267691Y-92663947D01*
X174246250Y-92665000D01*
X173733750Y-92665000D01*
X173712309Y-92663947D01*
X173691074Y-92660797D01*
X173670250Y-92655581D01*
X173650038Y-92648349D01*
X173630632Y-92639170D01*
X173612219Y-92628134D01*
X173594976Y-92615346D01*
X173579070Y-92600930D01*
X173564654Y-92585024D01*
X173551866Y-92567781D01*
X173540830Y-92549368D01*
X173531651Y-92529962D01*
X173524419Y-92509750D01*
X173519203Y-92488926D01*
X173516053Y-92467691D01*
X173515000Y-92446250D01*
X173515000Y-92008750D01*
X173516053Y-91987309D01*
X173519203Y-91966074D01*
X173524419Y-91945250D01*
X173531651Y-91925038D01*
X173540830Y-91905632D01*
X173551866Y-91887219D01*
X173564654Y-91869976D01*
X173579070Y-91854070D01*
X173594976Y-91839654D01*
X173612219Y-91826866D01*
X173630632Y-91815830D01*
X173650038Y-91806651D01*
X173670250Y-91799419D01*
X173691074Y-91794203D01*
X173712309Y-91791053D01*
X173733750Y-91790000D01*
X174246250Y-91790000D01*
X174267691Y-91791053D01*
G37*
G36*
X174267691Y-90216053D02*
G01*
X174288926Y-90219203D01*
X174309750Y-90224419D01*
X174329962Y-90231651D01*
X174349368Y-90240830D01*
X174367781Y-90251866D01*
X174385024Y-90264654D01*
X174400930Y-90279070D01*
X174415346Y-90294976D01*
X174428134Y-90312219D01*
X174439170Y-90330632D01*
X174448349Y-90350038D01*
X174455581Y-90370250D01*
X174460797Y-90391074D01*
X174463947Y-90412309D01*
X174465000Y-90433750D01*
X174465000Y-90871250D01*
X174463947Y-90892691D01*
X174460797Y-90913926D01*
X174455581Y-90934750D01*
X174448349Y-90954962D01*
X174439170Y-90974368D01*
X174428134Y-90992781D01*
X174415346Y-91010024D01*
X174400930Y-91025930D01*
X174385024Y-91040346D01*
X174367781Y-91053134D01*
X174349368Y-91064170D01*
X174329962Y-91073349D01*
X174309750Y-91080581D01*
X174288926Y-91085797D01*
X174267691Y-91088947D01*
X174246250Y-91090000D01*
X173733750Y-91090000D01*
X173712309Y-91088947D01*
X173691074Y-91085797D01*
X173670250Y-91080581D01*
X173650038Y-91073349D01*
X173630632Y-91064170D01*
X173612219Y-91053134D01*
X173594976Y-91040346D01*
X173579070Y-91025930D01*
X173564654Y-91010024D01*
X173551866Y-90992781D01*
X173540830Y-90974368D01*
X173531651Y-90954962D01*
X173524419Y-90934750D01*
X173519203Y-90913926D01*
X173516053Y-90892691D01*
X173515000Y-90871250D01*
X173515000Y-90433750D01*
X173516053Y-90412309D01*
X173519203Y-90391074D01*
X173524419Y-90370250D01*
X173531651Y-90350038D01*
X173540830Y-90330632D01*
X173551866Y-90312219D01*
X173564654Y-90294976D01*
X173579070Y-90279070D01*
X173594976Y-90264654D01*
X173612219Y-90251866D01*
X173630632Y-90240830D01*
X173650038Y-90231651D01*
X173670250Y-90224419D01*
X173691074Y-90219203D01*
X173712309Y-90216053D01*
X173733750Y-90215000D01*
X174246250Y-90215000D01*
X174267691Y-90216053D01*
G37*
G36*
X158507691Y-76996053D02*
G01*
X158528926Y-76999203D01*
X158549750Y-77004419D01*
X158569962Y-77011651D01*
X158589368Y-77020830D01*
X158607781Y-77031866D01*
X158625024Y-77044654D01*
X158640930Y-77059070D01*
X158655346Y-77074976D01*
X158668134Y-77092219D01*
X158679170Y-77110632D01*
X158688349Y-77130038D01*
X158695581Y-77150250D01*
X158700797Y-77171074D01*
X158703947Y-77192309D01*
X158705000Y-77213750D01*
X158705000Y-77726250D01*
X158703947Y-77747691D01*
X158700797Y-77768926D01*
X158695581Y-77789750D01*
X158688349Y-77809962D01*
X158679170Y-77829368D01*
X158668134Y-77847781D01*
X158655346Y-77865024D01*
X158640930Y-77880930D01*
X158625024Y-77895346D01*
X158607781Y-77908134D01*
X158589368Y-77919170D01*
X158569962Y-77928349D01*
X158549750Y-77935581D01*
X158528926Y-77940797D01*
X158507691Y-77943947D01*
X158486250Y-77945000D01*
X158048750Y-77945000D01*
X158027309Y-77943947D01*
X158006074Y-77940797D01*
X157985250Y-77935581D01*
X157965038Y-77928349D01*
X157945632Y-77919170D01*
X157927219Y-77908134D01*
X157909976Y-77895346D01*
X157894070Y-77880930D01*
X157879654Y-77865024D01*
X157866866Y-77847781D01*
X157855830Y-77829368D01*
X157846651Y-77809962D01*
X157839419Y-77789750D01*
X157834203Y-77768926D01*
X157831053Y-77747691D01*
X157830000Y-77726250D01*
X157830000Y-77213750D01*
X157831053Y-77192309D01*
X157834203Y-77171074D01*
X157839419Y-77150250D01*
X157846651Y-77130038D01*
X157855830Y-77110632D01*
X157866866Y-77092219D01*
X157879654Y-77074976D01*
X157894070Y-77059070D01*
X157909976Y-77044654D01*
X157927219Y-77031866D01*
X157945632Y-77020830D01*
X157965038Y-77011651D01*
X157985250Y-77004419D01*
X158006074Y-76999203D01*
X158027309Y-76996053D01*
X158048750Y-76995000D01*
X158486250Y-76995000D01*
X158507691Y-76996053D01*
G37*
G36*
X156932691Y-76996053D02*
G01*
X156953926Y-76999203D01*
X156974750Y-77004419D01*
X156994962Y-77011651D01*
X157014368Y-77020830D01*
X157032781Y-77031866D01*
X157050024Y-77044654D01*
X157065930Y-77059070D01*
X157080346Y-77074976D01*
X157093134Y-77092219D01*
X157104170Y-77110632D01*
X157113349Y-77130038D01*
X157120581Y-77150250D01*
X157125797Y-77171074D01*
X157128947Y-77192309D01*
X157130000Y-77213750D01*
X157130000Y-77726250D01*
X157128947Y-77747691D01*
X157125797Y-77768926D01*
X157120581Y-77789750D01*
X157113349Y-77809962D01*
X157104170Y-77829368D01*
X157093134Y-77847781D01*
X157080346Y-77865024D01*
X157065930Y-77880930D01*
X157050024Y-77895346D01*
X157032781Y-77908134D01*
X157014368Y-77919170D01*
X156994962Y-77928349D01*
X156974750Y-77935581D01*
X156953926Y-77940797D01*
X156932691Y-77943947D01*
X156911250Y-77945000D01*
X156473750Y-77945000D01*
X156452309Y-77943947D01*
X156431074Y-77940797D01*
X156410250Y-77935581D01*
X156390038Y-77928349D01*
X156370632Y-77919170D01*
X156352219Y-77908134D01*
X156334976Y-77895346D01*
X156319070Y-77880930D01*
X156304654Y-77865024D01*
X156291866Y-77847781D01*
X156280830Y-77829368D01*
X156271651Y-77809962D01*
X156264419Y-77789750D01*
X156259203Y-77768926D01*
X156256053Y-77747691D01*
X156255000Y-77726250D01*
X156255000Y-77213750D01*
X156256053Y-77192309D01*
X156259203Y-77171074D01*
X156264419Y-77150250D01*
X156271651Y-77130038D01*
X156280830Y-77110632D01*
X156291866Y-77092219D01*
X156304654Y-77074976D01*
X156319070Y-77059070D01*
X156334976Y-77044654D01*
X156352219Y-77031866D01*
X156370632Y-77020830D01*
X156390038Y-77011651D01*
X156410250Y-77004419D01*
X156431074Y-76999203D01*
X156452309Y-76996053D01*
X156473750Y-76995000D01*
X156911250Y-76995000D01*
X156932691Y-76996053D01*
G37*
G36*
X162317691Y-76996053D02*
G01*
X162338926Y-76999203D01*
X162359750Y-77004419D01*
X162379962Y-77011651D01*
X162399368Y-77020830D01*
X162417781Y-77031866D01*
X162435024Y-77044654D01*
X162450930Y-77059070D01*
X162465346Y-77074976D01*
X162478134Y-77092219D01*
X162489170Y-77110632D01*
X162498349Y-77130038D01*
X162505581Y-77150250D01*
X162510797Y-77171074D01*
X162513947Y-77192309D01*
X162515000Y-77213750D01*
X162515000Y-77726250D01*
X162513947Y-77747691D01*
X162510797Y-77768926D01*
X162505581Y-77789750D01*
X162498349Y-77809962D01*
X162489170Y-77829368D01*
X162478134Y-77847781D01*
X162465346Y-77865024D01*
X162450930Y-77880930D01*
X162435024Y-77895346D01*
X162417781Y-77908134D01*
X162399368Y-77919170D01*
X162379962Y-77928349D01*
X162359750Y-77935581D01*
X162338926Y-77940797D01*
X162317691Y-77943947D01*
X162296250Y-77945000D01*
X161858750Y-77945000D01*
X161837309Y-77943947D01*
X161816074Y-77940797D01*
X161795250Y-77935581D01*
X161775038Y-77928349D01*
X161755632Y-77919170D01*
X161737219Y-77908134D01*
X161719976Y-77895346D01*
X161704070Y-77880930D01*
X161689654Y-77865024D01*
X161676866Y-77847781D01*
X161665830Y-77829368D01*
X161656651Y-77809962D01*
X161649419Y-77789750D01*
X161644203Y-77768926D01*
X161641053Y-77747691D01*
X161640000Y-77726250D01*
X161640000Y-77213750D01*
X161641053Y-77192309D01*
X161644203Y-77171074D01*
X161649419Y-77150250D01*
X161656651Y-77130038D01*
X161665830Y-77110632D01*
X161676866Y-77092219D01*
X161689654Y-77074976D01*
X161704070Y-77059070D01*
X161719976Y-77044654D01*
X161737219Y-77031866D01*
X161755632Y-77020830D01*
X161775038Y-77011651D01*
X161795250Y-77004419D01*
X161816074Y-76999203D01*
X161837309Y-76996053D01*
X161858750Y-76995000D01*
X162296250Y-76995000D01*
X162317691Y-76996053D01*
G37*
G36*
X160742691Y-76996053D02*
G01*
X160763926Y-76999203D01*
X160784750Y-77004419D01*
X160804962Y-77011651D01*
X160824368Y-77020830D01*
X160842781Y-77031866D01*
X160860024Y-77044654D01*
X160875930Y-77059070D01*
X160890346Y-77074976D01*
X160903134Y-77092219D01*
X160914170Y-77110632D01*
X160923349Y-77130038D01*
X160930581Y-77150250D01*
X160935797Y-77171074D01*
X160938947Y-77192309D01*
X160940000Y-77213750D01*
X160940000Y-77726250D01*
X160938947Y-77747691D01*
X160935797Y-77768926D01*
X160930581Y-77789750D01*
X160923349Y-77809962D01*
X160914170Y-77829368D01*
X160903134Y-77847781D01*
X160890346Y-77865024D01*
X160875930Y-77880930D01*
X160860024Y-77895346D01*
X160842781Y-77908134D01*
X160824368Y-77919170D01*
X160804962Y-77928349D01*
X160784750Y-77935581D01*
X160763926Y-77940797D01*
X160742691Y-77943947D01*
X160721250Y-77945000D01*
X160283750Y-77945000D01*
X160262309Y-77943947D01*
X160241074Y-77940797D01*
X160220250Y-77935581D01*
X160200038Y-77928349D01*
X160180632Y-77919170D01*
X160162219Y-77908134D01*
X160144976Y-77895346D01*
X160129070Y-77880930D01*
X160114654Y-77865024D01*
X160101866Y-77847781D01*
X160090830Y-77829368D01*
X160081651Y-77809962D01*
X160074419Y-77789750D01*
X160069203Y-77768926D01*
X160066053Y-77747691D01*
X160065000Y-77726250D01*
X160065000Y-77213750D01*
X160066053Y-77192309D01*
X160069203Y-77171074D01*
X160074419Y-77150250D01*
X160081651Y-77130038D01*
X160090830Y-77110632D01*
X160101866Y-77092219D01*
X160114654Y-77074976D01*
X160129070Y-77059070D01*
X160144976Y-77044654D01*
X160162219Y-77031866D01*
X160180632Y-77020830D01*
X160200038Y-77011651D01*
X160220250Y-77004419D01*
X160241074Y-76999203D01*
X160262309Y-76996053D01*
X160283750Y-76995000D01*
X160721250Y-76995000D01*
X160742691Y-76996053D01*
G37*
G36*
X156487691Y-81631053D02*
G01*
X156508926Y-81634203D01*
X156529750Y-81639419D01*
X156549962Y-81646651D01*
X156569368Y-81655830D01*
X156587781Y-81666866D01*
X156605024Y-81679654D01*
X156620930Y-81694070D01*
X156635346Y-81709976D01*
X156648134Y-81727219D01*
X156659170Y-81745632D01*
X156668349Y-81765038D01*
X156675581Y-81785250D01*
X156680797Y-81806074D01*
X156683947Y-81827309D01*
X156685000Y-81848750D01*
X156685000Y-82286250D01*
X156683947Y-82307691D01*
X156680797Y-82328926D01*
X156675581Y-82349750D01*
X156668349Y-82369962D01*
X156659170Y-82389368D01*
X156648134Y-82407781D01*
X156635346Y-82425024D01*
X156620930Y-82440930D01*
X156605024Y-82455346D01*
X156587781Y-82468134D01*
X156569368Y-82479170D01*
X156549962Y-82488349D01*
X156529750Y-82495581D01*
X156508926Y-82500797D01*
X156487691Y-82503947D01*
X156466250Y-82505000D01*
X155953750Y-82505000D01*
X155932309Y-82503947D01*
X155911074Y-82500797D01*
X155890250Y-82495581D01*
X155870038Y-82488349D01*
X155850632Y-82479170D01*
X155832219Y-82468134D01*
X155814976Y-82455346D01*
X155799070Y-82440930D01*
X155784654Y-82425024D01*
X155771866Y-82407781D01*
X155760830Y-82389368D01*
X155751651Y-82369962D01*
X155744419Y-82349750D01*
X155739203Y-82328926D01*
X155736053Y-82307691D01*
X155735000Y-82286250D01*
X155735000Y-81848750D01*
X155736053Y-81827309D01*
X155739203Y-81806074D01*
X155744419Y-81785250D01*
X155751651Y-81765038D01*
X155760830Y-81745632D01*
X155771866Y-81727219D01*
X155784654Y-81709976D01*
X155799070Y-81694070D01*
X155814976Y-81679654D01*
X155832219Y-81666866D01*
X155850632Y-81655830D01*
X155870038Y-81646651D01*
X155890250Y-81639419D01*
X155911074Y-81634203D01*
X155932309Y-81631053D01*
X155953750Y-81630000D01*
X156466250Y-81630000D01*
X156487691Y-81631053D01*
G37*
G36*
X156487691Y-80056053D02*
G01*
X156508926Y-80059203D01*
X156529750Y-80064419D01*
X156549962Y-80071651D01*
X156569368Y-80080830D01*
X156587781Y-80091866D01*
X156605024Y-80104654D01*
X156620930Y-80119070D01*
X156635346Y-80134976D01*
X156648134Y-80152219D01*
X156659170Y-80170632D01*
X156668349Y-80190038D01*
X156675581Y-80210250D01*
X156680797Y-80231074D01*
X156683947Y-80252309D01*
X156685000Y-80273750D01*
X156685000Y-80711250D01*
X156683947Y-80732691D01*
X156680797Y-80753926D01*
X156675581Y-80774750D01*
X156668349Y-80794962D01*
X156659170Y-80814368D01*
X156648134Y-80832781D01*
X156635346Y-80850024D01*
X156620930Y-80865930D01*
X156605024Y-80880346D01*
X156587781Y-80893134D01*
X156569368Y-80904170D01*
X156549962Y-80913349D01*
X156529750Y-80920581D01*
X156508926Y-80925797D01*
X156487691Y-80928947D01*
X156466250Y-80930000D01*
X155953750Y-80930000D01*
X155932309Y-80928947D01*
X155911074Y-80925797D01*
X155890250Y-80920581D01*
X155870038Y-80913349D01*
X155850632Y-80904170D01*
X155832219Y-80893134D01*
X155814976Y-80880346D01*
X155799070Y-80865930D01*
X155784654Y-80850024D01*
X155771866Y-80832781D01*
X155760830Y-80814368D01*
X155751651Y-80794962D01*
X155744419Y-80774750D01*
X155739203Y-80753926D01*
X155736053Y-80732691D01*
X155735000Y-80711250D01*
X155735000Y-80273750D01*
X155736053Y-80252309D01*
X155739203Y-80231074D01*
X155744419Y-80210250D01*
X155751651Y-80190038D01*
X155760830Y-80170632D01*
X155771866Y-80152219D01*
X155784654Y-80134976D01*
X155799070Y-80119070D01*
X155814976Y-80104654D01*
X155832219Y-80091866D01*
X155850632Y-80080830D01*
X155870038Y-80071651D01*
X155890250Y-80064419D01*
X155911074Y-80059203D01*
X155932309Y-80056053D01*
X155953750Y-80055000D01*
X156466250Y-80055000D01*
X156487691Y-80056053D01*
G37*
G36*
X164107691Y-81631053D02*
G01*
X164128926Y-81634203D01*
X164149750Y-81639419D01*
X164169962Y-81646651D01*
X164189368Y-81655830D01*
X164207781Y-81666866D01*
X164225024Y-81679654D01*
X164240930Y-81694070D01*
X164255346Y-81709976D01*
X164268134Y-81727219D01*
X164279170Y-81745632D01*
X164288349Y-81765038D01*
X164295581Y-81785250D01*
X164300797Y-81806074D01*
X164303947Y-81827309D01*
X164305000Y-81848750D01*
X164305000Y-82286250D01*
X164303947Y-82307691D01*
X164300797Y-82328926D01*
X164295581Y-82349750D01*
X164288349Y-82369962D01*
X164279170Y-82389368D01*
X164268134Y-82407781D01*
X164255346Y-82425024D01*
X164240930Y-82440930D01*
X164225024Y-82455346D01*
X164207781Y-82468134D01*
X164189368Y-82479170D01*
X164169962Y-82488349D01*
X164149750Y-82495581D01*
X164128926Y-82500797D01*
X164107691Y-82503947D01*
X164086250Y-82505000D01*
X163573750Y-82505000D01*
X163552309Y-82503947D01*
X163531074Y-82500797D01*
X163510250Y-82495581D01*
X163490038Y-82488349D01*
X163470632Y-82479170D01*
X163452219Y-82468134D01*
X163434976Y-82455346D01*
X163419070Y-82440930D01*
X163404654Y-82425024D01*
X163391866Y-82407781D01*
X163380830Y-82389368D01*
X163371651Y-82369962D01*
X163364419Y-82349750D01*
X163359203Y-82328926D01*
X163356053Y-82307691D01*
X163355000Y-82286250D01*
X163355000Y-81848750D01*
X163356053Y-81827309D01*
X163359203Y-81806074D01*
X163364419Y-81785250D01*
X163371651Y-81765038D01*
X163380830Y-81745632D01*
X163391866Y-81727219D01*
X163404654Y-81709976D01*
X163419070Y-81694070D01*
X163434976Y-81679654D01*
X163452219Y-81666866D01*
X163470632Y-81655830D01*
X163490038Y-81646651D01*
X163510250Y-81639419D01*
X163531074Y-81634203D01*
X163552309Y-81631053D01*
X163573750Y-81630000D01*
X164086250Y-81630000D01*
X164107691Y-81631053D01*
G37*
G36*
X164107691Y-80056053D02*
G01*
X164128926Y-80059203D01*
X164149750Y-80064419D01*
X164169962Y-80071651D01*
X164189368Y-80080830D01*
X164207781Y-80091866D01*
X164225024Y-80104654D01*
X164240930Y-80119070D01*
X164255346Y-80134976D01*
X164268134Y-80152219D01*
X164279170Y-80170632D01*
X164288349Y-80190038D01*
X164295581Y-80210250D01*
X164300797Y-80231074D01*
X164303947Y-80252309D01*
X164305000Y-80273750D01*
X164305000Y-80711250D01*
X164303947Y-80732691D01*
X164300797Y-80753926D01*
X164295581Y-80774750D01*
X164288349Y-80794962D01*
X164279170Y-80814368D01*
X164268134Y-80832781D01*
X164255346Y-80850024D01*
X164240930Y-80865930D01*
X164225024Y-80880346D01*
X164207781Y-80893134D01*
X164189368Y-80904170D01*
X164169962Y-80913349D01*
X164149750Y-80920581D01*
X164128926Y-80925797D01*
X164107691Y-80928947D01*
X164086250Y-80930000D01*
X163573750Y-80930000D01*
X163552309Y-80928947D01*
X163531074Y-80925797D01*
X163510250Y-80920581D01*
X163490038Y-80913349D01*
X163470632Y-80904170D01*
X163452219Y-80893134D01*
X163434976Y-80880346D01*
X163419070Y-80865930D01*
X163404654Y-80850024D01*
X163391866Y-80832781D01*
X163380830Y-80814368D01*
X163371651Y-80794962D01*
X163364419Y-80774750D01*
X163359203Y-80753926D01*
X163356053Y-80732691D01*
X163355000Y-80711250D01*
X163355000Y-80273750D01*
X163356053Y-80252309D01*
X163359203Y-80231074D01*
X163364419Y-80210250D01*
X163371651Y-80190038D01*
X163380830Y-80170632D01*
X163391866Y-80152219D01*
X163404654Y-80134976D01*
X163419070Y-80119070D01*
X163434976Y-80104654D01*
X163452219Y-80091866D01*
X163470632Y-80080830D01*
X163490038Y-80071651D01*
X163510250Y-80064419D01*
X163531074Y-80059203D01*
X163552309Y-80056053D01*
X163573750Y-80055000D01*
X164086250Y-80055000D01*
X164107691Y-80056053D01*
G37*
G36*
X169920902Y-95985738D02*
G01*
X169942137Y-95988888D01*
X169962961Y-95994104D01*
X169983173Y-96001336D01*
X170002579Y-96010515D01*
X170020992Y-96021551D01*
X170038235Y-96034339D01*
X170054141Y-96048755D01*
X170068557Y-96064661D01*
X170081345Y-96081904D01*
X170092381Y-96100317D01*
X170101560Y-96119723D01*
X170108792Y-96139935D01*
X170114008Y-96160759D01*
X170117158Y-96181994D01*
X170118211Y-96203435D01*
X170118211Y-96715935D01*
X170117158Y-96737376D01*
X170114008Y-96758611D01*
X170108792Y-96779435D01*
X170101560Y-96799647D01*
X170092381Y-96819053D01*
X170081345Y-96837466D01*
X170068557Y-96854709D01*
X170054141Y-96870615D01*
X170038235Y-96885031D01*
X170020992Y-96897819D01*
X170002579Y-96908855D01*
X169983173Y-96918034D01*
X169962961Y-96925266D01*
X169942137Y-96930482D01*
X169920902Y-96933632D01*
X169899461Y-96934685D01*
X169461961Y-96934685D01*
X169440520Y-96933632D01*
X169419285Y-96930482D01*
X169398461Y-96925266D01*
X169378249Y-96918034D01*
X169358843Y-96908855D01*
X169340430Y-96897819D01*
X169323187Y-96885031D01*
X169307281Y-96870615D01*
X169292865Y-96854709D01*
X169280077Y-96837466D01*
X169269041Y-96819053D01*
X169259862Y-96799647D01*
X169252630Y-96779435D01*
X169247414Y-96758611D01*
X169244264Y-96737376D01*
X169243211Y-96715935D01*
X169243211Y-96203435D01*
X169244264Y-96181994D01*
X169247414Y-96160759D01*
X169252630Y-96139935D01*
X169259862Y-96119723D01*
X169269041Y-96100317D01*
X169280077Y-96081904D01*
X169292865Y-96064661D01*
X169307281Y-96048755D01*
X169323187Y-96034339D01*
X169340430Y-96021551D01*
X169358843Y-96010515D01*
X169378249Y-96001336D01*
X169398461Y-95994104D01*
X169419285Y-95988888D01*
X169440520Y-95985738D01*
X169461961Y-95984685D01*
X169899461Y-95984685D01*
X169920902Y-95985738D01*
G37*
G36*
X168345902Y-95985738D02*
G01*
X168367137Y-95988888D01*
X168387961Y-95994104D01*
X168408173Y-96001336D01*
X168427579Y-96010515D01*
X168445992Y-96021551D01*
X168463235Y-96034339D01*
X168479141Y-96048755D01*
X168493557Y-96064661D01*
X168506345Y-96081904D01*
X168517381Y-96100317D01*
X168526560Y-96119723D01*
X168533792Y-96139935D01*
X168539008Y-96160759D01*
X168542158Y-96181994D01*
X168543211Y-96203435D01*
X168543211Y-96715935D01*
X168542158Y-96737376D01*
X168539008Y-96758611D01*
X168533792Y-96779435D01*
X168526560Y-96799647D01*
X168517381Y-96819053D01*
X168506345Y-96837466D01*
X168493557Y-96854709D01*
X168479141Y-96870615D01*
X168463235Y-96885031D01*
X168445992Y-96897819D01*
X168427579Y-96908855D01*
X168408173Y-96918034D01*
X168387961Y-96925266D01*
X168367137Y-96930482D01*
X168345902Y-96933632D01*
X168324461Y-96934685D01*
X167886961Y-96934685D01*
X167865520Y-96933632D01*
X167844285Y-96930482D01*
X167823461Y-96925266D01*
X167803249Y-96918034D01*
X167783843Y-96908855D01*
X167765430Y-96897819D01*
X167748187Y-96885031D01*
X167732281Y-96870615D01*
X167717865Y-96854709D01*
X167705077Y-96837466D01*
X167694041Y-96819053D01*
X167684862Y-96799647D01*
X167677630Y-96779435D01*
X167672414Y-96758611D01*
X167669264Y-96737376D01*
X167668211Y-96715935D01*
X167668211Y-96203435D01*
X167669264Y-96181994D01*
X167672414Y-96160759D01*
X167677630Y-96139935D01*
X167684862Y-96119723D01*
X167694041Y-96100317D01*
X167705077Y-96081904D01*
X167717865Y-96064661D01*
X167732281Y-96048755D01*
X167748187Y-96034339D01*
X167765430Y-96021551D01*
X167783843Y-96010515D01*
X167803249Y-96001336D01*
X167823461Y-95994104D01*
X167844285Y-95988888D01*
X167865520Y-95985738D01*
X167886961Y-95984685D01*
X168324461Y-95984685D01*
X168345902Y-95985738D01*
G37*
G36*
X166185905Y-95955124D02*
G01*
X166207140Y-95958274D01*
X166227964Y-95963490D01*
X166248176Y-95970722D01*
X166267582Y-95979901D01*
X166285995Y-95990937D01*
X166303238Y-96003725D01*
X166319144Y-96018141D01*
X166333560Y-96034047D01*
X166346348Y-96051290D01*
X166357384Y-96069703D01*
X166366563Y-96089109D01*
X166373795Y-96109321D01*
X166379011Y-96130145D01*
X166382161Y-96151380D01*
X166383214Y-96172821D01*
X166383214Y-96685321D01*
X166382161Y-96706762D01*
X166379011Y-96727997D01*
X166373795Y-96748821D01*
X166366563Y-96769033D01*
X166357384Y-96788439D01*
X166346348Y-96806852D01*
X166333560Y-96824095D01*
X166319144Y-96840001D01*
X166303238Y-96854417D01*
X166285995Y-96867205D01*
X166267582Y-96878241D01*
X166248176Y-96887420D01*
X166227964Y-96894652D01*
X166207140Y-96899868D01*
X166185905Y-96903018D01*
X166164464Y-96904071D01*
X165726964Y-96904071D01*
X165705523Y-96903018D01*
X165684288Y-96899868D01*
X165663464Y-96894652D01*
X165643252Y-96887420D01*
X165623846Y-96878241D01*
X165605433Y-96867205D01*
X165588190Y-96854417D01*
X165572284Y-96840001D01*
X165557868Y-96824095D01*
X165545080Y-96806852D01*
X165534044Y-96788439D01*
X165524865Y-96769033D01*
X165517633Y-96748821D01*
X165512417Y-96727997D01*
X165509267Y-96706762D01*
X165508214Y-96685321D01*
X165508214Y-96172821D01*
X165509267Y-96151380D01*
X165512417Y-96130145D01*
X165517633Y-96109321D01*
X165524865Y-96089109D01*
X165534044Y-96069703D01*
X165545080Y-96051290D01*
X165557868Y-96034047D01*
X165572284Y-96018141D01*
X165588190Y-96003725D01*
X165605433Y-95990937D01*
X165623846Y-95979901D01*
X165643252Y-95970722D01*
X165663464Y-95963490D01*
X165684288Y-95958274D01*
X165705523Y-95955124D01*
X165726964Y-95954071D01*
X166164464Y-95954071D01*
X166185905Y-95955124D01*
G37*
G36*
X164610905Y-95955124D02*
G01*
X164632140Y-95958274D01*
X164652964Y-95963490D01*
X164673176Y-95970722D01*
X164692582Y-95979901D01*
X164710995Y-95990937D01*
X164728238Y-96003725D01*
X164744144Y-96018141D01*
X164758560Y-96034047D01*
X164771348Y-96051290D01*
X164782384Y-96069703D01*
X164791563Y-96089109D01*
X164798795Y-96109321D01*
X164804011Y-96130145D01*
X164807161Y-96151380D01*
X164808214Y-96172821D01*
X164808214Y-96685321D01*
X164807161Y-96706762D01*
X164804011Y-96727997D01*
X164798795Y-96748821D01*
X164791563Y-96769033D01*
X164782384Y-96788439D01*
X164771348Y-96806852D01*
X164758560Y-96824095D01*
X164744144Y-96840001D01*
X164728238Y-96854417D01*
X164710995Y-96867205D01*
X164692582Y-96878241D01*
X164673176Y-96887420D01*
X164652964Y-96894652D01*
X164632140Y-96899868D01*
X164610905Y-96903018D01*
X164589464Y-96904071D01*
X164151964Y-96904071D01*
X164130523Y-96903018D01*
X164109288Y-96899868D01*
X164088464Y-96894652D01*
X164068252Y-96887420D01*
X164048846Y-96878241D01*
X164030433Y-96867205D01*
X164013190Y-96854417D01*
X163997284Y-96840001D01*
X163982868Y-96824095D01*
X163970080Y-96806852D01*
X163959044Y-96788439D01*
X163949865Y-96769033D01*
X163942633Y-96748821D01*
X163937417Y-96727997D01*
X163934267Y-96706762D01*
X163933214Y-96685321D01*
X163933214Y-96172821D01*
X163934267Y-96151380D01*
X163937417Y-96130145D01*
X163942633Y-96109321D01*
X163949865Y-96089109D01*
X163959044Y-96069703D01*
X163970080Y-96051290D01*
X163982868Y-96034047D01*
X163997284Y-96018141D01*
X164013190Y-96003725D01*
X164030433Y-95990937D01*
X164048846Y-95979901D01*
X164068252Y-95970722D01*
X164088464Y-95963490D01*
X164109288Y-95958274D01*
X164130523Y-95955124D01*
X164151964Y-95954071D01*
X164589464Y-95954071D01*
X164610905Y-95955124D01*
G37*
G36*
X162317691Y-101126053D02*
G01*
X162338926Y-101129203D01*
X162359750Y-101134419D01*
X162379962Y-101141651D01*
X162399368Y-101150830D01*
X162417781Y-101161866D01*
X162435024Y-101174654D01*
X162450930Y-101189070D01*
X162465346Y-101204976D01*
X162478134Y-101222219D01*
X162489170Y-101240632D01*
X162498349Y-101260038D01*
X162505581Y-101280250D01*
X162510797Y-101301074D01*
X162513947Y-101322309D01*
X162515000Y-101343750D01*
X162515000Y-101856250D01*
X162513947Y-101877691D01*
X162510797Y-101898926D01*
X162505581Y-101919750D01*
X162498349Y-101939962D01*
X162489170Y-101959368D01*
X162478134Y-101977781D01*
X162465346Y-101995024D01*
X162450930Y-102010930D01*
X162435024Y-102025346D01*
X162417781Y-102038134D01*
X162399368Y-102049170D01*
X162379962Y-102058349D01*
X162359750Y-102065581D01*
X162338926Y-102070797D01*
X162317691Y-102073947D01*
X162296250Y-102075000D01*
X161858750Y-102075000D01*
X161837309Y-102073947D01*
X161816074Y-102070797D01*
X161795250Y-102065581D01*
X161775038Y-102058349D01*
X161755632Y-102049170D01*
X161737219Y-102038134D01*
X161719976Y-102025346D01*
X161704070Y-102010930D01*
X161689654Y-101995024D01*
X161676866Y-101977781D01*
X161665830Y-101959368D01*
X161656651Y-101939962D01*
X161649419Y-101919750D01*
X161644203Y-101898926D01*
X161641053Y-101877691D01*
X161640000Y-101856250D01*
X161640000Y-101343750D01*
X161641053Y-101322309D01*
X161644203Y-101301074D01*
X161649419Y-101280250D01*
X161656651Y-101260038D01*
X161665830Y-101240632D01*
X161676866Y-101222219D01*
X161689654Y-101204976D01*
X161704070Y-101189070D01*
X161719976Y-101174654D01*
X161737219Y-101161866D01*
X161755632Y-101150830D01*
X161775038Y-101141651D01*
X161795250Y-101134419D01*
X161816074Y-101129203D01*
X161837309Y-101126053D01*
X161858750Y-101125000D01*
X162296250Y-101125000D01*
X162317691Y-101126053D01*
G37*
G36*
X160742691Y-101126053D02*
G01*
X160763926Y-101129203D01*
X160784750Y-101134419D01*
X160804962Y-101141651D01*
X160824368Y-101150830D01*
X160842781Y-101161866D01*
X160860024Y-101174654D01*
X160875930Y-101189070D01*
X160890346Y-101204976D01*
X160903134Y-101222219D01*
X160914170Y-101240632D01*
X160923349Y-101260038D01*
X160930581Y-101280250D01*
X160935797Y-101301074D01*
X160938947Y-101322309D01*
X160940000Y-101343750D01*
X160940000Y-101856250D01*
X160938947Y-101877691D01*
X160935797Y-101898926D01*
X160930581Y-101919750D01*
X160923349Y-101939962D01*
X160914170Y-101959368D01*
X160903134Y-101977781D01*
X160890346Y-101995024D01*
X160875930Y-102010930D01*
X160860024Y-102025346D01*
X160842781Y-102038134D01*
X160824368Y-102049170D01*
X160804962Y-102058349D01*
X160784750Y-102065581D01*
X160763926Y-102070797D01*
X160742691Y-102073947D01*
X160721250Y-102075000D01*
X160283750Y-102075000D01*
X160262309Y-102073947D01*
X160241074Y-102070797D01*
X160220250Y-102065581D01*
X160200038Y-102058349D01*
X160180632Y-102049170D01*
X160162219Y-102038134D01*
X160144976Y-102025346D01*
X160129070Y-102010930D01*
X160114654Y-101995024D01*
X160101866Y-101977781D01*
X160090830Y-101959368D01*
X160081651Y-101939962D01*
X160074419Y-101919750D01*
X160069203Y-101898926D01*
X160066053Y-101877691D01*
X160065000Y-101856250D01*
X160065000Y-101343750D01*
X160066053Y-101322309D01*
X160069203Y-101301074D01*
X160074419Y-101280250D01*
X160081651Y-101260038D01*
X160090830Y-101240632D01*
X160101866Y-101222219D01*
X160114654Y-101204976D01*
X160129070Y-101189070D01*
X160144976Y-101174654D01*
X160162219Y-101161866D01*
X160180632Y-101150830D01*
X160200038Y-101141651D01*
X160220250Y-101134419D01*
X160241074Y-101129203D01*
X160262309Y-101126053D01*
X160283750Y-101125000D01*
X160721250Y-101125000D01*
X160742691Y-101126053D01*
G37*
G36*
X162317691Y-106206053D02*
G01*
X162338926Y-106209203D01*
X162359750Y-106214419D01*
X162379962Y-106221651D01*
X162399368Y-106230830D01*
X162417781Y-106241866D01*
X162435024Y-106254654D01*
X162450930Y-106269070D01*
X162465346Y-106284976D01*
X162478134Y-106302219D01*
X162489170Y-106320632D01*
X162498349Y-106340038D01*
X162505581Y-106360250D01*
X162510797Y-106381074D01*
X162513947Y-106402309D01*
X162515000Y-106423750D01*
X162515000Y-106936250D01*
X162513947Y-106957691D01*
X162510797Y-106978926D01*
X162505581Y-106999750D01*
X162498349Y-107019962D01*
X162489170Y-107039368D01*
X162478134Y-107057781D01*
X162465346Y-107075024D01*
X162450930Y-107090930D01*
X162435024Y-107105346D01*
X162417781Y-107118134D01*
X162399368Y-107129170D01*
X162379962Y-107138349D01*
X162359750Y-107145581D01*
X162338926Y-107150797D01*
X162317691Y-107153947D01*
X162296250Y-107155000D01*
X161858750Y-107155000D01*
X161837309Y-107153947D01*
X161816074Y-107150797D01*
X161795250Y-107145581D01*
X161775038Y-107138349D01*
X161755632Y-107129170D01*
X161737219Y-107118134D01*
X161719976Y-107105346D01*
X161704070Y-107090930D01*
X161689654Y-107075024D01*
X161676866Y-107057781D01*
X161665830Y-107039368D01*
X161656651Y-107019962D01*
X161649419Y-106999750D01*
X161644203Y-106978926D01*
X161641053Y-106957691D01*
X161640000Y-106936250D01*
X161640000Y-106423750D01*
X161641053Y-106402309D01*
X161644203Y-106381074D01*
X161649419Y-106360250D01*
X161656651Y-106340038D01*
X161665830Y-106320632D01*
X161676866Y-106302219D01*
X161689654Y-106284976D01*
X161704070Y-106269070D01*
X161719976Y-106254654D01*
X161737219Y-106241866D01*
X161755632Y-106230830D01*
X161775038Y-106221651D01*
X161795250Y-106214419D01*
X161816074Y-106209203D01*
X161837309Y-106206053D01*
X161858750Y-106205000D01*
X162296250Y-106205000D01*
X162317691Y-106206053D01*
G37*
G36*
X160742691Y-106206053D02*
G01*
X160763926Y-106209203D01*
X160784750Y-106214419D01*
X160804962Y-106221651D01*
X160824368Y-106230830D01*
X160842781Y-106241866D01*
X160860024Y-106254654D01*
X160875930Y-106269070D01*
X160890346Y-106284976D01*
X160903134Y-106302219D01*
X160914170Y-106320632D01*
X160923349Y-106340038D01*
X160930581Y-106360250D01*
X160935797Y-106381074D01*
X160938947Y-106402309D01*
X160940000Y-106423750D01*
X160940000Y-106936250D01*
X160938947Y-106957691D01*
X160935797Y-106978926D01*
X160930581Y-106999750D01*
X160923349Y-107019962D01*
X160914170Y-107039368D01*
X160903134Y-107057781D01*
X160890346Y-107075024D01*
X160875930Y-107090930D01*
X160860024Y-107105346D01*
X160842781Y-107118134D01*
X160824368Y-107129170D01*
X160804962Y-107138349D01*
X160784750Y-107145581D01*
X160763926Y-107150797D01*
X160742691Y-107153947D01*
X160721250Y-107155000D01*
X160283750Y-107155000D01*
X160262309Y-107153947D01*
X160241074Y-107150797D01*
X160220250Y-107145581D01*
X160200038Y-107138349D01*
X160180632Y-107129170D01*
X160162219Y-107118134D01*
X160144976Y-107105346D01*
X160129070Y-107090930D01*
X160114654Y-107075024D01*
X160101866Y-107057781D01*
X160090830Y-107039368D01*
X160081651Y-107019962D01*
X160074419Y-106999750D01*
X160069203Y-106978926D01*
X160066053Y-106957691D01*
X160065000Y-106936250D01*
X160065000Y-106423750D01*
X160066053Y-106402309D01*
X160069203Y-106381074D01*
X160074419Y-106360250D01*
X160081651Y-106340038D01*
X160090830Y-106320632D01*
X160101866Y-106302219D01*
X160114654Y-106284976D01*
X160129070Y-106269070D01*
X160144976Y-106254654D01*
X160162219Y-106241866D01*
X160180632Y-106230830D01*
X160200038Y-106221651D01*
X160220250Y-106214419D01*
X160241074Y-106209203D01*
X160262309Y-106206053D01*
X160283750Y-106205000D01*
X160721250Y-106205000D01*
X160742691Y-106206053D01*
G37*
G36*
X149312691Y-101126053D02*
G01*
X149333926Y-101129203D01*
X149354750Y-101134419D01*
X149374962Y-101141651D01*
X149394368Y-101150830D01*
X149412781Y-101161866D01*
X149430024Y-101174654D01*
X149445930Y-101189070D01*
X149460346Y-101204976D01*
X149473134Y-101222219D01*
X149484170Y-101240632D01*
X149493349Y-101260038D01*
X149500581Y-101280250D01*
X149505797Y-101301074D01*
X149508947Y-101322309D01*
X149510000Y-101343750D01*
X149510000Y-101856250D01*
X149508947Y-101877691D01*
X149505797Y-101898926D01*
X149500581Y-101919750D01*
X149493349Y-101939962D01*
X149484170Y-101959368D01*
X149473134Y-101977781D01*
X149460346Y-101995024D01*
X149445930Y-102010930D01*
X149430024Y-102025346D01*
X149412781Y-102038134D01*
X149394368Y-102049170D01*
X149374962Y-102058349D01*
X149354750Y-102065581D01*
X149333926Y-102070797D01*
X149312691Y-102073947D01*
X149291250Y-102075000D01*
X148853750Y-102075000D01*
X148832309Y-102073947D01*
X148811074Y-102070797D01*
X148790250Y-102065581D01*
X148770038Y-102058349D01*
X148750632Y-102049170D01*
X148732219Y-102038134D01*
X148714976Y-102025346D01*
X148699070Y-102010930D01*
X148684654Y-101995024D01*
X148671866Y-101977781D01*
X148660830Y-101959368D01*
X148651651Y-101939962D01*
X148644419Y-101919750D01*
X148639203Y-101898926D01*
X148636053Y-101877691D01*
X148635000Y-101856250D01*
X148635000Y-101343750D01*
X148636053Y-101322309D01*
X148639203Y-101301074D01*
X148644419Y-101280250D01*
X148651651Y-101260038D01*
X148660830Y-101240632D01*
X148671866Y-101222219D01*
X148684654Y-101204976D01*
X148699070Y-101189070D01*
X148714976Y-101174654D01*
X148732219Y-101161866D01*
X148750632Y-101150830D01*
X148770038Y-101141651D01*
X148790250Y-101134419D01*
X148811074Y-101129203D01*
X148832309Y-101126053D01*
X148853750Y-101125000D01*
X149291250Y-101125000D01*
X149312691Y-101126053D01*
G37*
G36*
X150887691Y-101126053D02*
G01*
X150908926Y-101129203D01*
X150929750Y-101134419D01*
X150949962Y-101141651D01*
X150969368Y-101150830D01*
X150987781Y-101161866D01*
X151005024Y-101174654D01*
X151020930Y-101189070D01*
X151035346Y-101204976D01*
X151048134Y-101222219D01*
X151059170Y-101240632D01*
X151068349Y-101260038D01*
X151075581Y-101280250D01*
X151080797Y-101301074D01*
X151083947Y-101322309D01*
X151085000Y-101343750D01*
X151085000Y-101856250D01*
X151083947Y-101877691D01*
X151080797Y-101898926D01*
X151075581Y-101919750D01*
X151068349Y-101939962D01*
X151059170Y-101959368D01*
X151048134Y-101977781D01*
X151035346Y-101995024D01*
X151020930Y-102010930D01*
X151005024Y-102025346D01*
X150987781Y-102038134D01*
X150969368Y-102049170D01*
X150949962Y-102058349D01*
X150929750Y-102065581D01*
X150908926Y-102070797D01*
X150887691Y-102073947D01*
X150866250Y-102075000D01*
X150428750Y-102075000D01*
X150407309Y-102073947D01*
X150386074Y-102070797D01*
X150365250Y-102065581D01*
X150345038Y-102058349D01*
X150325632Y-102049170D01*
X150307219Y-102038134D01*
X150289976Y-102025346D01*
X150274070Y-102010930D01*
X150259654Y-101995024D01*
X150246866Y-101977781D01*
X150235830Y-101959368D01*
X150226651Y-101939962D01*
X150219419Y-101919750D01*
X150214203Y-101898926D01*
X150211053Y-101877691D01*
X150210000Y-101856250D01*
X150210000Y-101343750D01*
X150211053Y-101322309D01*
X150214203Y-101301074D01*
X150219419Y-101280250D01*
X150226651Y-101260038D01*
X150235830Y-101240632D01*
X150246866Y-101222219D01*
X150259654Y-101204976D01*
X150274070Y-101189070D01*
X150289976Y-101174654D01*
X150307219Y-101161866D01*
X150325632Y-101150830D01*
X150345038Y-101141651D01*
X150365250Y-101134419D01*
X150386074Y-101129203D01*
X150407309Y-101126053D01*
X150428750Y-101125000D01*
X150866250Y-101125000D01*
X150887691Y-101126053D01*
G37*
G36*
X149312691Y-92236053D02*
G01*
X149333926Y-92239203D01*
X149354750Y-92244419D01*
X149374962Y-92251651D01*
X149394368Y-92260830D01*
X149412781Y-92271866D01*
X149430024Y-92284654D01*
X149445930Y-92299070D01*
X149460346Y-92314976D01*
X149473134Y-92332219D01*
X149484170Y-92350632D01*
X149493349Y-92370038D01*
X149500581Y-92390250D01*
X149505797Y-92411074D01*
X149508947Y-92432309D01*
X149510000Y-92453750D01*
X149510000Y-92966250D01*
X149508947Y-92987691D01*
X149505797Y-93008926D01*
X149500581Y-93029750D01*
X149493349Y-93049962D01*
X149484170Y-93069368D01*
X149473134Y-93087781D01*
X149460346Y-93105024D01*
X149445930Y-93120930D01*
X149430024Y-93135346D01*
X149412781Y-93148134D01*
X149394368Y-93159170D01*
X149374962Y-93168349D01*
X149354750Y-93175581D01*
X149333926Y-93180797D01*
X149312691Y-93183947D01*
X149291250Y-93185000D01*
X148853750Y-93185000D01*
X148832309Y-93183947D01*
X148811074Y-93180797D01*
X148790250Y-93175581D01*
X148770038Y-93168349D01*
X148750632Y-93159170D01*
X148732219Y-93148134D01*
X148714976Y-93135346D01*
X148699070Y-93120930D01*
X148684654Y-93105024D01*
X148671866Y-93087781D01*
X148660830Y-93069368D01*
X148651651Y-93049962D01*
X148644419Y-93029750D01*
X148639203Y-93008926D01*
X148636053Y-92987691D01*
X148635000Y-92966250D01*
X148635000Y-92453750D01*
X148636053Y-92432309D01*
X148639203Y-92411074D01*
X148644419Y-92390250D01*
X148651651Y-92370038D01*
X148660830Y-92350632D01*
X148671866Y-92332219D01*
X148684654Y-92314976D01*
X148699070Y-92299070D01*
X148714976Y-92284654D01*
X148732219Y-92271866D01*
X148750632Y-92260830D01*
X148770038Y-92251651D01*
X148790250Y-92244419D01*
X148811074Y-92239203D01*
X148832309Y-92236053D01*
X148853750Y-92235000D01*
X149291250Y-92235000D01*
X149312691Y-92236053D01*
G37*
G36*
X150887691Y-92236053D02*
G01*
X150908926Y-92239203D01*
X150929750Y-92244419D01*
X150949962Y-92251651D01*
X150969368Y-92260830D01*
X150987781Y-92271866D01*
X151005024Y-92284654D01*
X151020930Y-92299070D01*
X151035346Y-92314976D01*
X151048134Y-92332219D01*
X151059170Y-92350632D01*
X151068349Y-92370038D01*
X151075581Y-92390250D01*
X151080797Y-92411074D01*
X151083947Y-92432309D01*
X151085000Y-92453750D01*
X151085000Y-92966250D01*
X151083947Y-92987691D01*
X151080797Y-93008926D01*
X151075581Y-93029750D01*
X151068349Y-93049962D01*
X151059170Y-93069368D01*
X151048134Y-93087781D01*
X151035346Y-93105024D01*
X151020930Y-93120930D01*
X151005024Y-93135346D01*
X150987781Y-93148134D01*
X150969368Y-93159170D01*
X150949962Y-93168349D01*
X150929750Y-93175581D01*
X150908926Y-93180797D01*
X150887691Y-93183947D01*
X150866250Y-93185000D01*
X150428750Y-93185000D01*
X150407309Y-93183947D01*
X150386074Y-93180797D01*
X150365250Y-93175581D01*
X150345038Y-93168349D01*
X150325632Y-93159170D01*
X150307219Y-93148134D01*
X150289976Y-93135346D01*
X150274070Y-93120930D01*
X150259654Y-93105024D01*
X150246866Y-93087781D01*
X150235830Y-93069368D01*
X150226651Y-93049962D01*
X150219419Y-93029750D01*
X150214203Y-93008926D01*
X150211053Y-92987691D01*
X150210000Y-92966250D01*
X150210000Y-92453750D01*
X150211053Y-92432309D01*
X150214203Y-92411074D01*
X150219419Y-92390250D01*
X150226651Y-92370038D01*
X150235830Y-92350632D01*
X150246866Y-92332219D01*
X150259654Y-92314976D01*
X150274070Y-92299070D01*
X150289976Y-92284654D01*
X150307219Y-92271866D01*
X150325632Y-92260830D01*
X150345038Y-92251651D01*
X150365250Y-92244419D01*
X150386074Y-92239203D01*
X150407309Y-92236053D01*
X150428750Y-92235000D01*
X150866250Y-92235000D01*
X150887691Y-92236053D01*
G37*
G36*
X149312691Y-87156053D02*
G01*
X149333926Y-87159203D01*
X149354750Y-87164419D01*
X149374962Y-87171651D01*
X149394368Y-87180830D01*
X149412781Y-87191866D01*
X149430024Y-87204654D01*
X149445930Y-87219070D01*
X149460346Y-87234976D01*
X149473134Y-87252219D01*
X149484170Y-87270632D01*
X149493349Y-87290038D01*
X149500581Y-87310250D01*
X149505797Y-87331074D01*
X149508947Y-87352309D01*
X149510000Y-87373750D01*
X149510000Y-87886250D01*
X149508947Y-87907691D01*
X149505797Y-87928926D01*
X149500581Y-87949750D01*
X149493349Y-87969962D01*
X149484170Y-87989368D01*
X149473134Y-88007781D01*
X149460346Y-88025024D01*
X149445930Y-88040930D01*
X149430024Y-88055346D01*
X149412781Y-88068134D01*
X149394368Y-88079170D01*
X149374962Y-88088349D01*
X149354750Y-88095581D01*
X149333926Y-88100797D01*
X149312691Y-88103947D01*
X149291250Y-88105000D01*
X148853750Y-88105000D01*
X148832309Y-88103947D01*
X148811074Y-88100797D01*
X148790250Y-88095581D01*
X148770038Y-88088349D01*
X148750632Y-88079170D01*
X148732219Y-88068134D01*
X148714976Y-88055346D01*
X148699070Y-88040930D01*
X148684654Y-88025024D01*
X148671866Y-88007781D01*
X148660830Y-87989368D01*
X148651651Y-87969962D01*
X148644419Y-87949750D01*
X148639203Y-87928926D01*
X148636053Y-87907691D01*
X148635000Y-87886250D01*
X148635000Y-87373750D01*
X148636053Y-87352309D01*
X148639203Y-87331074D01*
X148644419Y-87310250D01*
X148651651Y-87290038D01*
X148660830Y-87270632D01*
X148671866Y-87252219D01*
X148684654Y-87234976D01*
X148699070Y-87219070D01*
X148714976Y-87204654D01*
X148732219Y-87191866D01*
X148750632Y-87180830D01*
X148770038Y-87171651D01*
X148790250Y-87164419D01*
X148811074Y-87159203D01*
X148832309Y-87156053D01*
X148853750Y-87155000D01*
X149291250Y-87155000D01*
X149312691Y-87156053D01*
G37*
G36*
X150887691Y-87156053D02*
G01*
X150908926Y-87159203D01*
X150929750Y-87164419D01*
X150949962Y-87171651D01*
X150969368Y-87180830D01*
X150987781Y-87191866D01*
X151005024Y-87204654D01*
X151020930Y-87219070D01*
X151035346Y-87234976D01*
X151048134Y-87252219D01*
X151059170Y-87270632D01*
X151068349Y-87290038D01*
X151075581Y-87310250D01*
X151080797Y-87331074D01*
X151083947Y-87352309D01*
X151085000Y-87373750D01*
X151085000Y-87886250D01*
X151083947Y-87907691D01*
X151080797Y-87928926D01*
X151075581Y-87949750D01*
X151068349Y-87969962D01*
X151059170Y-87989368D01*
X151048134Y-88007781D01*
X151035346Y-88025024D01*
X151020930Y-88040930D01*
X151005024Y-88055346D01*
X150987781Y-88068134D01*
X150969368Y-88079170D01*
X150949962Y-88088349D01*
X150929750Y-88095581D01*
X150908926Y-88100797D01*
X150887691Y-88103947D01*
X150866250Y-88105000D01*
X150428750Y-88105000D01*
X150407309Y-88103947D01*
X150386074Y-88100797D01*
X150365250Y-88095581D01*
X150345038Y-88088349D01*
X150325632Y-88079170D01*
X150307219Y-88068134D01*
X150289976Y-88055346D01*
X150274070Y-88040930D01*
X150259654Y-88025024D01*
X150246866Y-88007781D01*
X150235830Y-87989368D01*
X150226651Y-87969962D01*
X150219419Y-87949750D01*
X150214203Y-87928926D01*
X150211053Y-87907691D01*
X150210000Y-87886250D01*
X150210000Y-87373750D01*
X150211053Y-87352309D01*
X150214203Y-87331074D01*
X150219419Y-87310250D01*
X150226651Y-87290038D01*
X150235830Y-87270632D01*
X150246866Y-87252219D01*
X150259654Y-87234976D01*
X150274070Y-87219070D01*
X150289976Y-87204654D01*
X150307219Y-87191866D01*
X150325632Y-87180830D01*
X150345038Y-87171651D01*
X150365250Y-87164419D01*
X150386074Y-87159203D01*
X150407309Y-87156053D01*
X150428750Y-87155000D01*
X150866250Y-87155000D01*
X150887691Y-87156053D01*
G37*
G36*
X149312691Y-97316053D02*
G01*
X149333926Y-97319203D01*
X149354750Y-97324419D01*
X149374962Y-97331651D01*
X149394368Y-97340830D01*
X149412781Y-97351866D01*
X149430024Y-97364654D01*
X149445930Y-97379070D01*
X149460346Y-97394976D01*
X149473134Y-97412219D01*
X149484170Y-97430632D01*
X149493349Y-97450038D01*
X149500581Y-97470250D01*
X149505797Y-97491074D01*
X149508947Y-97512309D01*
X149510000Y-97533750D01*
X149510000Y-98046250D01*
X149508947Y-98067691D01*
X149505797Y-98088926D01*
X149500581Y-98109750D01*
X149493349Y-98129962D01*
X149484170Y-98149368D01*
X149473134Y-98167781D01*
X149460346Y-98185024D01*
X149445930Y-98200930D01*
X149430024Y-98215346D01*
X149412781Y-98228134D01*
X149394368Y-98239170D01*
X149374962Y-98248349D01*
X149354750Y-98255581D01*
X149333926Y-98260797D01*
X149312691Y-98263947D01*
X149291250Y-98265000D01*
X148853750Y-98265000D01*
X148832309Y-98263947D01*
X148811074Y-98260797D01*
X148790250Y-98255581D01*
X148770038Y-98248349D01*
X148750632Y-98239170D01*
X148732219Y-98228134D01*
X148714976Y-98215346D01*
X148699070Y-98200930D01*
X148684654Y-98185024D01*
X148671866Y-98167781D01*
X148660830Y-98149368D01*
X148651651Y-98129962D01*
X148644419Y-98109750D01*
X148639203Y-98088926D01*
X148636053Y-98067691D01*
X148635000Y-98046250D01*
X148635000Y-97533750D01*
X148636053Y-97512309D01*
X148639203Y-97491074D01*
X148644419Y-97470250D01*
X148651651Y-97450038D01*
X148660830Y-97430632D01*
X148671866Y-97412219D01*
X148684654Y-97394976D01*
X148699070Y-97379070D01*
X148714976Y-97364654D01*
X148732219Y-97351866D01*
X148750632Y-97340830D01*
X148770038Y-97331651D01*
X148790250Y-97324419D01*
X148811074Y-97319203D01*
X148832309Y-97316053D01*
X148853750Y-97315000D01*
X149291250Y-97315000D01*
X149312691Y-97316053D01*
G37*
G36*
X150887691Y-97316053D02*
G01*
X150908926Y-97319203D01*
X150929750Y-97324419D01*
X150949962Y-97331651D01*
X150969368Y-97340830D01*
X150987781Y-97351866D01*
X151005024Y-97364654D01*
X151020930Y-97379070D01*
X151035346Y-97394976D01*
X151048134Y-97412219D01*
X151059170Y-97430632D01*
X151068349Y-97450038D01*
X151075581Y-97470250D01*
X151080797Y-97491074D01*
X151083947Y-97512309D01*
X151085000Y-97533750D01*
X151085000Y-98046250D01*
X151083947Y-98067691D01*
X151080797Y-98088926D01*
X151075581Y-98109750D01*
X151068349Y-98129962D01*
X151059170Y-98149368D01*
X151048134Y-98167781D01*
X151035346Y-98185024D01*
X151020930Y-98200930D01*
X151005024Y-98215346D01*
X150987781Y-98228134D01*
X150969368Y-98239170D01*
X150949962Y-98248349D01*
X150929750Y-98255581D01*
X150908926Y-98260797D01*
X150887691Y-98263947D01*
X150866250Y-98265000D01*
X150428750Y-98265000D01*
X150407309Y-98263947D01*
X150386074Y-98260797D01*
X150365250Y-98255581D01*
X150345038Y-98248349D01*
X150325632Y-98239170D01*
X150307219Y-98228134D01*
X150289976Y-98215346D01*
X150274070Y-98200930D01*
X150259654Y-98185024D01*
X150246866Y-98167781D01*
X150235830Y-98149368D01*
X150226651Y-98129962D01*
X150219419Y-98109750D01*
X150214203Y-98088926D01*
X150211053Y-98067691D01*
X150210000Y-98046250D01*
X150210000Y-97533750D01*
X150211053Y-97512309D01*
X150214203Y-97491074D01*
X150219419Y-97470250D01*
X150226651Y-97450038D01*
X150235830Y-97430632D01*
X150246866Y-97412219D01*
X150259654Y-97394976D01*
X150274070Y-97379070D01*
X150289976Y-97364654D01*
X150307219Y-97351866D01*
X150325632Y-97340830D01*
X150345038Y-97331651D01*
X150365250Y-97324419D01*
X150386074Y-97319203D01*
X150407309Y-97316053D01*
X150428750Y-97315000D01*
X150866250Y-97315000D01*
X150887691Y-97316053D01*
G37*
G36*
X160742691Y-73186053D02*
G01*
X160763926Y-73189203D01*
X160784750Y-73194419D01*
X160804962Y-73201651D01*
X160824368Y-73210830D01*
X160842781Y-73221866D01*
X160860024Y-73234654D01*
X160875930Y-73249070D01*
X160890346Y-73264976D01*
X160903134Y-73282219D01*
X160914170Y-73300632D01*
X160923349Y-73320038D01*
X160930581Y-73340250D01*
X160935797Y-73361074D01*
X160938947Y-73382309D01*
X160940000Y-73403750D01*
X160940000Y-73916250D01*
X160938947Y-73937691D01*
X160935797Y-73958926D01*
X160930581Y-73979750D01*
X160923349Y-73999962D01*
X160914170Y-74019368D01*
X160903134Y-74037781D01*
X160890346Y-74055024D01*
X160875930Y-74070930D01*
X160860024Y-74085346D01*
X160842781Y-74098134D01*
X160824368Y-74109170D01*
X160804962Y-74118349D01*
X160784750Y-74125581D01*
X160763926Y-74130797D01*
X160742691Y-74133947D01*
X160721250Y-74135000D01*
X160283750Y-74135000D01*
X160262309Y-74133947D01*
X160241074Y-74130797D01*
X160220250Y-74125581D01*
X160200038Y-74118349D01*
X160180632Y-74109170D01*
X160162219Y-74098134D01*
X160144976Y-74085346D01*
X160129070Y-74070930D01*
X160114654Y-74055024D01*
X160101866Y-74037781D01*
X160090830Y-74019368D01*
X160081651Y-73999962D01*
X160074419Y-73979750D01*
X160069203Y-73958926D01*
X160066053Y-73937691D01*
X160065000Y-73916250D01*
X160065000Y-73403750D01*
X160066053Y-73382309D01*
X160069203Y-73361074D01*
X160074419Y-73340250D01*
X160081651Y-73320038D01*
X160090830Y-73300632D01*
X160101866Y-73282219D01*
X160114654Y-73264976D01*
X160129070Y-73249070D01*
X160144976Y-73234654D01*
X160162219Y-73221866D01*
X160180632Y-73210830D01*
X160200038Y-73201651D01*
X160220250Y-73194419D01*
X160241074Y-73189203D01*
X160262309Y-73186053D01*
X160283750Y-73185000D01*
X160721250Y-73185000D01*
X160742691Y-73186053D01*
G37*
G36*
X162317691Y-73186053D02*
G01*
X162338926Y-73189203D01*
X162359750Y-73194419D01*
X162379962Y-73201651D01*
X162399368Y-73210830D01*
X162417781Y-73221866D01*
X162435024Y-73234654D01*
X162450930Y-73249070D01*
X162465346Y-73264976D01*
X162478134Y-73282219D01*
X162489170Y-73300632D01*
X162498349Y-73320038D01*
X162505581Y-73340250D01*
X162510797Y-73361074D01*
X162513947Y-73382309D01*
X162515000Y-73403750D01*
X162515000Y-73916250D01*
X162513947Y-73937691D01*
X162510797Y-73958926D01*
X162505581Y-73979750D01*
X162498349Y-73999962D01*
X162489170Y-74019368D01*
X162478134Y-74037781D01*
X162465346Y-74055024D01*
X162450930Y-74070930D01*
X162435024Y-74085346D01*
X162417781Y-74098134D01*
X162399368Y-74109170D01*
X162379962Y-74118349D01*
X162359750Y-74125581D01*
X162338926Y-74130797D01*
X162317691Y-74133947D01*
X162296250Y-74135000D01*
X161858750Y-74135000D01*
X161837309Y-74133947D01*
X161816074Y-74130797D01*
X161795250Y-74125581D01*
X161775038Y-74118349D01*
X161755632Y-74109170D01*
X161737219Y-74098134D01*
X161719976Y-74085346D01*
X161704070Y-74070930D01*
X161689654Y-74055024D01*
X161676866Y-74037781D01*
X161665830Y-74019368D01*
X161656651Y-73999962D01*
X161649419Y-73979750D01*
X161644203Y-73958926D01*
X161641053Y-73937691D01*
X161640000Y-73916250D01*
X161640000Y-73403750D01*
X161641053Y-73382309D01*
X161644203Y-73361074D01*
X161649419Y-73340250D01*
X161656651Y-73320038D01*
X161665830Y-73300632D01*
X161676866Y-73282219D01*
X161689654Y-73264976D01*
X161704070Y-73249070D01*
X161719976Y-73234654D01*
X161737219Y-73221866D01*
X161755632Y-73210830D01*
X161775038Y-73201651D01*
X161795250Y-73194419D01*
X161816074Y-73189203D01*
X161837309Y-73186053D01*
X161858750Y-73185000D01*
X162296250Y-73185000D01*
X162317691Y-73186053D01*
G37*
G36*
X149312691Y-82076053D02*
G01*
X149333926Y-82079203D01*
X149354750Y-82084419D01*
X149374962Y-82091651D01*
X149394368Y-82100830D01*
X149412781Y-82111866D01*
X149430024Y-82124654D01*
X149445930Y-82139070D01*
X149460346Y-82154976D01*
X149473134Y-82172219D01*
X149484170Y-82190632D01*
X149493349Y-82210038D01*
X149500581Y-82230250D01*
X149505797Y-82251074D01*
X149508947Y-82272309D01*
X149510000Y-82293750D01*
X149510000Y-82806250D01*
X149508947Y-82827691D01*
X149505797Y-82848926D01*
X149500581Y-82869750D01*
X149493349Y-82889962D01*
X149484170Y-82909368D01*
X149473134Y-82927781D01*
X149460346Y-82945024D01*
X149445930Y-82960930D01*
X149430024Y-82975346D01*
X149412781Y-82988134D01*
X149394368Y-82999170D01*
X149374962Y-83008349D01*
X149354750Y-83015581D01*
X149333926Y-83020797D01*
X149312691Y-83023947D01*
X149291250Y-83025000D01*
X148853750Y-83025000D01*
X148832309Y-83023947D01*
X148811074Y-83020797D01*
X148790250Y-83015581D01*
X148770038Y-83008349D01*
X148750632Y-82999170D01*
X148732219Y-82988134D01*
X148714976Y-82975346D01*
X148699070Y-82960930D01*
X148684654Y-82945024D01*
X148671866Y-82927781D01*
X148660830Y-82909368D01*
X148651651Y-82889962D01*
X148644419Y-82869750D01*
X148639203Y-82848926D01*
X148636053Y-82827691D01*
X148635000Y-82806250D01*
X148635000Y-82293750D01*
X148636053Y-82272309D01*
X148639203Y-82251074D01*
X148644419Y-82230250D01*
X148651651Y-82210038D01*
X148660830Y-82190632D01*
X148671866Y-82172219D01*
X148684654Y-82154976D01*
X148699070Y-82139070D01*
X148714976Y-82124654D01*
X148732219Y-82111866D01*
X148750632Y-82100830D01*
X148770038Y-82091651D01*
X148790250Y-82084419D01*
X148811074Y-82079203D01*
X148832309Y-82076053D01*
X148853750Y-82075000D01*
X149291250Y-82075000D01*
X149312691Y-82076053D01*
G37*
G36*
X150887691Y-82076053D02*
G01*
X150908926Y-82079203D01*
X150929750Y-82084419D01*
X150949962Y-82091651D01*
X150969368Y-82100830D01*
X150987781Y-82111866D01*
X151005024Y-82124654D01*
X151020930Y-82139070D01*
X151035346Y-82154976D01*
X151048134Y-82172219D01*
X151059170Y-82190632D01*
X151068349Y-82210038D01*
X151075581Y-82230250D01*
X151080797Y-82251074D01*
X151083947Y-82272309D01*
X151085000Y-82293750D01*
X151085000Y-82806250D01*
X151083947Y-82827691D01*
X151080797Y-82848926D01*
X151075581Y-82869750D01*
X151068349Y-82889962D01*
X151059170Y-82909368D01*
X151048134Y-82927781D01*
X151035346Y-82945024D01*
X151020930Y-82960930D01*
X151005024Y-82975346D01*
X150987781Y-82988134D01*
X150969368Y-82999170D01*
X150949962Y-83008349D01*
X150929750Y-83015581D01*
X150908926Y-83020797D01*
X150887691Y-83023947D01*
X150866250Y-83025000D01*
X150428750Y-83025000D01*
X150407309Y-83023947D01*
X150386074Y-83020797D01*
X150365250Y-83015581D01*
X150345038Y-83008349D01*
X150325632Y-82999170D01*
X150307219Y-82988134D01*
X150289976Y-82975346D01*
X150274070Y-82960930D01*
X150259654Y-82945024D01*
X150246866Y-82927781D01*
X150235830Y-82909368D01*
X150226651Y-82889962D01*
X150219419Y-82869750D01*
X150214203Y-82848926D01*
X150211053Y-82827691D01*
X150210000Y-82806250D01*
X150210000Y-82293750D01*
X150211053Y-82272309D01*
X150214203Y-82251074D01*
X150219419Y-82230250D01*
X150226651Y-82210038D01*
X150235830Y-82190632D01*
X150246866Y-82172219D01*
X150259654Y-82154976D01*
X150274070Y-82139070D01*
X150289976Y-82124654D01*
X150307219Y-82111866D01*
X150325632Y-82100830D01*
X150345038Y-82091651D01*
X150365250Y-82084419D01*
X150386074Y-82079203D01*
X150407309Y-82076053D01*
X150428750Y-82075000D01*
X150866250Y-82075000D01*
X150887691Y-82076053D01*
G37*
G36*
X156932691Y-73186053D02*
G01*
X156953926Y-73189203D01*
X156974750Y-73194419D01*
X156994962Y-73201651D01*
X157014368Y-73210830D01*
X157032781Y-73221866D01*
X157050024Y-73234654D01*
X157065930Y-73249070D01*
X157080346Y-73264976D01*
X157093134Y-73282219D01*
X157104170Y-73300632D01*
X157113349Y-73320038D01*
X157120581Y-73340250D01*
X157125797Y-73361074D01*
X157128947Y-73382309D01*
X157130000Y-73403750D01*
X157130000Y-73916250D01*
X157128947Y-73937691D01*
X157125797Y-73958926D01*
X157120581Y-73979750D01*
X157113349Y-73999962D01*
X157104170Y-74019368D01*
X157093134Y-74037781D01*
X157080346Y-74055024D01*
X157065930Y-74070930D01*
X157050024Y-74085346D01*
X157032781Y-74098134D01*
X157014368Y-74109170D01*
X156994962Y-74118349D01*
X156974750Y-74125581D01*
X156953926Y-74130797D01*
X156932691Y-74133947D01*
X156911250Y-74135000D01*
X156473750Y-74135000D01*
X156452309Y-74133947D01*
X156431074Y-74130797D01*
X156410250Y-74125581D01*
X156390038Y-74118349D01*
X156370632Y-74109170D01*
X156352219Y-74098134D01*
X156334976Y-74085346D01*
X156319070Y-74070930D01*
X156304654Y-74055024D01*
X156291866Y-74037781D01*
X156280830Y-74019368D01*
X156271651Y-73999962D01*
X156264419Y-73979750D01*
X156259203Y-73958926D01*
X156256053Y-73937691D01*
X156255000Y-73916250D01*
X156255000Y-73403750D01*
X156256053Y-73382309D01*
X156259203Y-73361074D01*
X156264419Y-73340250D01*
X156271651Y-73320038D01*
X156280830Y-73300632D01*
X156291866Y-73282219D01*
X156304654Y-73264976D01*
X156319070Y-73249070D01*
X156334976Y-73234654D01*
X156352219Y-73221866D01*
X156370632Y-73210830D01*
X156390038Y-73201651D01*
X156410250Y-73194419D01*
X156431074Y-73189203D01*
X156452309Y-73186053D01*
X156473750Y-73185000D01*
X156911250Y-73185000D01*
X156932691Y-73186053D01*
G37*
G36*
X158507691Y-73186053D02*
G01*
X158528926Y-73189203D01*
X158549750Y-73194419D01*
X158569962Y-73201651D01*
X158589368Y-73210830D01*
X158607781Y-73221866D01*
X158625024Y-73234654D01*
X158640930Y-73249070D01*
X158655346Y-73264976D01*
X158668134Y-73282219D01*
X158679170Y-73300632D01*
X158688349Y-73320038D01*
X158695581Y-73340250D01*
X158700797Y-73361074D01*
X158703947Y-73382309D01*
X158705000Y-73403750D01*
X158705000Y-73916250D01*
X158703947Y-73937691D01*
X158700797Y-73958926D01*
X158695581Y-73979750D01*
X158688349Y-73999962D01*
X158679170Y-74019368D01*
X158668134Y-74037781D01*
X158655346Y-74055024D01*
X158640930Y-74070930D01*
X158625024Y-74085346D01*
X158607781Y-74098134D01*
X158589368Y-74109170D01*
X158569962Y-74118349D01*
X158549750Y-74125581D01*
X158528926Y-74130797D01*
X158507691Y-74133947D01*
X158486250Y-74135000D01*
X158048750Y-74135000D01*
X158027309Y-74133947D01*
X158006074Y-74130797D01*
X157985250Y-74125581D01*
X157965038Y-74118349D01*
X157945632Y-74109170D01*
X157927219Y-74098134D01*
X157909976Y-74085346D01*
X157894070Y-74070930D01*
X157879654Y-74055024D01*
X157866866Y-74037781D01*
X157855830Y-74019368D01*
X157846651Y-73999962D01*
X157839419Y-73979750D01*
X157834203Y-73958926D01*
X157831053Y-73937691D01*
X157830000Y-73916250D01*
X157830000Y-73403750D01*
X157831053Y-73382309D01*
X157834203Y-73361074D01*
X157839419Y-73340250D01*
X157846651Y-73320038D01*
X157855830Y-73300632D01*
X157866866Y-73282219D01*
X157879654Y-73264976D01*
X157894070Y-73249070D01*
X157909976Y-73234654D01*
X157927219Y-73221866D01*
X157945632Y-73210830D01*
X157965038Y-73201651D01*
X157985250Y-73194419D01*
X158006074Y-73189203D01*
X158027309Y-73186053D01*
X158048750Y-73185000D01*
X158486250Y-73185000D01*
X158507691Y-73186053D01*
G37*
G36*
X149312691Y-106206053D02*
G01*
X149333926Y-106209203D01*
X149354750Y-106214419D01*
X149374962Y-106221651D01*
X149394368Y-106230830D01*
X149412781Y-106241866D01*
X149430024Y-106254654D01*
X149445930Y-106269070D01*
X149460346Y-106284976D01*
X149473134Y-106302219D01*
X149484170Y-106320632D01*
X149493349Y-106340038D01*
X149500581Y-106360250D01*
X149505797Y-106381074D01*
X149508947Y-106402309D01*
X149510000Y-106423750D01*
X149510000Y-106936250D01*
X149508947Y-106957691D01*
X149505797Y-106978926D01*
X149500581Y-106999750D01*
X149493349Y-107019962D01*
X149484170Y-107039368D01*
X149473134Y-107057781D01*
X149460346Y-107075024D01*
X149445930Y-107090930D01*
X149430024Y-107105346D01*
X149412781Y-107118134D01*
X149394368Y-107129170D01*
X149374962Y-107138349D01*
X149354750Y-107145581D01*
X149333926Y-107150797D01*
X149312691Y-107153947D01*
X149291250Y-107155000D01*
X148853750Y-107155000D01*
X148832309Y-107153947D01*
X148811074Y-107150797D01*
X148790250Y-107145581D01*
X148770038Y-107138349D01*
X148750632Y-107129170D01*
X148732219Y-107118134D01*
X148714976Y-107105346D01*
X148699070Y-107090930D01*
X148684654Y-107075024D01*
X148671866Y-107057781D01*
X148660830Y-107039368D01*
X148651651Y-107019962D01*
X148644419Y-106999750D01*
X148639203Y-106978926D01*
X148636053Y-106957691D01*
X148635000Y-106936250D01*
X148635000Y-106423750D01*
X148636053Y-106402309D01*
X148639203Y-106381074D01*
X148644419Y-106360250D01*
X148651651Y-106340038D01*
X148660830Y-106320632D01*
X148671866Y-106302219D01*
X148684654Y-106284976D01*
X148699070Y-106269070D01*
X148714976Y-106254654D01*
X148732219Y-106241866D01*
X148750632Y-106230830D01*
X148770038Y-106221651D01*
X148790250Y-106214419D01*
X148811074Y-106209203D01*
X148832309Y-106206053D01*
X148853750Y-106205000D01*
X149291250Y-106205000D01*
X149312691Y-106206053D01*
G37*
G36*
X150887691Y-106206053D02*
G01*
X150908926Y-106209203D01*
X150929750Y-106214419D01*
X150949962Y-106221651D01*
X150969368Y-106230830D01*
X150987781Y-106241866D01*
X151005024Y-106254654D01*
X151020930Y-106269070D01*
X151035346Y-106284976D01*
X151048134Y-106302219D01*
X151059170Y-106320632D01*
X151068349Y-106340038D01*
X151075581Y-106360250D01*
X151080797Y-106381074D01*
X151083947Y-106402309D01*
X151085000Y-106423750D01*
X151085000Y-106936250D01*
X151083947Y-106957691D01*
X151080797Y-106978926D01*
X151075581Y-106999750D01*
X151068349Y-107019962D01*
X151059170Y-107039368D01*
X151048134Y-107057781D01*
X151035346Y-107075024D01*
X151020930Y-107090930D01*
X151005024Y-107105346D01*
X150987781Y-107118134D01*
X150969368Y-107129170D01*
X150949962Y-107138349D01*
X150929750Y-107145581D01*
X150908926Y-107150797D01*
X150887691Y-107153947D01*
X150866250Y-107155000D01*
X150428750Y-107155000D01*
X150407309Y-107153947D01*
X150386074Y-107150797D01*
X150365250Y-107145581D01*
X150345038Y-107138349D01*
X150325632Y-107129170D01*
X150307219Y-107118134D01*
X150289976Y-107105346D01*
X150274070Y-107090930D01*
X150259654Y-107075024D01*
X150246866Y-107057781D01*
X150235830Y-107039368D01*
X150226651Y-107019962D01*
X150219419Y-106999750D01*
X150214203Y-106978926D01*
X150211053Y-106957691D01*
X150210000Y-106936250D01*
X150210000Y-106423750D01*
X150211053Y-106402309D01*
X150214203Y-106381074D01*
X150219419Y-106360250D01*
X150226651Y-106340038D01*
X150235830Y-106320632D01*
X150246866Y-106302219D01*
X150259654Y-106284976D01*
X150274070Y-106269070D01*
X150289976Y-106254654D01*
X150307219Y-106241866D01*
X150325632Y-106230830D01*
X150345038Y-106221651D01*
X150365250Y-106214419D01*
X150386074Y-106209203D01*
X150407309Y-106206053D01*
X150428750Y-106205000D01*
X150866250Y-106205000D01*
X150887691Y-106206053D01*
G37*
G36*
X170902691Y-113826053D02*
G01*
X170923926Y-113829203D01*
X170944750Y-113834419D01*
X170964962Y-113841651D01*
X170984368Y-113850830D01*
X171002781Y-113861866D01*
X171020024Y-113874654D01*
X171035930Y-113889070D01*
X171050346Y-113904976D01*
X171063134Y-113922219D01*
X171074170Y-113940632D01*
X171083349Y-113960038D01*
X171090581Y-113980250D01*
X171095797Y-114001074D01*
X171098947Y-114022309D01*
X171100000Y-114043750D01*
X171100000Y-114556250D01*
X171098947Y-114577691D01*
X171095797Y-114598926D01*
X171090581Y-114619750D01*
X171083349Y-114639962D01*
X171074170Y-114659368D01*
X171063134Y-114677781D01*
X171050346Y-114695024D01*
X171035930Y-114710930D01*
X171020024Y-114725346D01*
X171002781Y-114738134D01*
X170984368Y-114749170D01*
X170964962Y-114758349D01*
X170944750Y-114765581D01*
X170923926Y-114770797D01*
X170902691Y-114773947D01*
X170881250Y-114775000D01*
X170443750Y-114775000D01*
X170422309Y-114773947D01*
X170401074Y-114770797D01*
X170380250Y-114765581D01*
X170360038Y-114758349D01*
X170340632Y-114749170D01*
X170322219Y-114738134D01*
X170304976Y-114725346D01*
X170289070Y-114710930D01*
X170274654Y-114695024D01*
X170261866Y-114677781D01*
X170250830Y-114659368D01*
X170241651Y-114639962D01*
X170234419Y-114619750D01*
X170229203Y-114598926D01*
X170226053Y-114577691D01*
X170225000Y-114556250D01*
X170225000Y-114043750D01*
X170226053Y-114022309D01*
X170229203Y-114001074D01*
X170234419Y-113980250D01*
X170241651Y-113960038D01*
X170250830Y-113940632D01*
X170261866Y-113922219D01*
X170274654Y-113904976D01*
X170289070Y-113889070D01*
X170304976Y-113874654D01*
X170322219Y-113861866D01*
X170340632Y-113850830D01*
X170360038Y-113841651D01*
X170380250Y-113834419D01*
X170401074Y-113829203D01*
X170422309Y-113826053D01*
X170443750Y-113825000D01*
X170881250Y-113825000D01*
X170902691Y-113826053D01*
G37*
G36*
X172477691Y-113826053D02*
G01*
X172498926Y-113829203D01*
X172519750Y-113834419D01*
X172539962Y-113841651D01*
X172559368Y-113850830D01*
X172577781Y-113861866D01*
X172595024Y-113874654D01*
X172610930Y-113889070D01*
X172625346Y-113904976D01*
X172638134Y-113922219D01*
X172649170Y-113940632D01*
X172658349Y-113960038D01*
X172665581Y-113980250D01*
X172670797Y-114001074D01*
X172673947Y-114022309D01*
X172675000Y-114043750D01*
X172675000Y-114556250D01*
X172673947Y-114577691D01*
X172670797Y-114598926D01*
X172665581Y-114619750D01*
X172658349Y-114639962D01*
X172649170Y-114659368D01*
X172638134Y-114677781D01*
X172625346Y-114695024D01*
X172610930Y-114710930D01*
X172595024Y-114725346D01*
X172577781Y-114738134D01*
X172559368Y-114749170D01*
X172539962Y-114758349D01*
X172519750Y-114765581D01*
X172498926Y-114770797D01*
X172477691Y-114773947D01*
X172456250Y-114775000D01*
X172018750Y-114775000D01*
X171997309Y-114773947D01*
X171976074Y-114770797D01*
X171955250Y-114765581D01*
X171935038Y-114758349D01*
X171915632Y-114749170D01*
X171897219Y-114738134D01*
X171879976Y-114725346D01*
X171864070Y-114710930D01*
X171849654Y-114695024D01*
X171836866Y-114677781D01*
X171825830Y-114659368D01*
X171816651Y-114639962D01*
X171809419Y-114619750D01*
X171804203Y-114598926D01*
X171801053Y-114577691D01*
X171800000Y-114556250D01*
X171800000Y-114043750D01*
X171801053Y-114022309D01*
X171804203Y-114001074D01*
X171809419Y-113980250D01*
X171816651Y-113960038D01*
X171825830Y-113940632D01*
X171836866Y-113922219D01*
X171849654Y-113904976D01*
X171864070Y-113889070D01*
X171879976Y-113874654D01*
X171897219Y-113861866D01*
X171915632Y-113850830D01*
X171935038Y-113841651D01*
X171955250Y-113834419D01*
X171976074Y-113829203D01*
X171997309Y-113826053D01*
X172018750Y-113825000D01*
X172456250Y-113825000D01*
X172477691Y-113826053D01*
G37*
D11*
X162560000Y-88900000D03*
D12*
X161561780Y-87050880D03*
X162062160Y-87050880D03*
X162560000Y-87050880D03*
X163057840Y-87050880D03*
X163558220Y-87050880D03*
D13*
X164409120Y-87901780D03*
X164409120Y-88402160D03*
X164409120Y-88900000D03*
X164409120Y-89397840D03*
X164409120Y-89898220D03*
D12*
X163558220Y-90749120D03*
X163057840Y-90749120D03*
X162560000Y-90749120D03*
X162062160Y-90749120D03*
X161561780Y-90749120D03*
D13*
X160710880Y-89898220D03*
X160710880Y-89397840D03*
X160710880Y-88900000D03*
X160710880Y-88402160D03*
X160710880Y-87901780D03*
D14*
X136000000Y-88350000D03*
D15*
X136000000Y-78950000D03*
X143400000Y-80950000D03*
D10*
G36*
X140245191Y-106206053D02*
G01*
X140266426Y-106209203D01*
X140287250Y-106214419D01*
X140307462Y-106221651D01*
X140326868Y-106230830D01*
X140345281Y-106241866D01*
X140362524Y-106254654D01*
X140378430Y-106269070D01*
X140392846Y-106284976D01*
X140405634Y-106302219D01*
X140416670Y-106320632D01*
X140425849Y-106340038D01*
X140433081Y-106360250D01*
X140438297Y-106381074D01*
X140441447Y-106402309D01*
X140442500Y-106423750D01*
X140442500Y-106936250D01*
X140441447Y-106957691D01*
X140438297Y-106978926D01*
X140433081Y-106999750D01*
X140425849Y-107019962D01*
X140416670Y-107039368D01*
X140405634Y-107057781D01*
X140392846Y-107075024D01*
X140378430Y-107090930D01*
X140362524Y-107105346D01*
X140345281Y-107118134D01*
X140326868Y-107129170D01*
X140307462Y-107138349D01*
X140287250Y-107145581D01*
X140266426Y-107150797D01*
X140245191Y-107153947D01*
X140223750Y-107155000D01*
X139786250Y-107155000D01*
X139764809Y-107153947D01*
X139743574Y-107150797D01*
X139722750Y-107145581D01*
X139702538Y-107138349D01*
X139683132Y-107129170D01*
X139664719Y-107118134D01*
X139647476Y-107105346D01*
X139631570Y-107090930D01*
X139617154Y-107075024D01*
X139604366Y-107057781D01*
X139593330Y-107039368D01*
X139584151Y-107019962D01*
X139576919Y-106999750D01*
X139571703Y-106978926D01*
X139568553Y-106957691D01*
X139567500Y-106936250D01*
X139567500Y-106423750D01*
X139568553Y-106402309D01*
X139571703Y-106381074D01*
X139576919Y-106360250D01*
X139584151Y-106340038D01*
X139593330Y-106320632D01*
X139604366Y-106302219D01*
X139617154Y-106284976D01*
X139631570Y-106269070D01*
X139647476Y-106254654D01*
X139664719Y-106241866D01*
X139683132Y-106230830D01*
X139702538Y-106221651D01*
X139722750Y-106214419D01*
X139743574Y-106209203D01*
X139764809Y-106206053D01*
X139786250Y-106205000D01*
X140223750Y-106205000D01*
X140245191Y-106206053D01*
G37*
G36*
X138670191Y-106206053D02*
G01*
X138691426Y-106209203D01*
X138712250Y-106214419D01*
X138732462Y-106221651D01*
X138751868Y-106230830D01*
X138770281Y-106241866D01*
X138787524Y-106254654D01*
X138803430Y-106269070D01*
X138817846Y-106284976D01*
X138830634Y-106302219D01*
X138841670Y-106320632D01*
X138850849Y-106340038D01*
X138858081Y-106360250D01*
X138863297Y-106381074D01*
X138866447Y-106402309D01*
X138867500Y-106423750D01*
X138867500Y-106936250D01*
X138866447Y-106957691D01*
X138863297Y-106978926D01*
X138858081Y-106999750D01*
X138850849Y-107019962D01*
X138841670Y-107039368D01*
X138830634Y-107057781D01*
X138817846Y-107075024D01*
X138803430Y-107090930D01*
X138787524Y-107105346D01*
X138770281Y-107118134D01*
X138751868Y-107129170D01*
X138732462Y-107138349D01*
X138712250Y-107145581D01*
X138691426Y-107150797D01*
X138670191Y-107153947D01*
X138648750Y-107155000D01*
X138211250Y-107155000D01*
X138189809Y-107153947D01*
X138168574Y-107150797D01*
X138147750Y-107145581D01*
X138127538Y-107138349D01*
X138108132Y-107129170D01*
X138089719Y-107118134D01*
X138072476Y-107105346D01*
X138056570Y-107090930D01*
X138042154Y-107075024D01*
X138029366Y-107057781D01*
X138018330Y-107039368D01*
X138009151Y-107019962D01*
X138001919Y-106999750D01*
X137996703Y-106978926D01*
X137993553Y-106957691D01*
X137992500Y-106936250D01*
X137992500Y-106423750D01*
X137993553Y-106402309D01*
X137996703Y-106381074D01*
X138001919Y-106360250D01*
X138009151Y-106340038D01*
X138018330Y-106320632D01*
X138029366Y-106302219D01*
X138042154Y-106284976D01*
X138056570Y-106269070D01*
X138072476Y-106254654D01*
X138089719Y-106241866D01*
X138108132Y-106230830D01*
X138127538Y-106221651D01*
X138147750Y-106214419D01*
X138168574Y-106209203D01*
X138189809Y-106206053D01*
X138211250Y-106205000D01*
X138648750Y-106205000D01*
X138670191Y-106206053D01*
G37*
G36*
X168362691Y-82076053D02*
G01*
X168383926Y-82079203D01*
X168404750Y-82084419D01*
X168424962Y-82091651D01*
X168444368Y-82100830D01*
X168462781Y-82111866D01*
X168480024Y-82124654D01*
X168495930Y-82139070D01*
X168510346Y-82154976D01*
X168523134Y-82172219D01*
X168534170Y-82190632D01*
X168543349Y-82210038D01*
X168550581Y-82230250D01*
X168555797Y-82251074D01*
X168558947Y-82272309D01*
X168560000Y-82293750D01*
X168560000Y-82806250D01*
X168558947Y-82827691D01*
X168555797Y-82848926D01*
X168550581Y-82869750D01*
X168543349Y-82889962D01*
X168534170Y-82909368D01*
X168523134Y-82927781D01*
X168510346Y-82945024D01*
X168495930Y-82960930D01*
X168480024Y-82975346D01*
X168462781Y-82988134D01*
X168444368Y-82999170D01*
X168424962Y-83008349D01*
X168404750Y-83015581D01*
X168383926Y-83020797D01*
X168362691Y-83023947D01*
X168341250Y-83025000D01*
X167903750Y-83025000D01*
X167882309Y-83023947D01*
X167861074Y-83020797D01*
X167840250Y-83015581D01*
X167820038Y-83008349D01*
X167800632Y-82999170D01*
X167782219Y-82988134D01*
X167764976Y-82975346D01*
X167749070Y-82960930D01*
X167734654Y-82945024D01*
X167721866Y-82927781D01*
X167710830Y-82909368D01*
X167701651Y-82889962D01*
X167694419Y-82869750D01*
X167689203Y-82848926D01*
X167686053Y-82827691D01*
X167685000Y-82806250D01*
X167685000Y-82293750D01*
X167686053Y-82272309D01*
X167689203Y-82251074D01*
X167694419Y-82230250D01*
X167701651Y-82210038D01*
X167710830Y-82190632D01*
X167721866Y-82172219D01*
X167734654Y-82154976D01*
X167749070Y-82139070D01*
X167764976Y-82124654D01*
X167782219Y-82111866D01*
X167800632Y-82100830D01*
X167820038Y-82091651D01*
X167840250Y-82084419D01*
X167861074Y-82079203D01*
X167882309Y-82076053D01*
X167903750Y-82075000D01*
X168341250Y-82075000D01*
X168362691Y-82076053D01*
G37*
G36*
X169937691Y-82076053D02*
G01*
X169958926Y-82079203D01*
X169979750Y-82084419D01*
X169999962Y-82091651D01*
X170019368Y-82100830D01*
X170037781Y-82111866D01*
X170055024Y-82124654D01*
X170070930Y-82139070D01*
X170085346Y-82154976D01*
X170098134Y-82172219D01*
X170109170Y-82190632D01*
X170118349Y-82210038D01*
X170125581Y-82230250D01*
X170130797Y-82251074D01*
X170133947Y-82272309D01*
X170135000Y-82293750D01*
X170135000Y-82806250D01*
X170133947Y-82827691D01*
X170130797Y-82848926D01*
X170125581Y-82869750D01*
X170118349Y-82889962D01*
X170109170Y-82909368D01*
X170098134Y-82927781D01*
X170085346Y-82945024D01*
X170070930Y-82960930D01*
X170055024Y-82975346D01*
X170037781Y-82988134D01*
X170019368Y-82999170D01*
X169999962Y-83008349D01*
X169979750Y-83015581D01*
X169958926Y-83020797D01*
X169937691Y-83023947D01*
X169916250Y-83025000D01*
X169478750Y-83025000D01*
X169457309Y-83023947D01*
X169436074Y-83020797D01*
X169415250Y-83015581D01*
X169395038Y-83008349D01*
X169375632Y-82999170D01*
X169357219Y-82988134D01*
X169339976Y-82975346D01*
X169324070Y-82960930D01*
X169309654Y-82945024D01*
X169296866Y-82927781D01*
X169285830Y-82909368D01*
X169276651Y-82889962D01*
X169269419Y-82869750D01*
X169264203Y-82848926D01*
X169261053Y-82827691D01*
X169260000Y-82806250D01*
X169260000Y-82293750D01*
X169261053Y-82272309D01*
X169264203Y-82251074D01*
X169269419Y-82230250D01*
X169276651Y-82210038D01*
X169285830Y-82190632D01*
X169296866Y-82172219D01*
X169309654Y-82154976D01*
X169324070Y-82139070D01*
X169339976Y-82124654D01*
X169357219Y-82111866D01*
X169375632Y-82100830D01*
X169395038Y-82091651D01*
X169415250Y-82084419D01*
X169436074Y-82079203D01*
X169457309Y-82076053D01*
X169478750Y-82075000D01*
X169916250Y-82075000D01*
X169937691Y-82076053D01*
G37*
G36*
X165700142Y-72961174D02*
G01*
X165723803Y-72964684D01*
X165747007Y-72970496D01*
X165769529Y-72978554D01*
X165791153Y-72988782D01*
X165811670Y-73001079D01*
X165830883Y-73015329D01*
X165848607Y-73031393D01*
X165864671Y-73049117D01*
X165878921Y-73068330D01*
X165891218Y-73088847D01*
X165901446Y-73110471D01*
X165909504Y-73132993D01*
X165915316Y-73156197D01*
X165918826Y-73179858D01*
X165920000Y-73203750D01*
X165920000Y-74116250D01*
X165918826Y-74140142D01*
X165915316Y-74163803D01*
X165909504Y-74187007D01*
X165901446Y-74209529D01*
X165891218Y-74231153D01*
X165878921Y-74251670D01*
X165864671Y-74270883D01*
X165848607Y-74288607D01*
X165830883Y-74304671D01*
X165811670Y-74318921D01*
X165791153Y-74331218D01*
X165769529Y-74341446D01*
X165747007Y-74349504D01*
X165723803Y-74355316D01*
X165700142Y-74358826D01*
X165676250Y-74360000D01*
X165188750Y-74360000D01*
X165164858Y-74358826D01*
X165141197Y-74355316D01*
X165117993Y-74349504D01*
X165095471Y-74341446D01*
X165073847Y-74331218D01*
X165053330Y-74318921D01*
X165034117Y-74304671D01*
X165016393Y-74288607D01*
X165000329Y-74270883D01*
X164986079Y-74251670D01*
X164973782Y-74231153D01*
X164963554Y-74209529D01*
X164955496Y-74187007D01*
X164949684Y-74163803D01*
X164946174Y-74140142D01*
X164945000Y-74116250D01*
X164945000Y-73203750D01*
X164946174Y-73179858D01*
X164949684Y-73156197D01*
X164955496Y-73132993D01*
X164963554Y-73110471D01*
X164973782Y-73088847D01*
X164986079Y-73068330D01*
X165000329Y-73049117D01*
X165016393Y-73031393D01*
X165034117Y-73015329D01*
X165053330Y-73001079D01*
X165073847Y-72988782D01*
X165095471Y-72978554D01*
X165117993Y-72970496D01*
X165141197Y-72964684D01*
X165164858Y-72961174D01*
X165188750Y-72960000D01*
X165676250Y-72960000D01*
X165700142Y-72961174D01*
G37*
G36*
X167575142Y-72961174D02*
G01*
X167598803Y-72964684D01*
X167622007Y-72970496D01*
X167644529Y-72978554D01*
X167666153Y-72988782D01*
X167686670Y-73001079D01*
X167705883Y-73015329D01*
X167723607Y-73031393D01*
X167739671Y-73049117D01*
X167753921Y-73068330D01*
X167766218Y-73088847D01*
X167776446Y-73110471D01*
X167784504Y-73132993D01*
X167790316Y-73156197D01*
X167793826Y-73179858D01*
X167795000Y-73203750D01*
X167795000Y-74116250D01*
X167793826Y-74140142D01*
X167790316Y-74163803D01*
X167784504Y-74187007D01*
X167776446Y-74209529D01*
X167766218Y-74231153D01*
X167753921Y-74251670D01*
X167739671Y-74270883D01*
X167723607Y-74288607D01*
X167705883Y-74304671D01*
X167686670Y-74318921D01*
X167666153Y-74331218D01*
X167644529Y-74341446D01*
X167622007Y-74349504D01*
X167598803Y-74355316D01*
X167575142Y-74358826D01*
X167551250Y-74360000D01*
X167063750Y-74360000D01*
X167039858Y-74358826D01*
X167016197Y-74355316D01*
X166992993Y-74349504D01*
X166970471Y-74341446D01*
X166948847Y-74331218D01*
X166928330Y-74318921D01*
X166909117Y-74304671D01*
X166891393Y-74288607D01*
X166875329Y-74270883D01*
X166861079Y-74251670D01*
X166848782Y-74231153D01*
X166838554Y-74209529D01*
X166830496Y-74187007D01*
X166824684Y-74163803D01*
X166821174Y-74140142D01*
X166820000Y-74116250D01*
X166820000Y-73203750D01*
X166821174Y-73179858D01*
X166824684Y-73156197D01*
X166830496Y-73132993D01*
X166838554Y-73110471D01*
X166848782Y-73088847D01*
X166861079Y-73068330D01*
X166875329Y-73049117D01*
X166891393Y-73031393D01*
X166909117Y-73015329D01*
X166928330Y-73001079D01*
X166948847Y-72988782D01*
X166970471Y-72978554D01*
X166992993Y-72970496D01*
X167016197Y-72964684D01*
X167039858Y-72961174D01*
X167063750Y-72960000D01*
X167551250Y-72960000D01*
X167575142Y-72961174D01*
G37*
G36*
X169187691Y-85136053D02*
G01*
X169208926Y-85139203D01*
X169229750Y-85144419D01*
X169249962Y-85151651D01*
X169269368Y-85160830D01*
X169287781Y-85171866D01*
X169305024Y-85184654D01*
X169320930Y-85199070D01*
X169335346Y-85214976D01*
X169348134Y-85232219D01*
X169359170Y-85250632D01*
X169368349Y-85270038D01*
X169375581Y-85290250D01*
X169380797Y-85311074D01*
X169383947Y-85332309D01*
X169385000Y-85353750D01*
X169385000Y-85791250D01*
X169383947Y-85812691D01*
X169380797Y-85833926D01*
X169375581Y-85854750D01*
X169368349Y-85874962D01*
X169359170Y-85894368D01*
X169348134Y-85912781D01*
X169335346Y-85930024D01*
X169320930Y-85945930D01*
X169305024Y-85960346D01*
X169287781Y-85973134D01*
X169269368Y-85984170D01*
X169249962Y-85993349D01*
X169229750Y-86000581D01*
X169208926Y-86005797D01*
X169187691Y-86008947D01*
X169166250Y-86010000D01*
X168653750Y-86010000D01*
X168632309Y-86008947D01*
X168611074Y-86005797D01*
X168590250Y-86000581D01*
X168570038Y-85993349D01*
X168550632Y-85984170D01*
X168532219Y-85973134D01*
X168514976Y-85960346D01*
X168499070Y-85945930D01*
X168484654Y-85930024D01*
X168471866Y-85912781D01*
X168460830Y-85894368D01*
X168451651Y-85874962D01*
X168444419Y-85854750D01*
X168439203Y-85833926D01*
X168436053Y-85812691D01*
X168435000Y-85791250D01*
X168435000Y-85353750D01*
X168436053Y-85332309D01*
X168439203Y-85311074D01*
X168444419Y-85290250D01*
X168451651Y-85270038D01*
X168460830Y-85250632D01*
X168471866Y-85232219D01*
X168484654Y-85214976D01*
X168499070Y-85199070D01*
X168514976Y-85184654D01*
X168532219Y-85171866D01*
X168550632Y-85160830D01*
X168570038Y-85151651D01*
X168590250Y-85144419D01*
X168611074Y-85139203D01*
X168632309Y-85136053D01*
X168653750Y-85135000D01*
X169166250Y-85135000D01*
X169187691Y-85136053D01*
G37*
G36*
X169187691Y-86711053D02*
G01*
X169208926Y-86714203D01*
X169229750Y-86719419D01*
X169249962Y-86726651D01*
X169269368Y-86735830D01*
X169287781Y-86746866D01*
X169305024Y-86759654D01*
X169320930Y-86774070D01*
X169335346Y-86789976D01*
X169348134Y-86807219D01*
X169359170Y-86825632D01*
X169368349Y-86845038D01*
X169375581Y-86865250D01*
X169380797Y-86886074D01*
X169383947Y-86907309D01*
X169385000Y-86928750D01*
X169385000Y-87366250D01*
X169383947Y-87387691D01*
X169380797Y-87408926D01*
X169375581Y-87429750D01*
X169368349Y-87449962D01*
X169359170Y-87469368D01*
X169348134Y-87487781D01*
X169335346Y-87505024D01*
X169320930Y-87520930D01*
X169305024Y-87535346D01*
X169287781Y-87548134D01*
X169269368Y-87559170D01*
X169249962Y-87568349D01*
X169229750Y-87575581D01*
X169208926Y-87580797D01*
X169187691Y-87583947D01*
X169166250Y-87585000D01*
X168653750Y-87585000D01*
X168632309Y-87583947D01*
X168611074Y-87580797D01*
X168590250Y-87575581D01*
X168570038Y-87568349D01*
X168550632Y-87559170D01*
X168532219Y-87548134D01*
X168514976Y-87535346D01*
X168499070Y-87520930D01*
X168484654Y-87505024D01*
X168471866Y-87487781D01*
X168460830Y-87469368D01*
X168451651Y-87449962D01*
X168444419Y-87429750D01*
X168439203Y-87408926D01*
X168436053Y-87387691D01*
X168435000Y-87366250D01*
X168435000Y-86928750D01*
X168436053Y-86907309D01*
X168439203Y-86886074D01*
X168444419Y-86865250D01*
X168451651Y-86845038D01*
X168460830Y-86825632D01*
X168471866Y-86807219D01*
X168484654Y-86789976D01*
X168499070Y-86774070D01*
X168514976Y-86759654D01*
X168532219Y-86746866D01*
X168550632Y-86735830D01*
X168570038Y-86726651D01*
X168590250Y-86719419D01*
X168611074Y-86714203D01*
X168632309Y-86711053D01*
X168653750Y-86710000D01*
X169166250Y-86710000D01*
X169187691Y-86711053D01*
G37*
G36*
X156690142Y-86811174D02*
G01*
X156713803Y-86814684D01*
X156737007Y-86820496D01*
X156759529Y-86828554D01*
X156781153Y-86838782D01*
X156801670Y-86851079D01*
X156820883Y-86865329D01*
X156838607Y-86881393D01*
X156854671Y-86899117D01*
X156868921Y-86918330D01*
X156881218Y-86938847D01*
X156891446Y-86960471D01*
X156899504Y-86982993D01*
X156905316Y-87006197D01*
X156908826Y-87029858D01*
X156910000Y-87053750D01*
X156910000Y-87541250D01*
X156908826Y-87565142D01*
X156905316Y-87588803D01*
X156899504Y-87612007D01*
X156891446Y-87634529D01*
X156881218Y-87656153D01*
X156868921Y-87676670D01*
X156854671Y-87695883D01*
X156838607Y-87713607D01*
X156820883Y-87729671D01*
X156801670Y-87743921D01*
X156781153Y-87756218D01*
X156759529Y-87766446D01*
X156737007Y-87774504D01*
X156713803Y-87780316D01*
X156690142Y-87783826D01*
X156666250Y-87785000D01*
X155753750Y-87785000D01*
X155729858Y-87783826D01*
X155706197Y-87780316D01*
X155682993Y-87774504D01*
X155660471Y-87766446D01*
X155638847Y-87756218D01*
X155618330Y-87743921D01*
X155599117Y-87729671D01*
X155581393Y-87713607D01*
X155565329Y-87695883D01*
X155551079Y-87676670D01*
X155538782Y-87656153D01*
X155528554Y-87634529D01*
X155520496Y-87612007D01*
X155514684Y-87588803D01*
X155511174Y-87565142D01*
X155510000Y-87541250D01*
X155510000Y-87053750D01*
X155511174Y-87029858D01*
X155514684Y-87006197D01*
X155520496Y-86982993D01*
X155528554Y-86960471D01*
X155538782Y-86938847D01*
X155551079Y-86918330D01*
X155565329Y-86899117D01*
X155581393Y-86881393D01*
X155599117Y-86865329D01*
X155618330Y-86851079D01*
X155638847Y-86838782D01*
X155660471Y-86828554D01*
X155682993Y-86820496D01*
X155706197Y-86814684D01*
X155729858Y-86811174D01*
X155753750Y-86810000D01*
X156666250Y-86810000D01*
X156690142Y-86811174D01*
G37*
G36*
X156690142Y-84936174D02*
G01*
X156713803Y-84939684D01*
X156737007Y-84945496D01*
X156759529Y-84953554D01*
X156781153Y-84963782D01*
X156801670Y-84976079D01*
X156820883Y-84990329D01*
X156838607Y-85006393D01*
X156854671Y-85024117D01*
X156868921Y-85043330D01*
X156881218Y-85063847D01*
X156891446Y-85085471D01*
X156899504Y-85107993D01*
X156905316Y-85131197D01*
X156908826Y-85154858D01*
X156910000Y-85178750D01*
X156910000Y-85666250D01*
X156908826Y-85690142D01*
X156905316Y-85713803D01*
X156899504Y-85737007D01*
X156891446Y-85759529D01*
X156881218Y-85781153D01*
X156868921Y-85801670D01*
X156854671Y-85820883D01*
X156838607Y-85838607D01*
X156820883Y-85854671D01*
X156801670Y-85868921D01*
X156781153Y-85881218D01*
X156759529Y-85891446D01*
X156737007Y-85899504D01*
X156713803Y-85905316D01*
X156690142Y-85908826D01*
X156666250Y-85910000D01*
X155753750Y-85910000D01*
X155729858Y-85908826D01*
X155706197Y-85905316D01*
X155682993Y-85899504D01*
X155660471Y-85891446D01*
X155638847Y-85881218D01*
X155618330Y-85868921D01*
X155599117Y-85854671D01*
X155581393Y-85838607D01*
X155565329Y-85820883D01*
X155551079Y-85801670D01*
X155538782Y-85781153D01*
X155528554Y-85759529D01*
X155520496Y-85737007D01*
X155514684Y-85713803D01*
X155511174Y-85690142D01*
X155510000Y-85666250D01*
X155510000Y-85178750D01*
X155511174Y-85154858D01*
X155514684Y-85131197D01*
X155520496Y-85107993D01*
X155528554Y-85085471D01*
X155538782Y-85063847D01*
X155551079Y-85043330D01*
X155565329Y-85024117D01*
X155581393Y-85006393D01*
X155599117Y-84990329D01*
X155618330Y-84976079D01*
X155638847Y-84963782D01*
X155660471Y-84953554D01*
X155682993Y-84945496D01*
X155706197Y-84939684D01*
X155729858Y-84936174D01*
X155753750Y-84935000D01*
X156666250Y-84935000D01*
X156690142Y-84936174D01*
G37*
G36*
X162314675Y-95956146D02*
G01*
X162335910Y-95959296D01*
X162356734Y-95964512D01*
X162376946Y-95971744D01*
X162396352Y-95980923D01*
X162414765Y-95991959D01*
X162432008Y-96004747D01*
X162447914Y-96019163D01*
X162462330Y-96035069D01*
X162475118Y-96052312D01*
X162486154Y-96070725D01*
X162495333Y-96090131D01*
X162502565Y-96110343D01*
X162507781Y-96131167D01*
X162510931Y-96152402D01*
X162511984Y-96173843D01*
X162511984Y-96686343D01*
X162510931Y-96707784D01*
X162507781Y-96729019D01*
X162502565Y-96749843D01*
X162495333Y-96770055D01*
X162486154Y-96789461D01*
X162475118Y-96807874D01*
X162462330Y-96825117D01*
X162447914Y-96841023D01*
X162432008Y-96855439D01*
X162414765Y-96868227D01*
X162396352Y-96879263D01*
X162376946Y-96888442D01*
X162356734Y-96895674D01*
X162335910Y-96900890D01*
X162314675Y-96904040D01*
X162293234Y-96905093D01*
X161855734Y-96905093D01*
X161834293Y-96904040D01*
X161813058Y-96900890D01*
X161792234Y-96895674D01*
X161772022Y-96888442D01*
X161752616Y-96879263D01*
X161734203Y-96868227D01*
X161716960Y-96855439D01*
X161701054Y-96841023D01*
X161686638Y-96825117D01*
X161673850Y-96807874D01*
X161662814Y-96789461D01*
X161653635Y-96770055D01*
X161646403Y-96749843D01*
X161641187Y-96729019D01*
X161638037Y-96707784D01*
X161636984Y-96686343D01*
X161636984Y-96173843D01*
X161638037Y-96152402D01*
X161641187Y-96131167D01*
X161646403Y-96110343D01*
X161653635Y-96090131D01*
X161662814Y-96070725D01*
X161673850Y-96052312D01*
X161686638Y-96035069D01*
X161701054Y-96019163D01*
X161716960Y-96004747D01*
X161734203Y-95991959D01*
X161752616Y-95980923D01*
X161772022Y-95971744D01*
X161792234Y-95964512D01*
X161813058Y-95959296D01*
X161834293Y-95956146D01*
X161855734Y-95955093D01*
X162293234Y-95955093D01*
X162314675Y-95956146D01*
G37*
G36*
X160739675Y-95956146D02*
G01*
X160760910Y-95959296D01*
X160781734Y-95964512D01*
X160801946Y-95971744D01*
X160821352Y-95980923D01*
X160839765Y-95991959D01*
X160857008Y-96004747D01*
X160872914Y-96019163D01*
X160887330Y-96035069D01*
X160900118Y-96052312D01*
X160911154Y-96070725D01*
X160920333Y-96090131D01*
X160927565Y-96110343D01*
X160932781Y-96131167D01*
X160935931Y-96152402D01*
X160936984Y-96173843D01*
X160936984Y-96686343D01*
X160935931Y-96707784D01*
X160932781Y-96729019D01*
X160927565Y-96749843D01*
X160920333Y-96770055D01*
X160911154Y-96789461D01*
X160900118Y-96807874D01*
X160887330Y-96825117D01*
X160872914Y-96841023D01*
X160857008Y-96855439D01*
X160839765Y-96868227D01*
X160821352Y-96879263D01*
X160801946Y-96888442D01*
X160781734Y-96895674D01*
X160760910Y-96900890D01*
X160739675Y-96904040D01*
X160718234Y-96905093D01*
X160280734Y-96905093D01*
X160259293Y-96904040D01*
X160238058Y-96900890D01*
X160217234Y-96895674D01*
X160197022Y-96888442D01*
X160177616Y-96879263D01*
X160159203Y-96868227D01*
X160141960Y-96855439D01*
X160126054Y-96841023D01*
X160111638Y-96825117D01*
X160098850Y-96807874D01*
X160087814Y-96789461D01*
X160078635Y-96770055D01*
X160071403Y-96749843D01*
X160066187Y-96729019D01*
X160063037Y-96707784D01*
X160061984Y-96686343D01*
X160061984Y-96173843D01*
X160063037Y-96152402D01*
X160066187Y-96131167D01*
X160071403Y-96110343D01*
X160078635Y-96090131D01*
X160087814Y-96070725D01*
X160098850Y-96052312D01*
X160111638Y-96035069D01*
X160126054Y-96019163D01*
X160141960Y-96004747D01*
X160159203Y-95991959D01*
X160177616Y-95980923D01*
X160197022Y-95971744D01*
X160217234Y-95964512D01*
X160238058Y-95959296D01*
X160259293Y-95956146D01*
X160280734Y-95955093D01*
X160718234Y-95955093D01*
X160739675Y-95956146D01*
G37*
G36*
X156487691Y-93061053D02*
G01*
X156508926Y-93064203D01*
X156529750Y-93069419D01*
X156549962Y-93076651D01*
X156569368Y-93085830D01*
X156587781Y-93096866D01*
X156605024Y-93109654D01*
X156620930Y-93124070D01*
X156635346Y-93139976D01*
X156648134Y-93157219D01*
X156659170Y-93175632D01*
X156668349Y-93195038D01*
X156675581Y-93215250D01*
X156680797Y-93236074D01*
X156683947Y-93257309D01*
X156685000Y-93278750D01*
X156685000Y-93716250D01*
X156683947Y-93737691D01*
X156680797Y-93758926D01*
X156675581Y-93779750D01*
X156668349Y-93799962D01*
X156659170Y-93819368D01*
X156648134Y-93837781D01*
X156635346Y-93855024D01*
X156620930Y-93870930D01*
X156605024Y-93885346D01*
X156587781Y-93898134D01*
X156569368Y-93909170D01*
X156549962Y-93918349D01*
X156529750Y-93925581D01*
X156508926Y-93930797D01*
X156487691Y-93933947D01*
X156466250Y-93935000D01*
X155953750Y-93935000D01*
X155932309Y-93933947D01*
X155911074Y-93930797D01*
X155890250Y-93925581D01*
X155870038Y-93918349D01*
X155850632Y-93909170D01*
X155832219Y-93898134D01*
X155814976Y-93885346D01*
X155799070Y-93870930D01*
X155784654Y-93855024D01*
X155771866Y-93837781D01*
X155760830Y-93819368D01*
X155751651Y-93799962D01*
X155744419Y-93779750D01*
X155739203Y-93758926D01*
X155736053Y-93737691D01*
X155735000Y-93716250D01*
X155735000Y-93278750D01*
X155736053Y-93257309D01*
X155739203Y-93236074D01*
X155744419Y-93215250D01*
X155751651Y-93195038D01*
X155760830Y-93175632D01*
X155771866Y-93157219D01*
X155784654Y-93139976D01*
X155799070Y-93124070D01*
X155814976Y-93109654D01*
X155832219Y-93096866D01*
X155850632Y-93085830D01*
X155870038Y-93076651D01*
X155890250Y-93069419D01*
X155911074Y-93064203D01*
X155932309Y-93061053D01*
X155953750Y-93060000D01*
X156466250Y-93060000D01*
X156487691Y-93061053D01*
G37*
G36*
X156487691Y-91486053D02*
G01*
X156508926Y-91489203D01*
X156529750Y-91494419D01*
X156549962Y-91501651D01*
X156569368Y-91510830D01*
X156587781Y-91521866D01*
X156605024Y-91534654D01*
X156620930Y-91549070D01*
X156635346Y-91564976D01*
X156648134Y-91582219D01*
X156659170Y-91600632D01*
X156668349Y-91620038D01*
X156675581Y-91640250D01*
X156680797Y-91661074D01*
X156683947Y-91682309D01*
X156685000Y-91703750D01*
X156685000Y-92141250D01*
X156683947Y-92162691D01*
X156680797Y-92183926D01*
X156675581Y-92204750D01*
X156668349Y-92224962D01*
X156659170Y-92244368D01*
X156648134Y-92262781D01*
X156635346Y-92280024D01*
X156620930Y-92295930D01*
X156605024Y-92310346D01*
X156587781Y-92323134D01*
X156569368Y-92334170D01*
X156549962Y-92343349D01*
X156529750Y-92350581D01*
X156508926Y-92355797D01*
X156487691Y-92358947D01*
X156466250Y-92360000D01*
X155953750Y-92360000D01*
X155932309Y-92358947D01*
X155911074Y-92355797D01*
X155890250Y-92350581D01*
X155870038Y-92343349D01*
X155850632Y-92334170D01*
X155832219Y-92323134D01*
X155814976Y-92310346D01*
X155799070Y-92295930D01*
X155784654Y-92280024D01*
X155771866Y-92262781D01*
X155760830Y-92244368D01*
X155751651Y-92224962D01*
X155744419Y-92204750D01*
X155739203Y-92183926D01*
X155736053Y-92162691D01*
X155735000Y-92141250D01*
X155735000Y-91703750D01*
X155736053Y-91682309D01*
X155739203Y-91661074D01*
X155744419Y-91640250D01*
X155751651Y-91620038D01*
X155760830Y-91600632D01*
X155771866Y-91582219D01*
X155784654Y-91564976D01*
X155799070Y-91549070D01*
X155814976Y-91534654D01*
X155832219Y-91521866D01*
X155850632Y-91510830D01*
X155870038Y-91501651D01*
X155890250Y-91494419D01*
X155911074Y-91489203D01*
X155932309Y-91486053D01*
X155953750Y-91485000D01*
X156466250Y-91485000D01*
X156487691Y-91486053D01*
G37*
G36*
X166127691Y-101126053D02*
G01*
X166148926Y-101129203D01*
X166169750Y-101134419D01*
X166189962Y-101141651D01*
X166209368Y-101150830D01*
X166227781Y-101161866D01*
X166245024Y-101174654D01*
X166260930Y-101189070D01*
X166275346Y-101204976D01*
X166288134Y-101222219D01*
X166299170Y-101240632D01*
X166308349Y-101260038D01*
X166315581Y-101280250D01*
X166320797Y-101301074D01*
X166323947Y-101322309D01*
X166325000Y-101343750D01*
X166325000Y-101856250D01*
X166323947Y-101877691D01*
X166320797Y-101898926D01*
X166315581Y-101919750D01*
X166308349Y-101939962D01*
X166299170Y-101959368D01*
X166288134Y-101977781D01*
X166275346Y-101995024D01*
X166260930Y-102010930D01*
X166245024Y-102025346D01*
X166227781Y-102038134D01*
X166209368Y-102049170D01*
X166189962Y-102058349D01*
X166169750Y-102065581D01*
X166148926Y-102070797D01*
X166127691Y-102073947D01*
X166106250Y-102075000D01*
X165668750Y-102075000D01*
X165647309Y-102073947D01*
X165626074Y-102070797D01*
X165605250Y-102065581D01*
X165585038Y-102058349D01*
X165565632Y-102049170D01*
X165547219Y-102038134D01*
X165529976Y-102025346D01*
X165514070Y-102010930D01*
X165499654Y-101995024D01*
X165486866Y-101977781D01*
X165475830Y-101959368D01*
X165466651Y-101939962D01*
X165459419Y-101919750D01*
X165454203Y-101898926D01*
X165451053Y-101877691D01*
X165450000Y-101856250D01*
X165450000Y-101343750D01*
X165451053Y-101322309D01*
X165454203Y-101301074D01*
X165459419Y-101280250D01*
X165466651Y-101260038D01*
X165475830Y-101240632D01*
X165486866Y-101222219D01*
X165499654Y-101204976D01*
X165514070Y-101189070D01*
X165529976Y-101174654D01*
X165547219Y-101161866D01*
X165565632Y-101150830D01*
X165585038Y-101141651D01*
X165605250Y-101134419D01*
X165626074Y-101129203D01*
X165647309Y-101126053D01*
X165668750Y-101125000D01*
X166106250Y-101125000D01*
X166127691Y-101126053D01*
G37*
G36*
X164552691Y-101126053D02*
G01*
X164573926Y-101129203D01*
X164594750Y-101134419D01*
X164614962Y-101141651D01*
X164634368Y-101150830D01*
X164652781Y-101161866D01*
X164670024Y-101174654D01*
X164685930Y-101189070D01*
X164700346Y-101204976D01*
X164713134Y-101222219D01*
X164724170Y-101240632D01*
X164733349Y-101260038D01*
X164740581Y-101280250D01*
X164745797Y-101301074D01*
X164748947Y-101322309D01*
X164750000Y-101343750D01*
X164750000Y-101856250D01*
X164748947Y-101877691D01*
X164745797Y-101898926D01*
X164740581Y-101919750D01*
X164733349Y-101939962D01*
X164724170Y-101959368D01*
X164713134Y-101977781D01*
X164700346Y-101995024D01*
X164685930Y-102010930D01*
X164670024Y-102025346D01*
X164652781Y-102038134D01*
X164634368Y-102049170D01*
X164614962Y-102058349D01*
X164594750Y-102065581D01*
X164573926Y-102070797D01*
X164552691Y-102073947D01*
X164531250Y-102075000D01*
X164093750Y-102075000D01*
X164072309Y-102073947D01*
X164051074Y-102070797D01*
X164030250Y-102065581D01*
X164010038Y-102058349D01*
X163990632Y-102049170D01*
X163972219Y-102038134D01*
X163954976Y-102025346D01*
X163939070Y-102010930D01*
X163924654Y-101995024D01*
X163911866Y-101977781D01*
X163900830Y-101959368D01*
X163891651Y-101939962D01*
X163884419Y-101919750D01*
X163879203Y-101898926D01*
X163876053Y-101877691D01*
X163875000Y-101856250D01*
X163875000Y-101343750D01*
X163876053Y-101322309D01*
X163879203Y-101301074D01*
X163884419Y-101280250D01*
X163891651Y-101260038D01*
X163900830Y-101240632D01*
X163911866Y-101222219D01*
X163924654Y-101204976D01*
X163939070Y-101189070D01*
X163954976Y-101174654D01*
X163972219Y-101161866D01*
X163990632Y-101150830D01*
X164010038Y-101141651D01*
X164030250Y-101134419D01*
X164051074Y-101129203D01*
X164072309Y-101126053D01*
X164093750Y-101125000D01*
X164531250Y-101125000D01*
X164552691Y-101126053D01*
G37*
M02*
