M48
; DRILL file {KiCad 5.1.5} date vie 03 abr 2020 22:22:11
; FORMAT={-:-/ absolute / inch / decimal}
; #@! TF.CreationDate,2020-04-03T22:22:11-06:00
; #@! TF.GenerationSoftware,Kicad,Pcbnew,5.1.5
FMAT,2
INCH
T1C0.0157
T2C0.0400
T3C0.0669
%
G90
G05
T1
X5.4259Y-3.2273
X5.5805Y-3.3768
X5.6Y-4.5
X6.0269Y-3.7472
X6.0283Y-3.2503
X6.05Y-2.9
X6.1Y-3.1
X6.25Y-3.2
X6.25Y-4.1
X6.3Y-3.2
X6.3Y-3.65
X6.4254Y-3.8841
X6.45Y-3.35
X6.55Y-3.3
X6.55Y-3.4291
X6.7Y-2.9
X6.75Y-3.4
X6.8Y-3.15
X6.8Y-3.3
X6.8Y-4.4
X6.85Y-3.7
T2
X6.05Y-4.5
X6.15Y-4.5
X6.25Y-4.5
X6.35Y-4.5
X6.45Y-4.5
X6.55Y-4.5
X5.05Y-3.2
X5.05Y-3.3
X5.05Y-3.4
T3
X5.5Y-3.1516
X5.5Y-3.4272
T0
M30
