G04 #@! TF.GenerationSoftware,KiCad,Pcbnew,5.1.5*
G04 #@! TF.CreationDate,2020-04-03T18:21:33-06:00*
G04 #@! TF.ProjectId,AD8232,41443832-3332-42e6-9b69-6361645f7063,rev?*
G04 #@! TF.SameCoordinates,Original*
G04 #@! TF.FileFunction,Soldermask,Top*
G04 #@! TF.FilePolarity,Negative*
%FSLAX46Y46*%
G04 Gerber Fmt 4.6, Leading zero omitted, Abs format (unit mm)*
G04 Created by KiCad (PCBNEW 5.1.5) date 2020-04-03 18:21:33*
%MOMM*%
%LPD*%
G04 APERTURE LIST*
%ADD10C,0.100000*%
G04 APERTURE END LIST*
D10*
G36*
X166673765Y-113298620D02*
G01*
X166863288Y-113377123D01*
X167033854Y-113491092D01*
X167178908Y-113636146D01*
X167292877Y-113806712D01*
X167371380Y-113996235D01*
X167411400Y-114197431D01*
X167411400Y-114402569D01*
X167371380Y-114603765D01*
X167292877Y-114793288D01*
X167178908Y-114963854D01*
X167033854Y-115108908D01*
X166863288Y-115222877D01*
X166673765Y-115301380D01*
X166472569Y-115341400D01*
X166267431Y-115341400D01*
X166066235Y-115301380D01*
X165876712Y-115222877D01*
X165706146Y-115108908D01*
X165561092Y-114963854D01*
X165447123Y-114793288D01*
X165368620Y-114603765D01*
X165328600Y-114402569D01*
X165328600Y-114197431D01*
X165368620Y-113996235D01*
X165447123Y-113806712D01*
X165561092Y-113636146D01*
X165706146Y-113491092D01*
X165876712Y-113377123D01*
X166066235Y-113298620D01*
X166267431Y-113258600D01*
X166472569Y-113258600D01*
X166673765Y-113298620D01*
G37*
G36*
X164133765Y-113298620D02*
G01*
X164323288Y-113377123D01*
X164493854Y-113491092D01*
X164638908Y-113636146D01*
X164752877Y-113806712D01*
X164831380Y-113996235D01*
X164871400Y-114197431D01*
X164871400Y-114402569D01*
X164831380Y-114603765D01*
X164752877Y-114793288D01*
X164638908Y-114963854D01*
X164493854Y-115108908D01*
X164323288Y-115222877D01*
X164133765Y-115301380D01*
X163932569Y-115341400D01*
X163727431Y-115341400D01*
X163526235Y-115301380D01*
X163336712Y-115222877D01*
X163166146Y-115108908D01*
X163021092Y-114963854D01*
X162907123Y-114793288D01*
X162828620Y-114603765D01*
X162788600Y-114402569D01*
X162788600Y-114197431D01*
X162828620Y-113996235D01*
X162907123Y-113806712D01*
X163021092Y-113636146D01*
X163166146Y-113491092D01*
X163336712Y-113377123D01*
X163526235Y-113298620D01*
X163727431Y-113258600D01*
X163932569Y-113258600D01*
X164133765Y-113298620D01*
G37*
G36*
X153973765Y-113298620D02*
G01*
X154163288Y-113377123D01*
X154333854Y-113491092D01*
X154478908Y-113636146D01*
X154592877Y-113806712D01*
X154671380Y-113996235D01*
X154711400Y-114197431D01*
X154711400Y-114402569D01*
X154671380Y-114603765D01*
X154592877Y-114793288D01*
X154478908Y-114963854D01*
X154333854Y-115108908D01*
X154163288Y-115222877D01*
X153973765Y-115301380D01*
X153772569Y-115341400D01*
X153567431Y-115341400D01*
X153366235Y-115301380D01*
X153176712Y-115222877D01*
X153006146Y-115108908D01*
X152861092Y-114963854D01*
X152747123Y-114793288D01*
X152668620Y-114603765D01*
X152628600Y-114402569D01*
X152628600Y-114197431D01*
X152668620Y-113996235D01*
X152747123Y-113806712D01*
X152861092Y-113636146D01*
X153006146Y-113491092D01*
X153176712Y-113377123D01*
X153366235Y-113298620D01*
X153567431Y-113258600D01*
X153772569Y-113258600D01*
X153973765Y-113298620D01*
G37*
G36*
X156513765Y-113298620D02*
G01*
X156703288Y-113377123D01*
X156873854Y-113491092D01*
X157018908Y-113636146D01*
X157132877Y-113806712D01*
X157211380Y-113996235D01*
X157251400Y-114197431D01*
X157251400Y-114402569D01*
X157211380Y-114603765D01*
X157132877Y-114793288D01*
X157018908Y-114963854D01*
X156873854Y-115108908D01*
X156703288Y-115222877D01*
X156513765Y-115301380D01*
X156312569Y-115341400D01*
X156107431Y-115341400D01*
X155906235Y-115301380D01*
X155716712Y-115222877D01*
X155546146Y-115108908D01*
X155401092Y-114963854D01*
X155287123Y-114793288D01*
X155208620Y-114603765D01*
X155168600Y-114402569D01*
X155168600Y-114197431D01*
X155208620Y-113996235D01*
X155287123Y-113806712D01*
X155401092Y-113636146D01*
X155546146Y-113491092D01*
X155716712Y-113377123D01*
X155906235Y-113298620D01*
X156107431Y-113258600D01*
X156312569Y-113258600D01*
X156513765Y-113298620D01*
G37*
G36*
X161593765Y-113298620D02*
G01*
X161783288Y-113377123D01*
X161953854Y-113491092D01*
X162098908Y-113636146D01*
X162212877Y-113806712D01*
X162291380Y-113996235D01*
X162331400Y-114197431D01*
X162331400Y-114402569D01*
X162291380Y-114603765D01*
X162212877Y-114793288D01*
X162098908Y-114963854D01*
X161953854Y-115108908D01*
X161783288Y-115222877D01*
X161593765Y-115301380D01*
X161392569Y-115341400D01*
X161187431Y-115341400D01*
X160986235Y-115301380D01*
X160796712Y-115222877D01*
X160626146Y-115108908D01*
X160481092Y-114963854D01*
X160367123Y-114793288D01*
X160288620Y-114603765D01*
X160248600Y-114402569D01*
X160248600Y-114197431D01*
X160288620Y-113996235D01*
X160367123Y-113806712D01*
X160481092Y-113636146D01*
X160626146Y-113491092D01*
X160796712Y-113377123D01*
X160986235Y-113298620D01*
X161187431Y-113258600D01*
X161392569Y-113258600D01*
X161593765Y-113298620D01*
G37*
G36*
X159053765Y-113298620D02*
G01*
X159243288Y-113377123D01*
X159413854Y-113491092D01*
X159558908Y-113636146D01*
X159672877Y-113806712D01*
X159751380Y-113996235D01*
X159791400Y-114197431D01*
X159791400Y-114402569D01*
X159751380Y-114603765D01*
X159672877Y-114793288D01*
X159558908Y-114963854D01*
X159413854Y-115108908D01*
X159243288Y-115222877D01*
X159053765Y-115301380D01*
X158852569Y-115341400D01*
X158647431Y-115341400D01*
X158446235Y-115301380D01*
X158256712Y-115222877D01*
X158086146Y-115108908D01*
X157941092Y-114963854D01*
X157827123Y-114793288D01*
X157748620Y-114603765D01*
X157708600Y-114402569D01*
X157708600Y-114197431D01*
X157748620Y-113996235D01*
X157827123Y-113806712D01*
X157941092Y-113636146D01*
X158086146Y-113491092D01*
X158256712Y-113377123D01*
X158446235Y-113298620D01*
X158647431Y-113258600D01*
X158852569Y-113258600D01*
X159053765Y-113298620D01*
G37*
G36*
X139164744Y-113740867D02*
G01*
X139164751Y-113740867D01*
X139174710Y-113741848D01*
X139184285Y-113744753D01*
X139184288Y-113744754D01*
X139192205Y-113748986D01*
X139193111Y-113749470D01*
X139200846Y-113755818D01*
X139207194Y-113763553D01*
X139207195Y-113763555D01*
X139211910Y-113772376D01*
X139211911Y-113772379D01*
X139214816Y-113781954D01*
X139215797Y-113791913D01*
X139215797Y-113791920D01*
X139216041Y-113794396D01*
X139216041Y-114289430D01*
X139215797Y-114291907D01*
X139215797Y-114291913D01*
X139214816Y-114301872D01*
X139214815Y-114301876D01*
X139214480Y-114305274D01*
X139213876Y-114308311D01*
X139213633Y-114313261D01*
X139213633Y-114338439D01*
X139213389Y-114340916D01*
X139213389Y-114340922D01*
X139212408Y-114350881D01*
X139212406Y-114350889D01*
X139212163Y-114353360D01*
X139194009Y-114444627D01*
X139193288Y-114447005D01*
X139193286Y-114447014D01*
X139190381Y-114456589D01*
X139189656Y-114458979D01*
X139154047Y-114544947D01*
X139152872Y-114547145D01*
X139148155Y-114555971D01*
X139148150Y-114555979D01*
X139146979Y-114558169D01*
X139095279Y-114635544D01*
X139085769Y-114647133D01*
X139019971Y-114712931D01*
X139018043Y-114714513D01*
X139010308Y-114720861D01*
X139010305Y-114720863D01*
X139008382Y-114722441D01*
X138931007Y-114774141D01*
X138928817Y-114775312D01*
X138928809Y-114775317D01*
X138920226Y-114779904D01*
X138917785Y-114781209D01*
X138831817Y-114816818D01*
X138829428Y-114817543D01*
X138829427Y-114817543D01*
X138819852Y-114820448D01*
X138819843Y-114820450D01*
X138817465Y-114821171D01*
X138726198Y-114839325D01*
X138723727Y-114839568D01*
X138723719Y-114839570D01*
X138713760Y-114840551D01*
X138713754Y-114840551D01*
X138711277Y-114840795D01*
X138686099Y-114840795D01*
X138676247Y-114841765D01*
X138675846Y-114841866D01*
X138674711Y-114841978D01*
X138674710Y-114841978D01*
X138664751Y-114842959D01*
X138664746Y-114842959D01*
X138662268Y-114843203D01*
X138167234Y-114843203D01*
X138164757Y-114842959D01*
X138164751Y-114842959D01*
X138154792Y-114841978D01*
X138154788Y-114841977D01*
X138151390Y-114841642D01*
X138148353Y-114841038D01*
X138143403Y-114840795D01*
X138118225Y-114840795D01*
X138115748Y-114840551D01*
X138115742Y-114840551D01*
X138105783Y-114839570D01*
X138105775Y-114839568D01*
X138103304Y-114839325D01*
X138012037Y-114821171D01*
X138009659Y-114820450D01*
X138009650Y-114820448D01*
X138000075Y-114817543D01*
X138000074Y-114817543D01*
X137997685Y-114816818D01*
X137911717Y-114781209D01*
X137909276Y-114779904D01*
X137900693Y-114775317D01*
X137900685Y-114775312D01*
X137898495Y-114774141D01*
X137821120Y-114722441D01*
X137819197Y-114720863D01*
X137819194Y-114720861D01*
X137811459Y-114714513D01*
X137809531Y-114712931D01*
X137743733Y-114647133D01*
X137734223Y-114635544D01*
X137682523Y-114558169D01*
X137681352Y-114555979D01*
X137681347Y-114555971D01*
X137676630Y-114547145D01*
X137675455Y-114544947D01*
X137639846Y-114458979D01*
X137639121Y-114456589D01*
X137636216Y-114447014D01*
X137636214Y-114447005D01*
X137635493Y-114444627D01*
X137617339Y-114353360D01*
X137617096Y-114350889D01*
X137617094Y-114350881D01*
X137616113Y-114340922D01*
X137616113Y-114340916D01*
X137615869Y-114338439D01*
X137615869Y-114313261D01*
X137614899Y-114303409D01*
X137614798Y-114303008D01*
X137613461Y-114289430D01*
X137613461Y-113794396D01*
X137613705Y-113791920D01*
X137613705Y-113791913D01*
X137614686Y-113781954D01*
X137617591Y-113772379D01*
X137617592Y-113772376D01*
X137622307Y-113763555D01*
X137622308Y-113763553D01*
X137628656Y-113755818D01*
X137636391Y-113749470D01*
X137637297Y-113748986D01*
X137645214Y-113744754D01*
X137645217Y-113744753D01*
X137654792Y-113741848D01*
X137664751Y-113740867D01*
X137664758Y-113740867D01*
X137667234Y-113740623D01*
X139162268Y-113740623D01*
X139164744Y-113740867D01*
G37*
G36*
X170974561Y-113778646D02*
G01*
X171015574Y-113791088D01*
X171053380Y-113811295D01*
X171086513Y-113838487D01*
X171113705Y-113871620D01*
X171133912Y-113909426D01*
X171146354Y-113950439D01*
X171150800Y-113995582D01*
X171150800Y-114604418D01*
X171146354Y-114649561D01*
X171133912Y-114690574D01*
X171113705Y-114728380D01*
X171086513Y-114761513D01*
X171053380Y-114788705D01*
X171015574Y-114808912D01*
X170974561Y-114821354D01*
X170929418Y-114825800D01*
X170395582Y-114825800D01*
X170350439Y-114821354D01*
X170309426Y-114808912D01*
X170271620Y-114788705D01*
X170238487Y-114761513D01*
X170211295Y-114728380D01*
X170191088Y-114690574D01*
X170178646Y-114649561D01*
X170174200Y-114604418D01*
X170174200Y-113995582D01*
X170178646Y-113950439D01*
X170191088Y-113909426D01*
X170211295Y-113871620D01*
X170238487Y-113838487D01*
X170271620Y-113811295D01*
X170309426Y-113791088D01*
X170350439Y-113778646D01*
X170395582Y-113774200D01*
X170929418Y-113774200D01*
X170974561Y-113778646D01*
G37*
G36*
X172549561Y-113778646D02*
G01*
X172590574Y-113791088D01*
X172628380Y-113811295D01*
X172661513Y-113838487D01*
X172688705Y-113871620D01*
X172708912Y-113909426D01*
X172721354Y-113950439D01*
X172725800Y-113995582D01*
X172725800Y-114604418D01*
X172721354Y-114649561D01*
X172708912Y-114690574D01*
X172688705Y-114728380D01*
X172661513Y-114761513D01*
X172628380Y-114788705D01*
X172590574Y-114808912D01*
X172549561Y-114821354D01*
X172504418Y-114825800D01*
X171970582Y-114825800D01*
X171925439Y-114821354D01*
X171884426Y-114808912D01*
X171846620Y-114788705D01*
X171813487Y-114761513D01*
X171786295Y-114728380D01*
X171766088Y-114690574D01*
X171753646Y-114649561D01*
X171749200Y-114604418D01*
X171749200Y-113995582D01*
X171753646Y-113950439D01*
X171766088Y-113909426D01*
X171786295Y-113871620D01*
X171813487Y-113838487D01*
X171846620Y-113811295D01*
X171884426Y-113791088D01*
X171925439Y-113778646D01*
X171970582Y-113774200D01*
X172504418Y-113774200D01*
X172549561Y-113778646D01*
G37*
G36*
X138664745Y-112440867D02*
G01*
X138664751Y-112440867D01*
X138674710Y-112441848D01*
X138674714Y-112441849D01*
X138678112Y-112442184D01*
X138681149Y-112442788D01*
X138686099Y-112443031D01*
X138711277Y-112443031D01*
X138713754Y-112443275D01*
X138713760Y-112443275D01*
X138723719Y-112444256D01*
X138723727Y-112444258D01*
X138726198Y-112444501D01*
X138817465Y-112462655D01*
X138819843Y-112463376D01*
X138819852Y-112463378D01*
X138829427Y-112466283D01*
X138831817Y-112467008D01*
X138917785Y-112502617D01*
X138919983Y-112503792D01*
X138928809Y-112508509D01*
X138928817Y-112508514D01*
X138931007Y-112509685D01*
X139008382Y-112561385D01*
X139010305Y-112562963D01*
X139010308Y-112562965D01*
X139016433Y-112567992D01*
X139019971Y-112570895D01*
X139085769Y-112636693D01*
X139095279Y-112648282D01*
X139146979Y-112725657D01*
X139148150Y-112727847D01*
X139148155Y-112727855D01*
X139152742Y-112736438D01*
X139154047Y-112738879D01*
X139189656Y-112824847D01*
X139190381Y-112827236D01*
X139190381Y-112827237D01*
X139193286Y-112836812D01*
X139193288Y-112836821D01*
X139194009Y-112839199D01*
X139212163Y-112930466D01*
X139212406Y-112932937D01*
X139212408Y-112932945D01*
X139213389Y-112942904D01*
X139213389Y-112942910D01*
X139213633Y-112945387D01*
X139213633Y-112970565D01*
X139214603Y-112980417D01*
X139214704Y-112980818D01*
X139216041Y-112994396D01*
X139216041Y-113489430D01*
X139215797Y-113491906D01*
X139215797Y-113491913D01*
X139214816Y-113501872D01*
X139211911Y-113511447D01*
X139211910Y-113511450D01*
X139207678Y-113519367D01*
X139207194Y-113520273D01*
X139200846Y-113528008D01*
X139193111Y-113534356D01*
X139193109Y-113534357D01*
X139184288Y-113539072D01*
X139184285Y-113539073D01*
X139174710Y-113541978D01*
X139164751Y-113542959D01*
X139164744Y-113542959D01*
X139162268Y-113543203D01*
X137667234Y-113543203D01*
X137664758Y-113542959D01*
X137664751Y-113542959D01*
X137654792Y-113541978D01*
X137645217Y-113539073D01*
X137645214Y-113539072D01*
X137636393Y-113534357D01*
X137636391Y-113534356D01*
X137628656Y-113528008D01*
X137622308Y-113520273D01*
X137621824Y-113519367D01*
X137617592Y-113511450D01*
X137617591Y-113511447D01*
X137614686Y-113501872D01*
X137613705Y-113491913D01*
X137613705Y-113491906D01*
X137613461Y-113489430D01*
X137613461Y-112994396D01*
X137613705Y-112991919D01*
X137613705Y-112991913D01*
X137614686Y-112981954D01*
X137614687Y-112981950D01*
X137615022Y-112978552D01*
X137615626Y-112975515D01*
X137615869Y-112970565D01*
X137615869Y-112945387D01*
X137616113Y-112942910D01*
X137616113Y-112942904D01*
X137617094Y-112932945D01*
X137617096Y-112932937D01*
X137617339Y-112930466D01*
X137635493Y-112839199D01*
X137636214Y-112836821D01*
X137636216Y-112836812D01*
X137639121Y-112827237D01*
X137639121Y-112827236D01*
X137639846Y-112824847D01*
X137675455Y-112738879D01*
X137676760Y-112736438D01*
X137681347Y-112727855D01*
X137681352Y-112727847D01*
X137682523Y-112725657D01*
X137734223Y-112648282D01*
X137743733Y-112636693D01*
X137809531Y-112570895D01*
X137813069Y-112567992D01*
X137819194Y-112562965D01*
X137819197Y-112562963D01*
X137821120Y-112561385D01*
X137898495Y-112509685D01*
X137900685Y-112508514D01*
X137900693Y-112508509D01*
X137909519Y-112503792D01*
X137911717Y-112502617D01*
X137997685Y-112467008D01*
X138000075Y-112466283D01*
X138009650Y-112463378D01*
X138009659Y-112463376D01*
X138012037Y-112462655D01*
X138103304Y-112444501D01*
X138105775Y-112444258D01*
X138105783Y-112444256D01*
X138115742Y-112443275D01*
X138115748Y-112443275D01*
X138118225Y-112443031D01*
X138143403Y-112443031D01*
X138153255Y-112442061D01*
X138153656Y-112441960D01*
X138154791Y-112441848D01*
X138154792Y-112441848D01*
X138164751Y-112440867D01*
X138164756Y-112440867D01*
X138167234Y-112440623D01*
X138662268Y-112440623D01*
X138664745Y-112440867D01*
G37*
G36*
X138742061Y-106158646D02*
G01*
X138783074Y-106171088D01*
X138820880Y-106191295D01*
X138854013Y-106218487D01*
X138881205Y-106251620D01*
X138901412Y-106289426D01*
X138913854Y-106330439D01*
X138918300Y-106375582D01*
X138918300Y-106984418D01*
X138913854Y-107029561D01*
X138901412Y-107070574D01*
X138881205Y-107108380D01*
X138854013Y-107141513D01*
X138820880Y-107168705D01*
X138783074Y-107188912D01*
X138742061Y-107201354D01*
X138696918Y-107205800D01*
X138163082Y-107205800D01*
X138117939Y-107201354D01*
X138076926Y-107188912D01*
X138039120Y-107168705D01*
X138005987Y-107141513D01*
X137978795Y-107108380D01*
X137958588Y-107070574D01*
X137946146Y-107029561D01*
X137941700Y-106984418D01*
X137941700Y-106375582D01*
X137946146Y-106330439D01*
X137958588Y-106289426D01*
X137978795Y-106251620D01*
X138005987Y-106218487D01*
X138039120Y-106191295D01*
X138076926Y-106171088D01*
X138117939Y-106158646D01*
X138163082Y-106154200D01*
X138696918Y-106154200D01*
X138742061Y-106158646D01*
G37*
G36*
X162389561Y-106158646D02*
G01*
X162430574Y-106171088D01*
X162468380Y-106191295D01*
X162501513Y-106218487D01*
X162528705Y-106251620D01*
X162548912Y-106289426D01*
X162561354Y-106330439D01*
X162565800Y-106375582D01*
X162565800Y-106984418D01*
X162561354Y-107029561D01*
X162548912Y-107070574D01*
X162528705Y-107108380D01*
X162501513Y-107141513D01*
X162468380Y-107168705D01*
X162430574Y-107188912D01*
X162389561Y-107201354D01*
X162344418Y-107205800D01*
X161810582Y-107205800D01*
X161765439Y-107201354D01*
X161724426Y-107188912D01*
X161686620Y-107168705D01*
X161653487Y-107141513D01*
X161626295Y-107108380D01*
X161606088Y-107070574D01*
X161593646Y-107029561D01*
X161589200Y-106984418D01*
X161589200Y-106375582D01*
X161593646Y-106330439D01*
X161606088Y-106289426D01*
X161626295Y-106251620D01*
X161653487Y-106218487D01*
X161686620Y-106191295D01*
X161724426Y-106171088D01*
X161765439Y-106158646D01*
X161810582Y-106154200D01*
X162344418Y-106154200D01*
X162389561Y-106158646D01*
G37*
G36*
X160814561Y-106158646D02*
G01*
X160855574Y-106171088D01*
X160893380Y-106191295D01*
X160926513Y-106218487D01*
X160953705Y-106251620D01*
X160973912Y-106289426D01*
X160986354Y-106330439D01*
X160990800Y-106375582D01*
X160990800Y-106984418D01*
X160986354Y-107029561D01*
X160973912Y-107070574D01*
X160953705Y-107108380D01*
X160926513Y-107141513D01*
X160893380Y-107168705D01*
X160855574Y-107188912D01*
X160814561Y-107201354D01*
X160769418Y-107205800D01*
X160235582Y-107205800D01*
X160190439Y-107201354D01*
X160149426Y-107188912D01*
X160111620Y-107168705D01*
X160078487Y-107141513D01*
X160051295Y-107108380D01*
X160031088Y-107070574D01*
X160018646Y-107029561D01*
X160014200Y-106984418D01*
X160014200Y-106375582D01*
X160018646Y-106330439D01*
X160031088Y-106289426D01*
X160051295Y-106251620D01*
X160078487Y-106218487D01*
X160111620Y-106191295D01*
X160149426Y-106171088D01*
X160190439Y-106158646D01*
X160235582Y-106154200D01*
X160769418Y-106154200D01*
X160814561Y-106158646D01*
G37*
G36*
X150959561Y-106158646D02*
G01*
X151000574Y-106171088D01*
X151038380Y-106191295D01*
X151071513Y-106218487D01*
X151098705Y-106251620D01*
X151118912Y-106289426D01*
X151131354Y-106330439D01*
X151135800Y-106375582D01*
X151135800Y-106984418D01*
X151131354Y-107029561D01*
X151118912Y-107070574D01*
X151098705Y-107108380D01*
X151071513Y-107141513D01*
X151038380Y-107168705D01*
X151000574Y-107188912D01*
X150959561Y-107201354D01*
X150914418Y-107205800D01*
X150380582Y-107205800D01*
X150335439Y-107201354D01*
X150294426Y-107188912D01*
X150256620Y-107168705D01*
X150223487Y-107141513D01*
X150196295Y-107108380D01*
X150176088Y-107070574D01*
X150163646Y-107029561D01*
X150159200Y-106984418D01*
X150159200Y-106375582D01*
X150163646Y-106330439D01*
X150176088Y-106289426D01*
X150196295Y-106251620D01*
X150223487Y-106218487D01*
X150256620Y-106191295D01*
X150294426Y-106171088D01*
X150335439Y-106158646D01*
X150380582Y-106154200D01*
X150914418Y-106154200D01*
X150959561Y-106158646D01*
G37*
G36*
X149384561Y-106158646D02*
G01*
X149425574Y-106171088D01*
X149463380Y-106191295D01*
X149496513Y-106218487D01*
X149523705Y-106251620D01*
X149543912Y-106289426D01*
X149556354Y-106330439D01*
X149560800Y-106375582D01*
X149560800Y-106984418D01*
X149556354Y-107029561D01*
X149543912Y-107070574D01*
X149523705Y-107108380D01*
X149496513Y-107141513D01*
X149463380Y-107168705D01*
X149425574Y-107188912D01*
X149384561Y-107201354D01*
X149339418Y-107205800D01*
X148805582Y-107205800D01*
X148760439Y-107201354D01*
X148719426Y-107188912D01*
X148681620Y-107168705D01*
X148648487Y-107141513D01*
X148621295Y-107108380D01*
X148601088Y-107070574D01*
X148588646Y-107029561D01*
X148584200Y-106984418D01*
X148584200Y-106375582D01*
X148588646Y-106330439D01*
X148601088Y-106289426D01*
X148621295Y-106251620D01*
X148648487Y-106218487D01*
X148681620Y-106191295D01*
X148719426Y-106171088D01*
X148760439Y-106158646D01*
X148805582Y-106154200D01*
X149339418Y-106154200D01*
X149384561Y-106158646D01*
G37*
G36*
X140317061Y-106158646D02*
G01*
X140358074Y-106171088D01*
X140395880Y-106191295D01*
X140429013Y-106218487D01*
X140456205Y-106251620D01*
X140476412Y-106289426D01*
X140488854Y-106330439D01*
X140493300Y-106375582D01*
X140493300Y-106984418D01*
X140488854Y-107029561D01*
X140476412Y-107070574D01*
X140456205Y-107108380D01*
X140429013Y-107141513D01*
X140395880Y-107168705D01*
X140358074Y-107188912D01*
X140317061Y-107201354D01*
X140271918Y-107205800D01*
X139738082Y-107205800D01*
X139692939Y-107201354D01*
X139651926Y-107188912D01*
X139614120Y-107168705D01*
X139580987Y-107141513D01*
X139553795Y-107108380D01*
X139533588Y-107070574D01*
X139521146Y-107029561D01*
X139516700Y-106984418D01*
X139516700Y-106375582D01*
X139521146Y-106330439D01*
X139533588Y-106289426D01*
X139553795Y-106251620D01*
X139580987Y-106218487D01*
X139614120Y-106191295D01*
X139651926Y-106171088D01*
X139692939Y-106158646D01*
X139738082Y-106154200D01*
X140271918Y-106154200D01*
X140317061Y-106158646D01*
G37*
G36*
X164624561Y-101078646D02*
G01*
X164665574Y-101091088D01*
X164703380Y-101111295D01*
X164736513Y-101138487D01*
X164763705Y-101171620D01*
X164783912Y-101209426D01*
X164796354Y-101250439D01*
X164800800Y-101295582D01*
X164800800Y-101904418D01*
X164796354Y-101949561D01*
X164783912Y-101990574D01*
X164763705Y-102028380D01*
X164736513Y-102061513D01*
X164703380Y-102088705D01*
X164665574Y-102108912D01*
X164624561Y-102121354D01*
X164579418Y-102125800D01*
X164045582Y-102125800D01*
X164000439Y-102121354D01*
X163959426Y-102108912D01*
X163921620Y-102088705D01*
X163888487Y-102061513D01*
X163861295Y-102028380D01*
X163841088Y-101990574D01*
X163828646Y-101949561D01*
X163824200Y-101904418D01*
X163824200Y-101295582D01*
X163828646Y-101250439D01*
X163841088Y-101209426D01*
X163861295Y-101171620D01*
X163888487Y-101138487D01*
X163921620Y-101111295D01*
X163959426Y-101091088D01*
X164000439Y-101078646D01*
X164045582Y-101074200D01*
X164579418Y-101074200D01*
X164624561Y-101078646D01*
G37*
G36*
X166199561Y-101078646D02*
G01*
X166240574Y-101091088D01*
X166278380Y-101111295D01*
X166311513Y-101138487D01*
X166338705Y-101171620D01*
X166358912Y-101209426D01*
X166371354Y-101250439D01*
X166375800Y-101295582D01*
X166375800Y-101904418D01*
X166371354Y-101949561D01*
X166358912Y-101990574D01*
X166338705Y-102028380D01*
X166311513Y-102061513D01*
X166278380Y-102088705D01*
X166240574Y-102108912D01*
X166199561Y-102121354D01*
X166154418Y-102125800D01*
X165620582Y-102125800D01*
X165575439Y-102121354D01*
X165534426Y-102108912D01*
X165496620Y-102088705D01*
X165463487Y-102061513D01*
X165436295Y-102028380D01*
X165416088Y-101990574D01*
X165403646Y-101949561D01*
X165399200Y-101904418D01*
X165399200Y-101295582D01*
X165403646Y-101250439D01*
X165416088Y-101209426D01*
X165436295Y-101171620D01*
X165463487Y-101138487D01*
X165496620Y-101111295D01*
X165534426Y-101091088D01*
X165575439Y-101078646D01*
X165620582Y-101074200D01*
X166154418Y-101074200D01*
X166199561Y-101078646D01*
G37*
G36*
X162389561Y-101078646D02*
G01*
X162430574Y-101091088D01*
X162468380Y-101111295D01*
X162501513Y-101138487D01*
X162528705Y-101171620D01*
X162548912Y-101209426D01*
X162561354Y-101250439D01*
X162565800Y-101295582D01*
X162565800Y-101904418D01*
X162561354Y-101949561D01*
X162548912Y-101990574D01*
X162528705Y-102028380D01*
X162501513Y-102061513D01*
X162468380Y-102088705D01*
X162430574Y-102108912D01*
X162389561Y-102121354D01*
X162344418Y-102125800D01*
X161810582Y-102125800D01*
X161765439Y-102121354D01*
X161724426Y-102108912D01*
X161686620Y-102088705D01*
X161653487Y-102061513D01*
X161626295Y-102028380D01*
X161606088Y-101990574D01*
X161593646Y-101949561D01*
X161589200Y-101904418D01*
X161589200Y-101295582D01*
X161593646Y-101250439D01*
X161606088Y-101209426D01*
X161626295Y-101171620D01*
X161653487Y-101138487D01*
X161686620Y-101111295D01*
X161724426Y-101091088D01*
X161765439Y-101078646D01*
X161810582Y-101074200D01*
X162344418Y-101074200D01*
X162389561Y-101078646D01*
G37*
G36*
X150959561Y-101078646D02*
G01*
X151000574Y-101091088D01*
X151038380Y-101111295D01*
X151071513Y-101138487D01*
X151098705Y-101171620D01*
X151118912Y-101209426D01*
X151131354Y-101250439D01*
X151135800Y-101295582D01*
X151135800Y-101904418D01*
X151131354Y-101949561D01*
X151118912Y-101990574D01*
X151098705Y-102028380D01*
X151071513Y-102061513D01*
X151038380Y-102088705D01*
X151000574Y-102108912D01*
X150959561Y-102121354D01*
X150914418Y-102125800D01*
X150380582Y-102125800D01*
X150335439Y-102121354D01*
X150294426Y-102108912D01*
X150256620Y-102088705D01*
X150223487Y-102061513D01*
X150196295Y-102028380D01*
X150176088Y-101990574D01*
X150163646Y-101949561D01*
X150159200Y-101904418D01*
X150159200Y-101295582D01*
X150163646Y-101250439D01*
X150176088Y-101209426D01*
X150196295Y-101171620D01*
X150223487Y-101138487D01*
X150256620Y-101111295D01*
X150294426Y-101091088D01*
X150335439Y-101078646D01*
X150380582Y-101074200D01*
X150914418Y-101074200D01*
X150959561Y-101078646D01*
G37*
G36*
X149384561Y-101078646D02*
G01*
X149425574Y-101091088D01*
X149463380Y-101111295D01*
X149496513Y-101138487D01*
X149523705Y-101171620D01*
X149543912Y-101209426D01*
X149556354Y-101250439D01*
X149560800Y-101295582D01*
X149560800Y-101904418D01*
X149556354Y-101949561D01*
X149543912Y-101990574D01*
X149523705Y-102028380D01*
X149496513Y-102061513D01*
X149463380Y-102088705D01*
X149425574Y-102108912D01*
X149384561Y-102121354D01*
X149339418Y-102125800D01*
X148805582Y-102125800D01*
X148760439Y-102121354D01*
X148719426Y-102108912D01*
X148681620Y-102088705D01*
X148648487Y-102061513D01*
X148621295Y-102028380D01*
X148601088Y-101990574D01*
X148588646Y-101949561D01*
X148584200Y-101904418D01*
X148584200Y-101295582D01*
X148588646Y-101250439D01*
X148601088Y-101209426D01*
X148621295Y-101171620D01*
X148648487Y-101138487D01*
X148681620Y-101111295D01*
X148719426Y-101091088D01*
X148760439Y-101078646D01*
X148805582Y-101074200D01*
X149339418Y-101074200D01*
X149384561Y-101078646D01*
G37*
G36*
X160814561Y-101078646D02*
G01*
X160855574Y-101091088D01*
X160893380Y-101111295D01*
X160926513Y-101138487D01*
X160953705Y-101171620D01*
X160973912Y-101209426D01*
X160986354Y-101250439D01*
X160990800Y-101295582D01*
X160990800Y-101904418D01*
X160986354Y-101949561D01*
X160973912Y-101990574D01*
X160953705Y-102028380D01*
X160926513Y-102061513D01*
X160893380Y-102088705D01*
X160855574Y-102108912D01*
X160814561Y-102121354D01*
X160769418Y-102125800D01*
X160235582Y-102125800D01*
X160190439Y-102121354D01*
X160149426Y-102108912D01*
X160111620Y-102088705D01*
X160078487Y-102061513D01*
X160051295Y-102028380D01*
X160031088Y-101990574D01*
X160018646Y-101949561D01*
X160014200Y-101904418D01*
X160014200Y-101295582D01*
X160018646Y-101250439D01*
X160031088Y-101209426D01*
X160051295Y-101171620D01*
X160078487Y-101138487D01*
X160111620Y-101111295D01*
X160149426Y-101091088D01*
X160190439Y-101078646D01*
X160235582Y-101074200D01*
X160769418Y-101074200D01*
X160814561Y-101078646D01*
G37*
G36*
X150959561Y-97268646D02*
G01*
X151000574Y-97281088D01*
X151038380Y-97301295D01*
X151071513Y-97328487D01*
X151098705Y-97361620D01*
X151118912Y-97399426D01*
X151131354Y-97440439D01*
X151135800Y-97485582D01*
X151135800Y-98094418D01*
X151131354Y-98139561D01*
X151118912Y-98180574D01*
X151098705Y-98218380D01*
X151071513Y-98251513D01*
X151038380Y-98278705D01*
X151000574Y-98298912D01*
X150959561Y-98311354D01*
X150914418Y-98315800D01*
X150380582Y-98315800D01*
X150335439Y-98311354D01*
X150294426Y-98298912D01*
X150256620Y-98278705D01*
X150223487Y-98251513D01*
X150196295Y-98218380D01*
X150176088Y-98180574D01*
X150163646Y-98139561D01*
X150159200Y-98094418D01*
X150159200Y-97485582D01*
X150163646Y-97440439D01*
X150176088Y-97399426D01*
X150196295Y-97361620D01*
X150223487Y-97328487D01*
X150256620Y-97301295D01*
X150294426Y-97281088D01*
X150335439Y-97268646D01*
X150380582Y-97264200D01*
X150914418Y-97264200D01*
X150959561Y-97268646D01*
G37*
G36*
X149384561Y-97268646D02*
G01*
X149425574Y-97281088D01*
X149463380Y-97301295D01*
X149496513Y-97328487D01*
X149523705Y-97361620D01*
X149543912Y-97399426D01*
X149556354Y-97440439D01*
X149560800Y-97485582D01*
X149560800Y-98094418D01*
X149556354Y-98139561D01*
X149543912Y-98180574D01*
X149523705Y-98218380D01*
X149496513Y-98251513D01*
X149463380Y-98278705D01*
X149425574Y-98298912D01*
X149384561Y-98311354D01*
X149339418Y-98315800D01*
X148805582Y-98315800D01*
X148760439Y-98311354D01*
X148719426Y-98298912D01*
X148681620Y-98278705D01*
X148648487Y-98251513D01*
X148621295Y-98218380D01*
X148601088Y-98180574D01*
X148588646Y-98139561D01*
X148584200Y-98094418D01*
X148584200Y-97485582D01*
X148588646Y-97440439D01*
X148601088Y-97399426D01*
X148621295Y-97361620D01*
X148648487Y-97328487D01*
X148681620Y-97301295D01*
X148719426Y-97281088D01*
X148760439Y-97268646D01*
X148805582Y-97264200D01*
X149339418Y-97264200D01*
X149384561Y-97268646D01*
G37*
G36*
X169992772Y-95938331D02*
G01*
X170033785Y-95950773D01*
X170071591Y-95970980D01*
X170104724Y-95998172D01*
X170131916Y-96031305D01*
X170152123Y-96069111D01*
X170164565Y-96110124D01*
X170169011Y-96155267D01*
X170169011Y-96764103D01*
X170164565Y-96809246D01*
X170152123Y-96850259D01*
X170131916Y-96888065D01*
X170104724Y-96921198D01*
X170071591Y-96948390D01*
X170033785Y-96968597D01*
X169992772Y-96981039D01*
X169947629Y-96985485D01*
X169413793Y-96985485D01*
X169368650Y-96981039D01*
X169327637Y-96968597D01*
X169289831Y-96948390D01*
X169256698Y-96921198D01*
X169229506Y-96888065D01*
X169209299Y-96850259D01*
X169196857Y-96809246D01*
X169192411Y-96764103D01*
X169192411Y-96155267D01*
X169196857Y-96110124D01*
X169209299Y-96069111D01*
X169229506Y-96031305D01*
X169256698Y-95998172D01*
X169289831Y-95970980D01*
X169327637Y-95950773D01*
X169368650Y-95938331D01*
X169413793Y-95933885D01*
X169947629Y-95933885D01*
X169992772Y-95938331D01*
G37*
G36*
X168417772Y-95938331D02*
G01*
X168458785Y-95950773D01*
X168496591Y-95970980D01*
X168529724Y-95998172D01*
X168556916Y-96031305D01*
X168577123Y-96069111D01*
X168589565Y-96110124D01*
X168594011Y-96155267D01*
X168594011Y-96764103D01*
X168589565Y-96809246D01*
X168577123Y-96850259D01*
X168556916Y-96888065D01*
X168529724Y-96921198D01*
X168496591Y-96948390D01*
X168458785Y-96968597D01*
X168417772Y-96981039D01*
X168372629Y-96985485D01*
X167838793Y-96985485D01*
X167793650Y-96981039D01*
X167752637Y-96968597D01*
X167714831Y-96948390D01*
X167681698Y-96921198D01*
X167654506Y-96888065D01*
X167634299Y-96850259D01*
X167621857Y-96809246D01*
X167617411Y-96764103D01*
X167617411Y-96155267D01*
X167621857Y-96110124D01*
X167634299Y-96069111D01*
X167654506Y-96031305D01*
X167681698Y-95998172D01*
X167714831Y-95970980D01*
X167752637Y-95950773D01*
X167793650Y-95938331D01*
X167838793Y-95933885D01*
X168372629Y-95933885D01*
X168417772Y-95938331D01*
G37*
G36*
X160811545Y-95908739D02*
G01*
X160852558Y-95921181D01*
X160890364Y-95941388D01*
X160923497Y-95968580D01*
X160950689Y-96001713D01*
X160970896Y-96039519D01*
X160983338Y-96080532D01*
X160987784Y-96125675D01*
X160987784Y-96734511D01*
X160983338Y-96779654D01*
X160970896Y-96820667D01*
X160950689Y-96858473D01*
X160923497Y-96891606D01*
X160890364Y-96918798D01*
X160852558Y-96939005D01*
X160811545Y-96951447D01*
X160766402Y-96955893D01*
X160232566Y-96955893D01*
X160187423Y-96951447D01*
X160146410Y-96939005D01*
X160108604Y-96918798D01*
X160075471Y-96891606D01*
X160048279Y-96858473D01*
X160028072Y-96820667D01*
X160015630Y-96779654D01*
X160011184Y-96734511D01*
X160011184Y-96125675D01*
X160015630Y-96080532D01*
X160028072Y-96039519D01*
X160048279Y-96001713D01*
X160075471Y-95968580D01*
X160108604Y-95941388D01*
X160146410Y-95921181D01*
X160187423Y-95908739D01*
X160232566Y-95904293D01*
X160766402Y-95904293D01*
X160811545Y-95908739D01*
G37*
G36*
X162386545Y-95908739D02*
G01*
X162427558Y-95921181D01*
X162465364Y-95941388D01*
X162498497Y-95968580D01*
X162525689Y-96001713D01*
X162545896Y-96039519D01*
X162558338Y-96080532D01*
X162562784Y-96125675D01*
X162562784Y-96734511D01*
X162558338Y-96779654D01*
X162545896Y-96820667D01*
X162525689Y-96858473D01*
X162498497Y-96891606D01*
X162465364Y-96918798D01*
X162427558Y-96939005D01*
X162386545Y-96951447D01*
X162341402Y-96955893D01*
X161807566Y-96955893D01*
X161762423Y-96951447D01*
X161721410Y-96939005D01*
X161683604Y-96918798D01*
X161650471Y-96891606D01*
X161623279Y-96858473D01*
X161603072Y-96820667D01*
X161590630Y-96779654D01*
X161586184Y-96734511D01*
X161586184Y-96125675D01*
X161590630Y-96080532D01*
X161603072Y-96039519D01*
X161623279Y-96001713D01*
X161650471Y-95968580D01*
X161683604Y-95941388D01*
X161721410Y-95921181D01*
X161762423Y-95908739D01*
X161807566Y-95904293D01*
X162341402Y-95904293D01*
X162386545Y-95908739D01*
G37*
G36*
X164682775Y-95907717D02*
G01*
X164723788Y-95920159D01*
X164761594Y-95940366D01*
X164794727Y-95967558D01*
X164821919Y-96000691D01*
X164842126Y-96038497D01*
X164854568Y-96079510D01*
X164859014Y-96124653D01*
X164859014Y-96733489D01*
X164854568Y-96778632D01*
X164842126Y-96819645D01*
X164821919Y-96857451D01*
X164794727Y-96890584D01*
X164761594Y-96917776D01*
X164723788Y-96937983D01*
X164682775Y-96950425D01*
X164637632Y-96954871D01*
X164103796Y-96954871D01*
X164058653Y-96950425D01*
X164017640Y-96937983D01*
X163979834Y-96917776D01*
X163946701Y-96890584D01*
X163919509Y-96857451D01*
X163899302Y-96819645D01*
X163886860Y-96778632D01*
X163882414Y-96733489D01*
X163882414Y-96124653D01*
X163886860Y-96079510D01*
X163899302Y-96038497D01*
X163919509Y-96000691D01*
X163946701Y-95967558D01*
X163979834Y-95940366D01*
X164017640Y-95920159D01*
X164058653Y-95907717D01*
X164103796Y-95903271D01*
X164637632Y-95903271D01*
X164682775Y-95907717D01*
G37*
G36*
X166257775Y-95907717D02*
G01*
X166298788Y-95920159D01*
X166336594Y-95940366D01*
X166369727Y-95967558D01*
X166396919Y-96000691D01*
X166417126Y-96038497D01*
X166429568Y-96079510D01*
X166434014Y-96124653D01*
X166434014Y-96733489D01*
X166429568Y-96778632D01*
X166417126Y-96819645D01*
X166396919Y-96857451D01*
X166369727Y-96890584D01*
X166336594Y-96917776D01*
X166298788Y-96937983D01*
X166257775Y-96950425D01*
X166212632Y-96954871D01*
X165678796Y-96954871D01*
X165633653Y-96950425D01*
X165592640Y-96937983D01*
X165554834Y-96917776D01*
X165521701Y-96890584D01*
X165494509Y-96857451D01*
X165474302Y-96819645D01*
X165461860Y-96778632D01*
X165457414Y-96733489D01*
X165457414Y-96124653D01*
X165461860Y-96079510D01*
X165474302Y-96038497D01*
X165494509Y-96000691D01*
X165521701Y-95967558D01*
X165554834Y-95940366D01*
X165592640Y-95920159D01*
X165633653Y-95907717D01*
X165678796Y-95903271D01*
X166212632Y-95903271D01*
X166257775Y-95907717D01*
G37*
G36*
X156559561Y-93013646D02*
G01*
X156600574Y-93026088D01*
X156638380Y-93046295D01*
X156671513Y-93073487D01*
X156698705Y-93106620D01*
X156718912Y-93144426D01*
X156731354Y-93185439D01*
X156735800Y-93230582D01*
X156735800Y-93764418D01*
X156731354Y-93809561D01*
X156718912Y-93850574D01*
X156698705Y-93888380D01*
X156671513Y-93921513D01*
X156638380Y-93948705D01*
X156600574Y-93968912D01*
X156559561Y-93981354D01*
X156514418Y-93985800D01*
X155905582Y-93985800D01*
X155860439Y-93981354D01*
X155819426Y-93968912D01*
X155781620Y-93948705D01*
X155748487Y-93921513D01*
X155721295Y-93888380D01*
X155701088Y-93850574D01*
X155688646Y-93809561D01*
X155684200Y-93764418D01*
X155684200Y-93230582D01*
X155688646Y-93185439D01*
X155701088Y-93144426D01*
X155721295Y-93106620D01*
X155748487Y-93073487D01*
X155781620Y-93046295D01*
X155819426Y-93026088D01*
X155860439Y-93013646D01*
X155905582Y-93009200D01*
X156514418Y-93009200D01*
X156559561Y-93013646D01*
G37*
G36*
X149384561Y-92188646D02*
G01*
X149425574Y-92201088D01*
X149463380Y-92221295D01*
X149496513Y-92248487D01*
X149523705Y-92281620D01*
X149543912Y-92319426D01*
X149556354Y-92360439D01*
X149560800Y-92405582D01*
X149560800Y-93014418D01*
X149556354Y-93059561D01*
X149543912Y-93100574D01*
X149523705Y-93138380D01*
X149496513Y-93171513D01*
X149463380Y-93198705D01*
X149425574Y-93218912D01*
X149384561Y-93231354D01*
X149339418Y-93235800D01*
X148805582Y-93235800D01*
X148760439Y-93231354D01*
X148719426Y-93218912D01*
X148681620Y-93198705D01*
X148648487Y-93171513D01*
X148621295Y-93138380D01*
X148601088Y-93100574D01*
X148588646Y-93059561D01*
X148584200Y-93014418D01*
X148584200Y-92405582D01*
X148588646Y-92360439D01*
X148601088Y-92319426D01*
X148621295Y-92281620D01*
X148648487Y-92248487D01*
X148681620Y-92221295D01*
X148719426Y-92201088D01*
X148760439Y-92188646D01*
X148805582Y-92184200D01*
X149339418Y-92184200D01*
X149384561Y-92188646D01*
G37*
G36*
X150959561Y-92188646D02*
G01*
X151000574Y-92201088D01*
X151038380Y-92221295D01*
X151071513Y-92248487D01*
X151098705Y-92281620D01*
X151118912Y-92319426D01*
X151131354Y-92360439D01*
X151135800Y-92405582D01*
X151135800Y-93014418D01*
X151131354Y-93059561D01*
X151118912Y-93100574D01*
X151098705Y-93138380D01*
X151071513Y-93171513D01*
X151038380Y-93198705D01*
X151000574Y-93218912D01*
X150959561Y-93231354D01*
X150914418Y-93235800D01*
X150380582Y-93235800D01*
X150335439Y-93231354D01*
X150294426Y-93218912D01*
X150256620Y-93198705D01*
X150223487Y-93171513D01*
X150196295Y-93138380D01*
X150176088Y-93100574D01*
X150163646Y-93059561D01*
X150159200Y-93014418D01*
X150159200Y-92405582D01*
X150163646Y-92360439D01*
X150176088Y-92319426D01*
X150196295Y-92281620D01*
X150223487Y-92248487D01*
X150256620Y-92221295D01*
X150294426Y-92201088D01*
X150335439Y-92188646D01*
X150380582Y-92184200D01*
X150914418Y-92184200D01*
X150959561Y-92188646D01*
G37*
G36*
X174339561Y-91743646D02*
G01*
X174380574Y-91756088D01*
X174418380Y-91776295D01*
X174451513Y-91803487D01*
X174478705Y-91836620D01*
X174498912Y-91874426D01*
X174511354Y-91915439D01*
X174515800Y-91960582D01*
X174515800Y-92494418D01*
X174511354Y-92539561D01*
X174498912Y-92580574D01*
X174478705Y-92618380D01*
X174451513Y-92651513D01*
X174418380Y-92678705D01*
X174380574Y-92698912D01*
X174339561Y-92711354D01*
X174294418Y-92715800D01*
X173685582Y-92715800D01*
X173640439Y-92711354D01*
X173599426Y-92698912D01*
X173561620Y-92678705D01*
X173528487Y-92651513D01*
X173501295Y-92618380D01*
X173481088Y-92580574D01*
X173468646Y-92539561D01*
X173464200Y-92494418D01*
X173464200Y-91960582D01*
X173468646Y-91915439D01*
X173481088Y-91874426D01*
X173501295Y-91836620D01*
X173528487Y-91803487D01*
X173561620Y-91776295D01*
X173599426Y-91756088D01*
X173640439Y-91743646D01*
X173685582Y-91739200D01*
X174294418Y-91739200D01*
X174339561Y-91743646D01*
G37*
G36*
X156559561Y-91438646D02*
G01*
X156600574Y-91451088D01*
X156638380Y-91471295D01*
X156671513Y-91498487D01*
X156698705Y-91531620D01*
X156718912Y-91569426D01*
X156731354Y-91610439D01*
X156735800Y-91655582D01*
X156735800Y-92189418D01*
X156731354Y-92234561D01*
X156718912Y-92275574D01*
X156698705Y-92313380D01*
X156671513Y-92346513D01*
X156638380Y-92373705D01*
X156600574Y-92393912D01*
X156559561Y-92406354D01*
X156514418Y-92410800D01*
X155905582Y-92410800D01*
X155860439Y-92406354D01*
X155819426Y-92393912D01*
X155781620Y-92373705D01*
X155748487Y-92346513D01*
X155721295Y-92313380D01*
X155701088Y-92275574D01*
X155688646Y-92234561D01*
X155684200Y-92189418D01*
X155684200Y-91655582D01*
X155688646Y-91610439D01*
X155701088Y-91569426D01*
X155721295Y-91531620D01*
X155748487Y-91498487D01*
X155781620Y-91471295D01*
X155819426Y-91451088D01*
X155860439Y-91438646D01*
X155905582Y-91434200D01*
X156514418Y-91434200D01*
X156559561Y-91438646D01*
G37*
G36*
X174339561Y-90168646D02*
G01*
X174380574Y-90181088D01*
X174418380Y-90201295D01*
X174451513Y-90228487D01*
X174478705Y-90261620D01*
X174498912Y-90299426D01*
X174511354Y-90340439D01*
X174515800Y-90385582D01*
X174515800Y-90919418D01*
X174511354Y-90964561D01*
X174498912Y-91005574D01*
X174478705Y-91043380D01*
X174451513Y-91076513D01*
X174418380Y-91103705D01*
X174380574Y-91123912D01*
X174339561Y-91136354D01*
X174294418Y-91140800D01*
X173685582Y-91140800D01*
X173640439Y-91136354D01*
X173599426Y-91123912D01*
X173561620Y-91103705D01*
X173528487Y-91076513D01*
X173501295Y-91043380D01*
X173481088Y-91005574D01*
X173468646Y-90964561D01*
X173464200Y-90919418D01*
X173464200Y-90385582D01*
X173468646Y-90340439D01*
X173481088Y-90299426D01*
X173501295Y-90261620D01*
X173528487Y-90228487D01*
X173561620Y-90201295D01*
X173599426Y-90181088D01*
X173640439Y-90168646D01*
X173685582Y-90164200D01*
X174294418Y-90164200D01*
X174339561Y-90168646D01*
G37*
G36*
X163784280Y-91099640D02*
G01*
X161335720Y-91099640D01*
X161335720Y-90398600D01*
X163784280Y-90398600D01*
X163784280Y-91099640D01*
G37*
G36*
X163911280Y-90251280D02*
G01*
X161208720Y-90251280D01*
X161208720Y-87548720D01*
X163911280Y-87548720D01*
X163911280Y-90251280D01*
G37*
G36*
X164759640Y-90124280D02*
G01*
X164058600Y-90124280D01*
X164058600Y-87675720D01*
X164759640Y-87675720D01*
X164759640Y-90124280D01*
G37*
G36*
X161061400Y-90124280D02*
G01*
X160360360Y-90124280D01*
X160360360Y-87675720D01*
X161061400Y-87675720D01*
X161061400Y-90124280D01*
G37*
G36*
X137450800Y-89800800D02*
G01*
X134549200Y-89800800D01*
X134549200Y-86899200D01*
X137450800Y-86899200D01*
X137450800Y-89800800D01*
G37*
G36*
X174339561Y-87933646D02*
G01*
X174380574Y-87946088D01*
X174418380Y-87966295D01*
X174451513Y-87993487D01*
X174478705Y-88026620D01*
X174498912Y-88064426D01*
X174511354Y-88105439D01*
X174515800Y-88150582D01*
X174515800Y-88684418D01*
X174511354Y-88729561D01*
X174498912Y-88770574D01*
X174478705Y-88808380D01*
X174451513Y-88841513D01*
X174418380Y-88868705D01*
X174380574Y-88888912D01*
X174339561Y-88901354D01*
X174294418Y-88905800D01*
X173685582Y-88905800D01*
X173640439Y-88901354D01*
X173599426Y-88888912D01*
X173561620Y-88868705D01*
X173528487Y-88841513D01*
X173501295Y-88808380D01*
X173481088Y-88770574D01*
X173468646Y-88729561D01*
X173464200Y-88684418D01*
X173464200Y-88150582D01*
X173468646Y-88105439D01*
X173481088Y-88064426D01*
X173501295Y-88026620D01*
X173528487Y-87993487D01*
X173561620Y-87966295D01*
X173599426Y-87946088D01*
X173640439Y-87933646D01*
X173685582Y-87929200D01*
X174294418Y-87929200D01*
X174339561Y-87933646D01*
G37*
G36*
X149384561Y-87108646D02*
G01*
X149425574Y-87121088D01*
X149463380Y-87141295D01*
X149496513Y-87168487D01*
X149523705Y-87201620D01*
X149543912Y-87239426D01*
X149556354Y-87280439D01*
X149560800Y-87325582D01*
X149560800Y-87934418D01*
X149556354Y-87979561D01*
X149543912Y-88020574D01*
X149523705Y-88058380D01*
X149496513Y-88091513D01*
X149463380Y-88118705D01*
X149425574Y-88138912D01*
X149384561Y-88151354D01*
X149339418Y-88155800D01*
X148805582Y-88155800D01*
X148760439Y-88151354D01*
X148719426Y-88138912D01*
X148681620Y-88118705D01*
X148648487Y-88091513D01*
X148621295Y-88058380D01*
X148601088Y-88020574D01*
X148588646Y-87979561D01*
X148584200Y-87934418D01*
X148584200Y-87325582D01*
X148588646Y-87280439D01*
X148601088Y-87239426D01*
X148621295Y-87201620D01*
X148648487Y-87168487D01*
X148681620Y-87141295D01*
X148719426Y-87121088D01*
X148760439Y-87108646D01*
X148805582Y-87104200D01*
X149339418Y-87104200D01*
X149384561Y-87108646D01*
G37*
G36*
X150959561Y-87108646D02*
G01*
X151000574Y-87121088D01*
X151038380Y-87141295D01*
X151071513Y-87168487D01*
X151098705Y-87201620D01*
X151118912Y-87239426D01*
X151131354Y-87280439D01*
X151135800Y-87325582D01*
X151135800Y-87934418D01*
X151131354Y-87979561D01*
X151118912Y-88020574D01*
X151098705Y-88058380D01*
X151071513Y-88091513D01*
X151038380Y-88118705D01*
X151000574Y-88138912D01*
X150959561Y-88151354D01*
X150914418Y-88155800D01*
X150380582Y-88155800D01*
X150335439Y-88151354D01*
X150294426Y-88138912D01*
X150256620Y-88118705D01*
X150223487Y-88091513D01*
X150196295Y-88058380D01*
X150176088Y-88020574D01*
X150163646Y-87979561D01*
X150159200Y-87934418D01*
X150159200Y-87325582D01*
X150163646Y-87280439D01*
X150176088Y-87239426D01*
X150196295Y-87201620D01*
X150223487Y-87168487D01*
X150256620Y-87141295D01*
X150294426Y-87121088D01*
X150335439Y-87108646D01*
X150380582Y-87104200D01*
X150914418Y-87104200D01*
X150959561Y-87108646D01*
G37*
G36*
X139962754Y-86183817D02*
G01*
X140126689Y-86251721D01*
X140274227Y-86350303D01*
X140399697Y-86475773D01*
X140498279Y-86623311D01*
X140566183Y-86787246D01*
X140600800Y-86961279D01*
X140600800Y-87138721D01*
X140566183Y-87312754D01*
X140498279Y-87476689D01*
X140399697Y-87624227D01*
X140274227Y-87749697D01*
X140126689Y-87848279D01*
X139962754Y-87916183D01*
X139788721Y-87950800D01*
X139611279Y-87950800D01*
X139437246Y-87916183D01*
X139273311Y-87848279D01*
X139125773Y-87749697D01*
X139000303Y-87624227D01*
X138901721Y-87476689D01*
X138833817Y-87312754D01*
X138799200Y-87138721D01*
X138799200Y-86961279D01*
X138833817Y-86787246D01*
X138901721Y-86623311D01*
X139000303Y-86475773D01*
X139125773Y-86350303D01*
X139273311Y-86251721D01*
X139437246Y-86183817D01*
X139611279Y-86149200D01*
X139788721Y-86149200D01*
X139962754Y-86183817D01*
G37*
G36*
X156764433Y-86764126D02*
G01*
X156810146Y-86777993D01*
X156852265Y-86800506D01*
X156889191Y-86830809D01*
X156919494Y-86867735D01*
X156942007Y-86909854D01*
X156955874Y-86955567D01*
X156960800Y-87005583D01*
X156960800Y-87589417D01*
X156955874Y-87639433D01*
X156942007Y-87685146D01*
X156919494Y-87727265D01*
X156889191Y-87764191D01*
X156852265Y-87794494D01*
X156810146Y-87817007D01*
X156764433Y-87830874D01*
X156714417Y-87835800D01*
X155705583Y-87835800D01*
X155655567Y-87830874D01*
X155609854Y-87817007D01*
X155567735Y-87794494D01*
X155530809Y-87764191D01*
X155500506Y-87727265D01*
X155477993Y-87685146D01*
X155464126Y-87639433D01*
X155459200Y-87589417D01*
X155459200Y-87005583D01*
X155464126Y-86955567D01*
X155477993Y-86909854D01*
X155500506Y-86867735D01*
X155530809Y-86830809D01*
X155567735Y-86800506D01*
X155609854Y-86777993D01*
X155655567Y-86764126D01*
X155705583Y-86759200D01*
X156714417Y-86759200D01*
X156764433Y-86764126D01*
G37*
G36*
X169259561Y-86663646D02*
G01*
X169300574Y-86676088D01*
X169338380Y-86696295D01*
X169371513Y-86723487D01*
X169398705Y-86756620D01*
X169418912Y-86794426D01*
X169431354Y-86835439D01*
X169435800Y-86880582D01*
X169435800Y-87414418D01*
X169431354Y-87459561D01*
X169418912Y-87500574D01*
X169398705Y-87538380D01*
X169371513Y-87571513D01*
X169338380Y-87598705D01*
X169300574Y-87618912D01*
X169259561Y-87631354D01*
X169214418Y-87635800D01*
X168605582Y-87635800D01*
X168560439Y-87631354D01*
X168519426Y-87618912D01*
X168481620Y-87598705D01*
X168448487Y-87571513D01*
X168421295Y-87538380D01*
X168401088Y-87500574D01*
X168388646Y-87459561D01*
X168384200Y-87414418D01*
X168384200Y-86880582D01*
X168388646Y-86835439D01*
X168401088Y-86794426D01*
X168421295Y-86756620D01*
X168448487Y-86723487D01*
X168481620Y-86696295D01*
X168519426Y-86676088D01*
X168560439Y-86663646D01*
X168605582Y-86659200D01*
X169214418Y-86659200D01*
X169259561Y-86663646D01*
G37*
G36*
X163784280Y-87401400D02*
G01*
X161335720Y-87401400D01*
X161335720Y-86700360D01*
X163784280Y-86700360D01*
X163784280Y-87401400D01*
G37*
G36*
X128573765Y-85358620D02*
G01*
X128763288Y-85437123D01*
X128933854Y-85551092D01*
X129078908Y-85696146D01*
X129192877Y-85866712D01*
X129271380Y-86056235D01*
X129311400Y-86257431D01*
X129311400Y-86462569D01*
X129271380Y-86663765D01*
X129192877Y-86853288D01*
X129078908Y-87023854D01*
X128933854Y-87168908D01*
X128763288Y-87282877D01*
X128573765Y-87361380D01*
X128372569Y-87401400D01*
X128167431Y-87401400D01*
X127966235Y-87361380D01*
X127776712Y-87282877D01*
X127606146Y-87168908D01*
X127461092Y-87023854D01*
X127347123Y-86853288D01*
X127268620Y-86663765D01*
X127228600Y-86462569D01*
X127228600Y-86257431D01*
X127268620Y-86056235D01*
X127347123Y-85866712D01*
X127461092Y-85696146D01*
X127606146Y-85551092D01*
X127776712Y-85437123D01*
X127966235Y-85358620D01*
X128167431Y-85318600D01*
X128372569Y-85318600D01*
X128573765Y-85358620D01*
G37*
G36*
X174339561Y-86358646D02*
G01*
X174380574Y-86371088D01*
X174418380Y-86391295D01*
X174451513Y-86418487D01*
X174478705Y-86451620D01*
X174498912Y-86489426D01*
X174511354Y-86530439D01*
X174515800Y-86575582D01*
X174515800Y-87109418D01*
X174511354Y-87154561D01*
X174498912Y-87195574D01*
X174478705Y-87233380D01*
X174451513Y-87266513D01*
X174418380Y-87293705D01*
X174380574Y-87313912D01*
X174339561Y-87326354D01*
X174294418Y-87330800D01*
X173685582Y-87330800D01*
X173640439Y-87326354D01*
X173599426Y-87313912D01*
X173561620Y-87293705D01*
X173528487Y-87266513D01*
X173501295Y-87233380D01*
X173481088Y-87195574D01*
X173468646Y-87154561D01*
X173464200Y-87109418D01*
X173464200Y-86575582D01*
X173468646Y-86530439D01*
X173481088Y-86489426D01*
X173501295Y-86451620D01*
X173528487Y-86418487D01*
X173561620Y-86391295D01*
X173599426Y-86371088D01*
X173640439Y-86358646D01*
X173685582Y-86354200D01*
X174294418Y-86354200D01*
X174339561Y-86358646D01*
G37*
G36*
X169259561Y-85088646D02*
G01*
X169300574Y-85101088D01*
X169338380Y-85121295D01*
X169371513Y-85148487D01*
X169398705Y-85181620D01*
X169418912Y-85219426D01*
X169431354Y-85260439D01*
X169435800Y-85305582D01*
X169435800Y-85839418D01*
X169431354Y-85884561D01*
X169418912Y-85925574D01*
X169398705Y-85963380D01*
X169371513Y-85996513D01*
X169338380Y-86023705D01*
X169300574Y-86043912D01*
X169259561Y-86056354D01*
X169214418Y-86060800D01*
X168605582Y-86060800D01*
X168560439Y-86056354D01*
X168519426Y-86043912D01*
X168481620Y-86023705D01*
X168448487Y-85996513D01*
X168421295Y-85963380D01*
X168401088Y-85925574D01*
X168388646Y-85884561D01*
X168384200Y-85839418D01*
X168384200Y-85305582D01*
X168388646Y-85260439D01*
X168401088Y-85219426D01*
X168421295Y-85181620D01*
X168448487Y-85148487D01*
X168481620Y-85121295D01*
X168519426Y-85101088D01*
X168560439Y-85088646D01*
X168605582Y-85084200D01*
X169214418Y-85084200D01*
X169259561Y-85088646D01*
G37*
G36*
X156764433Y-84889126D02*
G01*
X156810146Y-84902993D01*
X156852265Y-84925506D01*
X156889191Y-84955809D01*
X156919494Y-84992735D01*
X156942007Y-85034854D01*
X156955874Y-85080567D01*
X156960800Y-85130583D01*
X156960800Y-85714417D01*
X156955874Y-85764433D01*
X156942007Y-85810146D01*
X156919494Y-85852265D01*
X156889191Y-85889191D01*
X156852265Y-85919494D01*
X156810146Y-85942007D01*
X156764433Y-85955874D01*
X156714417Y-85960800D01*
X155705583Y-85960800D01*
X155655567Y-85955874D01*
X155609854Y-85942007D01*
X155567735Y-85919494D01*
X155530809Y-85889191D01*
X155500506Y-85852265D01*
X155477993Y-85810146D01*
X155464126Y-85764433D01*
X155459200Y-85714417D01*
X155459200Y-85130583D01*
X155464126Y-85080567D01*
X155477993Y-85034854D01*
X155500506Y-84992735D01*
X155530809Y-84955809D01*
X155567735Y-84925506D01*
X155609854Y-84902993D01*
X155655567Y-84889126D01*
X155705583Y-84884200D01*
X156714417Y-84884200D01*
X156764433Y-84889126D01*
G37*
G36*
X128573765Y-82818620D02*
G01*
X128763288Y-82897123D01*
X128933854Y-83011092D01*
X129078908Y-83156146D01*
X129192877Y-83326712D01*
X129271380Y-83516235D01*
X129311400Y-83717431D01*
X129311400Y-83922569D01*
X129271380Y-84123765D01*
X129192877Y-84313288D01*
X129078908Y-84483854D01*
X128933854Y-84628908D01*
X128763288Y-84742877D01*
X128573765Y-84821380D01*
X128372569Y-84861400D01*
X128167431Y-84861400D01*
X127966235Y-84821380D01*
X127776712Y-84742877D01*
X127606146Y-84628908D01*
X127461092Y-84483854D01*
X127347123Y-84313288D01*
X127268620Y-84123765D01*
X127228600Y-83922569D01*
X127228600Y-83717431D01*
X127268620Y-83516235D01*
X127347123Y-83326712D01*
X127461092Y-83156146D01*
X127606146Y-83011092D01*
X127776712Y-82897123D01*
X127966235Y-82818620D01*
X128167431Y-82778600D01*
X128372569Y-82778600D01*
X128573765Y-82818620D01*
G37*
G36*
X149384561Y-82028646D02*
G01*
X149425574Y-82041088D01*
X149463380Y-82061295D01*
X149496513Y-82088487D01*
X149523705Y-82121620D01*
X149543912Y-82159426D01*
X149556354Y-82200439D01*
X149560800Y-82245582D01*
X149560800Y-82854418D01*
X149556354Y-82899561D01*
X149543912Y-82940574D01*
X149523705Y-82978380D01*
X149496513Y-83011513D01*
X149463380Y-83038705D01*
X149425574Y-83058912D01*
X149384561Y-83071354D01*
X149339418Y-83075800D01*
X148805582Y-83075800D01*
X148760439Y-83071354D01*
X148719426Y-83058912D01*
X148681620Y-83038705D01*
X148648487Y-83011513D01*
X148621295Y-82978380D01*
X148601088Y-82940574D01*
X148588646Y-82899561D01*
X148584200Y-82854418D01*
X148584200Y-82245582D01*
X148588646Y-82200439D01*
X148601088Y-82159426D01*
X148621295Y-82121620D01*
X148648487Y-82088487D01*
X148681620Y-82061295D01*
X148719426Y-82041088D01*
X148760439Y-82028646D01*
X148805582Y-82024200D01*
X149339418Y-82024200D01*
X149384561Y-82028646D01*
G37*
G36*
X168434561Y-82028646D02*
G01*
X168475574Y-82041088D01*
X168513380Y-82061295D01*
X168546513Y-82088487D01*
X168573705Y-82121620D01*
X168593912Y-82159426D01*
X168606354Y-82200439D01*
X168610800Y-82245582D01*
X168610800Y-82854418D01*
X168606354Y-82899561D01*
X168593912Y-82940574D01*
X168573705Y-82978380D01*
X168546513Y-83011513D01*
X168513380Y-83038705D01*
X168475574Y-83058912D01*
X168434561Y-83071354D01*
X168389418Y-83075800D01*
X167855582Y-83075800D01*
X167810439Y-83071354D01*
X167769426Y-83058912D01*
X167731620Y-83038705D01*
X167698487Y-83011513D01*
X167671295Y-82978380D01*
X167651088Y-82940574D01*
X167638646Y-82899561D01*
X167634200Y-82854418D01*
X167634200Y-82245582D01*
X167638646Y-82200439D01*
X167651088Y-82159426D01*
X167671295Y-82121620D01*
X167698487Y-82088487D01*
X167731620Y-82061295D01*
X167769426Y-82041088D01*
X167810439Y-82028646D01*
X167855582Y-82024200D01*
X168389418Y-82024200D01*
X168434561Y-82028646D01*
G37*
G36*
X170009561Y-82028646D02*
G01*
X170050574Y-82041088D01*
X170088380Y-82061295D01*
X170121513Y-82088487D01*
X170148705Y-82121620D01*
X170168912Y-82159426D01*
X170181354Y-82200439D01*
X170185800Y-82245582D01*
X170185800Y-82854418D01*
X170181354Y-82899561D01*
X170168912Y-82940574D01*
X170148705Y-82978380D01*
X170121513Y-83011513D01*
X170088380Y-83038705D01*
X170050574Y-83058912D01*
X170009561Y-83071354D01*
X169964418Y-83075800D01*
X169430582Y-83075800D01*
X169385439Y-83071354D01*
X169344426Y-83058912D01*
X169306620Y-83038705D01*
X169273487Y-83011513D01*
X169246295Y-82978380D01*
X169226088Y-82940574D01*
X169213646Y-82899561D01*
X169209200Y-82854418D01*
X169209200Y-82245582D01*
X169213646Y-82200439D01*
X169226088Y-82159426D01*
X169246295Y-82121620D01*
X169273487Y-82088487D01*
X169306620Y-82061295D01*
X169344426Y-82041088D01*
X169385439Y-82028646D01*
X169430582Y-82024200D01*
X169964418Y-82024200D01*
X170009561Y-82028646D01*
G37*
G36*
X150959561Y-82028646D02*
G01*
X151000574Y-82041088D01*
X151038380Y-82061295D01*
X151071513Y-82088487D01*
X151098705Y-82121620D01*
X151118912Y-82159426D01*
X151131354Y-82200439D01*
X151135800Y-82245582D01*
X151135800Y-82854418D01*
X151131354Y-82899561D01*
X151118912Y-82940574D01*
X151098705Y-82978380D01*
X151071513Y-83011513D01*
X151038380Y-83038705D01*
X151000574Y-83058912D01*
X150959561Y-83071354D01*
X150914418Y-83075800D01*
X150380582Y-83075800D01*
X150335439Y-83071354D01*
X150294426Y-83058912D01*
X150256620Y-83038705D01*
X150223487Y-83011513D01*
X150196295Y-82978380D01*
X150176088Y-82940574D01*
X150163646Y-82899561D01*
X150159200Y-82854418D01*
X150159200Y-82245582D01*
X150163646Y-82200439D01*
X150176088Y-82159426D01*
X150196295Y-82121620D01*
X150223487Y-82088487D01*
X150256620Y-82061295D01*
X150294426Y-82041088D01*
X150335439Y-82028646D01*
X150380582Y-82024200D01*
X150914418Y-82024200D01*
X150959561Y-82028646D01*
G37*
G36*
X164179561Y-81583646D02*
G01*
X164220574Y-81596088D01*
X164258380Y-81616295D01*
X164291513Y-81643487D01*
X164318705Y-81676620D01*
X164338912Y-81714426D01*
X164351354Y-81755439D01*
X164355800Y-81800582D01*
X164355800Y-82334418D01*
X164351354Y-82379561D01*
X164338912Y-82420574D01*
X164318705Y-82458380D01*
X164291513Y-82491513D01*
X164258380Y-82518705D01*
X164220574Y-82538912D01*
X164179561Y-82551354D01*
X164134418Y-82555800D01*
X163525582Y-82555800D01*
X163480439Y-82551354D01*
X163439426Y-82538912D01*
X163401620Y-82518705D01*
X163368487Y-82491513D01*
X163341295Y-82458380D01*
X163321088Y-82420574D01*
X163308646Y-82379561D01*
X163304200Y-82334418D01*
X163304200Y-81800582D01*
X163308646Y-81755439D01*
X163321088Y-81714426D01*
X163341295Y-81676620D01*
X163368487Y-81643487D01*
X163401620Y-81616295D01*
X163439426Y-81596088D01*
X163480439Y-81583646D01*
X163525582Y-81579200D01*
X164134418Y-81579200D01*
X164179561Y-81583646D01*
G37*
G36*
X156559561Y-81583646D02*
G01*
X156600574Y-81596088D01*
X156638380Y-81616295D01*
X156671513Y-81643487D01*
X156698705Y-81676620D01*
X156718912Y-81714426D01*
X156731354Y-81755439D01*
X156735800Y-81800582D01*
X156735800Y-82334418D01*
X156731354Y-82379561D01*
X156718912Y-82420574D01*
X156698705Y-82458380D01*
X156671513Y-82491513D01*
X156638380Y-82518705D01*
X156600574Y-82538912D01*
X156559561Y-82551354D01*
X156514418Y-82555800D01*
X155905582Y-82555800D01*
X155860439Y-82551354D01*
X155819426Y-82538912D01*
X155781620Y-82518705D01*
X155748487Y-82491513D01*
X155721295Y-82458380D01*
X155701088Y-82420574D01*
X155688646Y-82379561D01*
X155684200Y-82334418D01*
X155684200Y-81800582D01*
X155688646Y-81755439D01*
X155701088Y-81714426D01*
X155721295Y-81676620D01*
X155748487Y-81643487D01*
X155781620Y-81616295D01*
X155819426Y-81596088D01*
X155860439Y-81583646D01*
X155905582Y-81579200D01*
X156514418Y-81579200D01*
X156559561Y-81583646D01*
G37*
G36*
X128573765Y-80278620D02*
G01*
X128763288Y-80357123D01*
X128933854Y-80471092D01*
X129078908Y-80616146D01*
X129192877Y-80786712D01*
X129271380Y-80976235D01*
X129311400Y-81177431D01*
X129311400Y-81382569D01*
X129271380Y-81583765D01*
X129192877Y-81773288D01*
X129078908Y-81943854D01*
X128933854Y-82088908D01*
X128763288Y-82202877D01*
X128573765Y-82281380D01*
X128372569Y-82321400D01*
X128167431Y-82321400D01*
X127966235Y-82281380D01*
X127776712Y-82202877D01*
X127606146Y-82088908D01*
X127461092Y-81943854D01*
X127347123Y-81773288D01*
X127268620Y-81583765D01*
X127228600Y-81382569D01*
X127228600Y-81177431D01*
X127268620Y-80976235D01*
X127347123Y-80786712D01*
X127461092Y-80616146D01*
X127606146Y-80471092D01*
X127776712Y-80357123D01*
X127966235Y-80278620D01*
X128167431Y-80238600D01*
X128372569Y-80238600D01*
X128573765Y-80278620D01*
G37*
G36*
X144850800Y-82100800D02*
G01*
X141949200Y-82100800D01*
X141949200Y-79799200D01*
X144850800Y-79799200D01*
X144850800Y-82100800D01*
G37*
G36*
X164179561Y-80008646D02*
G01*
X164220574Y-80021088D01*
X164258380Y-80041295D01*
X164291513Y-80068487D01*
X164318705Y-80101620D01*
X164338912Y-80139426D01*
X164351354Y-80180439D01*
X164355800Y-80225582D01*
X164355800Y-80759418D01*
X164351354Y-80804561D01*
X164338912Y-80845574D01*
X164318705Y-80883380D01*
X164291513Y-80916513D01*
X164258380Y-80943705D01*
X164220574Y-80963912D01*
X164179561Y-80976354D01*
X164134418Y-80980800D01*
X163525582Y-80980800D01*
X163480439Y-80976354D01*
X163439426Y-80963912D01*
X163401620Y-80943705D01*
X163368487Y-80916513D01*
X163341295Y-80883380D01*
X163321088Y-80845574D01*
X163308646Y-80804561D01*
X163304200Y-80759418D01*
X163304200Y-80225582D01*
X163308646Y-80180439D01*
X163321088Y-80139426D01*
X163341295Y-80101620D01*
X163368487Y-80068487D01*
X163401620Y-80041295D01*
X163439426Y-80021088D01*
X163480439Y-80008646D01*
X163525582Y-80004200D01*
X164134418Y-80004200D01*
X164179561Y-80008646D01*
G37*
G36*
X156559561Y-80008646D02*
G01*
X156600574Y-80021088D01*
X156638380Y-80041295D01*
X156671513Y-80068487D01*
X156698705Y-80101620D01*
X156718912Y-80139426D01*
X156731354Y-80180439D01*
X156735800Y-80225582D01*
X156735800Y-80759418D01*
X156731354Y-80804561D01*
X156718912Y-80845574D01*
X156698705Y-80883380D01*
X156671513Y-80916513D01*
X156638380Y-80943705D01*
X156600574Y-80963912D01*
X156559561Y-80976354D01*
X156514418Y-80980800D01*
X155905582Y-80980800D01*
X155860439Y-80976354D01*
X155819426Y-80963912D01*
X155781620Y-80943705D01*
X155748487Y-80916513D01*
X155721295Y-80883380D01*
X155701088Y-80845574D01*
X155688646Y-80804561D01*
X155684200Y-80759418D01*
X155684200Y-80225582D01*
X155688646Y-80180439D01*
X155701088Y-80139426D01*
X155721295Y-80101620D01*
X155748487Y-80068487D01*
X155781620Y-80041295D01*
X155819426Y-80021088D01*
X155860439Y-80008646D01*
X155905582Y-80004200D01*
X156514418Y-80004200D01*
X156559561Y-80008646D01*
G37*
G36*
X139962754Y-79183817D02*
G01*
X140126689Y-79251721D01*
X140274227Y-79350303D01*
X140399697Y-79475773D01*
X140498279Y-79623311D01*
X140566183Y-79787246D01*
X140600800Y-79961279D01*
X140600800Y-80138721D01*
X140566183Y-80312754D01*
X140498279Y-80476689D01*
X140399697Y-80624227D01*
X140274227Y-80749697D01*
X140126689Y-80848279D01*
X139962754Y-80916183D01*
X139788721Y-80950800D01*
X139611279Y-80950800D01*
X139437246Y-80916183D01*
X139273311Y-80848279D01*
X139125773Y-80749697D01*
X139000303Y-80624227D01*
X138901721Y-80476689D01*
X138833817Y-80312754D01*
X138799200Y-80138721D01*
X138799200Y-79961279D01*
X138833817Y-79787246D01*
X138901721Y-79623311D01*
X139000303Y-79475773D01*
X139125773Y-79350303D01*
X139273311Y-79251721D01*
X139437246Y-79183817D01*
X139611279Y-79149200D01*
X139788721Y-79149200D01*
X139962754Y-79183817D01*
G37*
G36*
X137450800Y-80100800D02*
G01*
X134549200Y-80100800D01*
X134549200Y-77799200D01*
X137450800Y-77799200D01*
X137450800Y-80100800D01*
G37*
G36*
X168434561Y-78218646D02*
G01*
X168475574Y-78231088D01*
X168513380Y-78251295D01*
X168546513Y-78278487D01*
X168573705Y-78311620D01*
X168593912Y-78349426D01*
X168606354Y-78390439D01*
X168610800Y-78435582D01*
X168610800Y-79044418D01*
X168606354Y-79089561D01*
X168593912Y-79130574D01*
X168573705Y-79168380D01*
X168546513Y-79201513D01*
X168513380Y-79228705D01*
X168475574Y-79248912D01*
X168434561Y-79261354D01*
X168389418Y-79265800D01*
X167855582Y-79265800D01*
X167810439Y-79261354D01*
X167769426Y-79248912D01*
X167731620Y-79228705D01*
X167698487Y-79201513D01*
X167671295Y-79168380D01*
X167651088Y-79130574D01*
X167638646Y-79089561D01*
X167634200Y-79044418D01*
X167634200Y-78435582D01*
X167638646Y-78390439D01*
X167651088Y-78349426D01*
X167671295Y-78311620D01*
X167698487Y-78278487D01*
X167731620Y-78251295D01*
X167769426Y-78231088D01*
X167810439Y-78218646D01*
X167855582Y-78214200D01*
X168389418Y-78214200D01*
X168434561Y-78218646D01*
G37*
G36*
X170009561Y-78218646D02*
G01*
X170050574Y-78231088D01*
X170088380Y-78251295D01*
X170121513Y-78278487D01*
X170148705Y-78311620D01*
X170168912Y-78349426D01*
X170181354Y-78390439D01*
X170185800Y-78435582D01*
X170185800Y-79044418D01*
X170181354Y-79089561D01*
X170168912Y-79130574D01*
X170148705Y-79168380D01*
X170121513Y-79201513D01*
X170088380Y-79228705D01*
X170050574Y-79248912D01*
X170009561Y-79261354D01*
X169964418Y-79265800D01*
X169430582Y-79265800D01*
X169385439Y-79261354D01*
X169344426Y-79248912D01*
X169306620Y-79228705D01*
X169273487Y-79201513D01*
X169246295Y-79168380D01*
X169226088Y-79130574D01*
X169213646Y-79089561D01*
X169209200Y-79044418D01*
X169209200Y-78435582D01*
X169213646Y-78390439D01*
X169226088Y-78349426D01*
X169246295Y-78311620D01*
X169273487Y-78278487D01*
X169306620Y-78251295D01*
X169344426Y-78231088D01*
X169385439Y-78218646D01*
X169430582Y-78214200D01*
X169964418Y-78214200D01*
X170009561Y-78218646D01*
G37*
G36*
X157004561Y-76948646D02*
G01*
X157045574Y-76961088D01*
X157083380Y-76981295D01*
X157116513Y-77008487D01*
X157143705Y-77041620D01*
X157163912Y-77079426D01*
X157176354Y-77120439D01*
X157180800Y-77165582D01*
X157180800Y-77774418D01*
X157176354Y-77819561D01*
X157163912Y-77860574D01*
X157143705Y-77898380D01*
X157116513Y-77931513D01*
X157083380Y-77958705D01*
X157045574Y-77978912D01*
X157004561Y-77991354D01*
X156959418Y-77995800D01*
X156425582Y-77995800D01*
X156380439Y-77991354D01*
X156339426Y-77978912D01*
X156301620Y-77958705D01*
X156268487Y-77931513D01*
X156241295Y-77898380D01*
X156221088Y-77860574D01*
X156208646Y-77819561D01*
X156204200Y-77774418D01*
X156204200Y-77165582D01*
X156208646Y-77120439D01*
X156221088Y-77079426D01*
X156241295Y-77041620D01*
X156268487Y-77008487D01*
X156301620Y-76981295D01*
X156339426Y-76961088D01*
X156380439Y-76948646D01*
X156425582Y-76944200D01*
X156959418Y-76944200D01*
X157004561Y-76948646D01*
G37*
G36*
X162389561Y-76948646D02*
G01*
X162430574Y-76961088D01*
X162468380Y-76981295D01*
X162501513Y-77008487D01*
X162528705Y-77041620D01*
X162548912Y-77079426D01*
X162561354Y-77120439D01*
X162565800Y-77165582D01*
X162565800Y-77774418D01*
X162561354Y-77819561D01*
X162548912Y-77860574D01*
X162528705Y-77898380D01*
X162501513Y-77931513D01*
X162468380Y-77958705D01*
X162430574Y-77978912D01*
X162389561Y-77991354D01*
X162344418Y-77995800D01*
X161810582Y-77995800D01*
X161765439Y-77991354D01*
X161724426Y-77978912D01*
X161686620Y-77958705D01*
X161653487Y-77931513D01*
X161626295Y-77898380D01*
X161606088Y-77860574D01*
X161593646Y-77819561D01*
X161589200Y-77774418D01*
X161589200Y-77165582D01*
X161593646Y-77120439D01*
X161606088Y-77079426D01*
X161626295Y-77041620D01*
X161653487Y-77008487D01*
X161686620Y-76981295D01*
X161724426Y-76961088D01*
X161765439Y-76948646D01*
X161810582Y-76944200D01*
X162344418Y-76944200D01*
X162389561Y-76948646D01*
G37*
G36*
X160814561Y-76948646D02*
G01*
X160855574Y-76961088D01*
X160893380Y-76981295D01*
X160926513Y-77008487D01*
X160953705Y-77041620D01*
X160973912Y-77079426D01*
X160986354Y-77120439D01*
X160990800Y-77165582D01*
X160990800Y-77774418D01*
X160986354Y-77819561D01*
X160973912Y-77860574D01*
X160953705Y-77898380D01*
X160926513Y-77931513D01*
X160893380Y-77958705D01*
X160855574Y-77978912D01*
X160814561Y-77991354D01*
X160769418Y-77995800D01*
X160235582Y-77995800D01*
X160190439Y-77991354D01*
X160149426Y-77978912D01*
X160111620Y-77958705D01*
X160078487Y-77931513D01*
X160051295Y-77898380D01*
X160031088Y-77860574D01*
X160018646Y-77819561D01*
X160014200Y-77774418D01*
X160014200Y-77165582D01*
X160018646Y-77120439D01*
X160031088Y-77079426D01*
X160051295Y-77041620D01*
X160078487Y-77008487D01*
X160111620Y-76981295D01*
X160149426Y-76961088D01*
X160190439Y-76948646D01*
X160235582Y-76944200D01*
X160769418Y-76944200D01*
X160814561Y-76948646D01*
G37*
G36*
X158579561Y-76948646D02*
G01*
X158620574Y-76961088D01*
X158658380Y-76981295D01*
X158691513Y-77008487D01*
X158718705Y-77041620D01*
X158738912Y-77079426D01*
X158751354Y-77120439D01*
X158755800Y-77165582D01*
X158755800Y-77774418D01*
X158751354Y-77819561D01*
X158738912Y-77860574D01*
X158718705Y-77898380D01*
X158691513Y-77931513D01*
X158658380Y-77958705D01*
X158620574Y-77978912D01*
X158579561Y-77991354D01*
X158534418Y-77995800D01*
X158000582Y-77995800D01*
X157955439Y-77991354D01*
X157914426Y-77978912D01*
X157876620Y-77958705D01*
X157843487Y-77931513D01*
X157816295Y-77898380D01*
X157796088Y-77860574D01*
X157783646Y-77819561D01*
X157779200Y-77774418D01*
X157779200Y-77165582D01*
X157783646Y-77120439D01*
X157796088Y-77079426D01*
X157816295Y-77041620D01*
X157843487Y-77008487D01*
X157876620Y-76981295D01*
X157914426Y-76961088D01*
X157955439Y-76948646D01*
X158000582Y-76944200D01*
X158534418Y-76944200D01*
X158579561Y-76948646D01*
G37*
G36*
X165774433Y-72914126D02*
G01*
X165820146Y-72927993D01*
X165862265Y-72950506D01*
X165899191Y-72980809D01*
X165929494Y-73017735D01*
X165952007Y-73059854D01*
X165965874Y-73105567D01*
X165970800Y-73155583D01*
X165970800Y-74164417D01*
X165965874Y-74214433D01*
X165952007Y-74260146D01*
X165929494Y-74302265D01*
X165899191Y-74339191D01*
X165862265Y-74369494D01*
X165820146Y-74392007D01*
X165774433Y-74405874D01*
X165724417Y-74410800D01*
X165140583Y-74410800D01*
X165090567Y-74405874D01*
X165044854Y-74392007D01*
X165002735Y-74369494D01*
X164965809Y-74339191D01*
X164935506Y-74302265D01*
X164912993Y-74260146D01*
X164899126Y-74214433D01*
X164894200Y-74164417D01*
X164894200Y-73155583D01*
X164899126Y-73105567D01*
X164912993Y-73059854D01*
X164935506Y-73017735D01*
X164965809Y-72980809D01*
X165002735Y-72950506D01*
X165044854Y-72927993D01*
X165090567Y-72914126D01*
X165140583Y-72909200D01*
X165724417Y-72909200D01*
X165774433Y-72914126D01*
G37*
G36*
X167649433Y-72914126D02*
G01*
X167695146Y-72927993D01*
X167737265Y-72950506D01*
X167774191Y-72980809D01*
X167804494Y-73017735D01*
X167827007Y-73059854D01*
X167840874Y-73105567D01*
X167845800Y-73155583D01*
X167845800Y-74164417D01*
X167840874Y-74214433D01*
X167827007Y-74260146D01*
X167804494Y-74302265D01*
X167774191Y-74339191D01*
X167737265Y-74369494D01*
X167695146Y-74392007D01*
X167649433Y-74405874D01*
X167599417Y-74410800D01*
X167015583Y-74410800D01*
X166965567Y-74405874D01*
X166919854Y-74392007D01*
X166877735Y-74369494D01*
X166840809Y-74339191D01*
X166810506Y-74302265D01*
X166787993Y-74260146D01*
X166774126Y-74214433D01*
X166769200Y-74164417D01*
X166769200Y-73155583D01*
X166774126Y-73105567D01*
X166787993Y-73059854D01*
X166810506Y-73017735D01*
X166840809Y-72980809D01*
X166877735Y-72950506D01*
X166919854Y-72927993D01*
X166965567Y-72914126D01*
X167015583Y-72909200D01*
X167599417Y-72909200D01*
X167649433Y-72914126D01*
G37*
G36*
X157004561Y-73138646D02*
G01*
X157045574Y-73151088D01*
X157083380Y-73171295D01*
X157116513Y-73198487D01*
X157143705Y-73231620D01*
X157163912Y-73269426D01*
X157176354Y-73310439D01*
X157180800Y-73355582D01*
X157180800Y-73964418D01*
X157176354Y-74009561D01*
X157163912Y-74050574D01*
X157143705Y-74088380D01*
X157116513Y-74121513D01*
X157083380Y-74148705D01*
X157045574Y-74168912D01*
X157004561Y-74181354D01*
X156959418Y-74185800D01*
X156425582Y-74185800D01*
X156380439Y-74181354D01*
X156339426Y-74168912D01*
X156301620Y-74148705D01*
X156268487Y-74121513D01*
X156241295Y-74088380D01*
X156221088Y-74050574D01*
X156208646Y-74009561D01*
X156204200Y-73964418D01*
X156204200Y-73355582D01*
X156208646Y-73310439D01*
X156221088Y-73269426D01*
X156241295Y-73231620D01*
X156268487Y-73198487D01*
X156301620Y-73171295D01*
X156339426Y-73151088D01*
X156380439Y-73138646D01*
X156425582Y-73134200D01*
X156959418Y-73134200D01*
X157004561Y-73138646D01*
G37*
G36*
X158579561Y-73138646D02*
G01*
X158620574Y-73151088D01*
X158658380Y-73171295D01*
X158691513Y-73198487D01*
X158718705Y-73231620D01*
X158738912Y-73269426D01*
X158751354Y-73310439D01*
X158755800Y-73355582D01*
X158755800Y-73964418D01*
X158751354Y-74009561D01*
X158738912Y-74050574D01*
X158718705Y-74088380D01*
X158691513Y-74121513D01*
X158658380Y-74148705D01*
X158620574Y-74168912D01*
X158579561Y-74181354D01*
X158534418Y-74185800D01*
X158000582Y-74185800D01*
X157955439Y-74181354D01*
X157914426Y-74168912D01*
X157876620Y-74148705D01*
X157843487Y-74121513D01*
X157816295Y-74088380D01*
X157796088Y-74050574D01*
X157783646Y-74009561D01*
X157779200Y-73964418D01*
X157779200Y-73355582D01*
X157783646Y-73310439D01*
X157796088Y-73269426D01*
X157816295Y-73231620D01*
X157843487Y-73198487D01*
X157876620Y-73171295D01*
X157914426Y-73151088D01*
X157955439Y-73138646D01*
X158000582Y-73134200D01*
X158534418Y-73134200D01*
X158579561Y-73138646D01*
G37*
G36*
X160814561Y-73138646D02*
G01*
X160855574Y-73151088D01*
X160893380Y-73171295D01*
X160926513Y-73198487D01*
X160953705Y-73231620D01*
X160973912Y-73269426D01*
X160986354Y-73310439D01*
X160990800Y-73355582D01*
X160990800Y-73964418D01*
X160986354Y-74009561D01*
X160973912Y-74050574D01*
X160953705Y-74088380D01*
X160926513Y-74121513D01*
X160893380Y-74148705D01*
X160855574Y-74168912D01*
X160814561Y-74181354D01*
X160769418Y-74185800D01*
X160235582Y-74185800D01*
X160190439Y-74181354D01*
X160149426Y-74168912D01*
X160111620Y-74148705D01*
X160078487Y-74121513D01*
X160051295Y-74088380D01*
X160031088Y-74050574D01*
X160018646Y-74009561D01*
X160014200Y-73964418D01*
X160014200Y-73355582D01*
X160018646Y-73310439D01*
X160031088Y-73269426D01*
X160051295Y-73231620D01*
X160078487Y-73198487D01*
X160111620Y-73171295D01*
X160149426Y-73151088D01*
X160190439Y-73138646D01*
X160235582Y-73134200D01*
X160769418Y-73134200D01*
X160814561Y-73138646D01*
G37*
G36*
X162389561Y-73138646D02*
G01*
X162430574Y-73151088D01*
X162468380Y-73171295D01*
X162501513Y-73198487D01*
X162528705Y-73231620D01*
X162548912Y-73269426D01*
X162561354Y-73310439D01*
X162565800Y-73355582D01*
X162565800Y-73964418D01*
X162561354Y-74009561D01*
X162548912Y-74050574D01*
X162528705Y-74088380D01*
X162501513Y-74121513D01*
X162468380Y-74148705D01*
X162430574Y-74168912D01*
X162389561Y-74181354D01*
X162344418Y-74185800D01*
X161810582Y-74185800D01*
X161765439Y-74181354D01*
X161724426Y-74168912D01*
X161686620Y-74148705D01*
X161653487Y-74121513D01*
X161626295Y-74088380D01*
X161606088Y-74050574D01*
X161593646Y-74009561D01*
X161589200Y-73964418D01*
X161589200Y-73355582D01*
X161593646Y-73310439D01*
X161606088Y-73269426D01*
X161626295Y-73231620D01*
X161653487Y-73198487D01*
X161686620Y-73171295D01*
X161724426Y-73151088D01*
X161765439Y-73138646D01*
X161810582Y-73134200D01*
X162344418Y-73134200D01*
X162389561Y-73138646D01*
G37*
M02*
